<svg width="35" height="35" viewBox="0 0 35 35" fill="none" xmlns="http://www.w3.org/2000/svg">
<path fill-rule="evenodd" clip-rule="evenodd" d="M17.6267 0.282227C8.28168 0.282227 0.706055 7.85785 0.706055 17.2029C0.706055 26.5479 8.28168 34.1235 17.6267 34.1235C22.1143 34.1235 26.4182 32.3408 29.5914 29.1676C32.7646 25.9943 34.5473 21.6905 34.5473 17.2029C34.5473 7.85785 26.9717 0.282227 17.6267 0.282227ZM23.9695 13.5027H21.8562C21.5654 13.5027 21.3275 13.2648 21.3257 12.974V10.8607C21.3257 10.5676 21.5632 10.3301 21.8562 10.3301H23.9695C24.2626 10.3301 24.5001 10.5676 24.5001 10.8607V12.974C24.4991 13.2663 24.2619 13.5027 23.9695 13.5027ZM17.6292 20.7278C18.8889 20.7275 20.0527 20.0552 20.6823 18.9641C21.3119 17.873 21.3116 16.5289 20.6814 15.4381C20.0513 14.3473 18.8871 13.6755 17.6274 13.6758C15.68 13.6763 14.1018 15.2553 14.1023 17.2027C14.1027 19.1501 15.6818 20.7283 17.6292 20.7278ZM22.9151 17.2032C22.9151 20.1235 20.5477 22.4909 17.6274 22.4909C14.707 22.4909 12.3397 20.1235 12.3397 17.2032C12.3397 16.9018 12.3714 16.6075 12.426 16.3219H10.5771V23.3669C10.5771 23.8569 10.9737 24.2535 11.4637 24.2535H23.7928C24.2818 24.2525 24.6776 23.8559 24.6776 23.3669V16.3219H22.8287C22.8833 16.6075 22.9151 16.9018 22.9151 17.2032ZM24.4805 26.0156C25.5574 26.0156 26.4387 25.1343 26.4387 24.0574V10.3482C26.4387 9.27122 25.5574 8.38994 24.4805 8.38994H10.7712C9.69431 8.38994 8.81302 9.27122 8.81302 10.3482V24.0574C8.81302 25.1343 9.69431 26.0156 10.7712 26.0156H24.4805Z" fill="#FFFCFC"/>
</svg>
