<svg width="28" height="28" viewBox="0 0 28 28" fill="none" xmlns="http://www.w3.org/2000/svg">
<path d="M16.6927 3.80307C19.0047 4.41206 21.0059 5.78666 22.4095 7.63923H22.4084L21.8251 7.87418L20.7719 8.24121L19.7024 8.55563V8.5568L19.3996 8.62927C18.8023 6.57556 17.8661 4.86542 16.6913 3.8029L16.6927 3.80307ZM10.9758 3.89658C9.84198 4.97078 8.93844 6.65276 8.35875 8.66211V8.66328L7.27637 8.36756L6.16594 8.0017L5.51019 7.74805H5.50902C6.84974 5.93044 8.75845 4.55948 10.9748 3.89668L10.9758 3.89658ZM13.448 3.49332L13.455 9.32037L13.0284 9.31687L11.8618 9.24556L10.7 9.11465L9.54626 8.92412V8.92529L9.16521 8.84113H9.16404C10.0524 5.80667 11.6876 3.7836 13.4466 3.4936L13.448 3.49332ZM14.2802 3.4863C16.0511 3.75165 17.703 5.77496 18.5994 8.82212H18.5983L17.5252 9.02667L16.4218 9.18096L15.3114 9.28149L14.2874 9.32357L14.2793 3.48604L14.2802 3.4863ZM22.8962 8.33836C23.8897 9.89532 24.4847 11.7304 24.5396 13.7001L24.5384 13.7013L20.1282 13.7024L20.1271 13.7036C20.1084 12.2098 19.9284 10.7627 19.6116 9.43357H19.6104L19.9085 9.3611L19.9284 9.35642L21.0166 9.03614L21.0365 9.0303L22.1083 8.65626L22.127 8.64925L22.895 8.33832L22.8962 8.33836ZM18.8121 9.62646C19.1044 10.8584 19.2773 12.2308 19.296 13.7035H19.2949L14.2919 13.7058L14.2873 10.1549V10.1561L15.3556 10.1117L15.3767 10.1105L16.507 10.0077L16.5268 10.0053L17.6501 9.8487L17.6712 9.84519L18.7851 9.63246L18.805 9.62895L18.8108 9.62662L18.8121 9.62646ZM8.95263 9.64516L9.37926 9.73867L9.4003 9.74218L10.575 9.93621L10.5961 9.93971L11.7801 10.073L11.8012 10.0741L12.9887 10.1466L13.011 10.1478L13.4563 10.1513L13.461 13.7072L8.47224 13.7095C8.49094 12.2426 8.6616 10.8738 8.95149 9.64542L8.95263 9.64516ZM5.03217 8.45406L5.8761 8.78135L5.89598 8.78836L7.02745 9.16006L7.04732 9.1659L8.14958 9.46748H8.14841C7.83631 10.7895 7.65981 12.2272 7.64111 13.7094L7.63994 13.7105L3.45989 13.7117V13.7129C3.51132 11.7865 4.07941 9.98891 5.03087 8.45409L5.03217 8.45406ZM13.4621 14.538L13.4668 18.0245L12.9723 18.0315H12.9513L11.7882 18.1052L11.7672 18.1075L10.6088 18.2396L10.5878 18.2431L9.43879 18.4336L9.41775 18.4371L9.0063 18.5271C8.70472 17.3244 8.51653 15.9824 8.47796 14.5401H8.47679L13.4621 14.538ZM19.2902 14.5345C19.2516 15.9815 19.0634 17.328 18.7607 18.5332L18.7268 18.525L18.7069 18.5215L17.5953 18.3146L17.5754 18.3111L16.4545 18.1592L16.4346 18.1568L15.309 18.0598L15.2879 18.0586L14.2979 18.0224L14.2932 14.5368V14.538L19.2902 14.5345ZM7.64697 14.5415C7.68671 16.0014 7.87958 17.4121 8.20335 18.7063H8.20218L7.13381 18.9962L7.11394 19.002L6.00583 19.3644L5.98596 19.3714L5.128 19.6998C4.16133 18.199 3.56638 16.4377 3.46935 14.5441L7.64566 14.5417L7.64697 14.5415ZM24.5302 14.5309V14.5321C24.4344 16.4689 23.8149 18.27 22.8108 19.7944L22.0393 19.4858L22.0206 19.4788L20.9511 19.1117L20.9312 19.1059L19.8465 18.7915L19.8266 18.7856L19.5625 18.7237H19.5613C19.8874 17.4227 20.0826 16.0027 20.1224 14.5344H20.1212L24.5289 14.5309L24.5302 14.5309ZM8.42423 19.5069C9.01918 21.466 9.92623 23.0952 11.0555 24.1273C8.86735 23.4915 6.97145 22.166 5.62141 20.4009L5.62024 20.4021L6.27364 20.1508L7.36188 19.7954L8.42321 19.5067L8.42423 19.5069ZM19.3403 19.5256L19.6243 19.5923V19.5934L20.6903 19.9008V19.902L21.7412 20.262L22.3116 20.49H22.3104C20.8961 22.2982 18.9032 23.6344 16.611 24.2174V24.2186C17.7834 23.1958 18.7255 21.5337 19.3393 19.5254L19.3403 19.5256ZM14.2987 18.8535L15.2467 18.8886L16.3524 18.9845L17.4523 19.1341L18.5371 19.3351H18.5359C17.6312 22.2514 16.0263 24.1847 14.3057 24.4595L14.2987 18.8535ZM13.4676 18.8559L13.4746 24.4605C11.7482 24.194 10.1364 22.256 9.23025 19.3292H9.22908L9.58442 19.252L10.7136 19.065L11.8509 18.9341V18.9352L12.9929 18.8628L13.4676 18.8559ZM13.9995 2.625C13.9527 2.625 13.9048 2.625 13.858 2.62617H13.8569C13.837 2.62617 13.8159 2.62617 13.7961 2.62734H13.7949C7.60674 2.73604 2.625 7.78661 2.625 14.0007C2.625 20.2821 7.71671 25.375 13.9994 25.375C20.282 25.375 25.375 20.2821 25.375 14.0007C25.375 7.71803 20.282 2.62509 13.9994 2.62509L13.9995 2.625Z" fill="white" stroke="white" stroke-width="0.25"/>
</svg>
