<svg width="35" height="35" viewBox="0 0 35 35" fill="none" xmlns="http://www.w3.org/2000/svg">
<path d="M0.637939 17.2021C0.637939 24.4481 5.17959 30.6347 11.5713 33.0689C11.4157 31.7436 11.2502 29.5584 11.6067 28.0251C11.9136 26.7069 13.5882 19.6264 13.5882 19.6264C13.5882 19.6264 13.0833 18.6151 13.0833 17.1172C13.0833 14.7693 14.4439 13.0155 16.1398 13.0155C17.5825 13.0155 18.2784 14.0975 18.2784 15.3945C18.2784 16.8443 17.3548 19.0111 16.8781 21.021C16.4807 22.7027 17.7225 24.0747 19.3802 24.0747C22.383 24.0747 24.6927 20.9079 24.6927 16.3365C24.6927 12.2899 21.7847 9.46249 17.6334 9.46249C12.8273 9.46249 10.0055 13.0678 10.0055 16.7948C10.0055 18.2474 10.5642 19.8032 11.263 20.6504C11.3841 20.7806 11.4286 20.9645 11.3803 21.1356C11.2516 21.6702 10.9659 22.8173 10.9108 23.0521C10.8358 23.3604 10.6661 23.4269 10.345 23.277C8.23471 22.2954 6.91648 19.2106 6.91648 16.7325C6.91648 11.4016 10.7877 6.50779 18.079 6.50779C23.9403 6.50779 28.4961 10.6845 28.4961 16.2658C28.4961 22.0889 24.8257 26.7762 19.7282 26.7762C18.0153 26.7762 16.4071 25.8851 15.8555 24.8342C15.8555 24.8342 15.0083 28.0619 14.8032 28.8512C14.4043 30.3844 13.2983 32.3249 12.6123 33.4268C14.1936 33.9133 15.8711 34.175 17.6108 34.175C26.9841 34.175 34.5837 26.5754 34.5837 17.2021C34.5837 7.82885 26.9841 0.229248 17.6108 0.229248C8.23754 0.229248 0.637939 7.82885 0.637939 17.2021Z" fill="#FFFCFC"/>
</svg>
