<svg width="16" height="16" viewBox="0 0 16 16" fill="none" xmlns="http://www.w3.org/2000/svg">
<path d="M3.29289 11.2929L2.58579 12L4 13.4142L4.70711 12.7071L3.29289 11.2929ZM12.7071 4.7071L13.4142 3.99999L12 2.58578L11.2929 3.29288L12.7071 4.7071ZM4.70711 12.7071L12.7071 4.7071L11.2929 3.29288L3.29289 11.2929L4.70711 12.7071Z" fill="#DFD9D0"/>
<path d="M12.7071 11.2929L13.4142 12L12 13.4142L11.2929 12.7071L12.7071 11.2929ZM3.29288 4.7071L2.58578 3.99999L3.99999 2.58578L4.7071 3.29288L3.29288 4.7071ZM11.2929 12.7071L3.29288 4.7071L4.7071 3.29288L12.7071 11.2929L11.2929 12.7071Z" fill="#DFD9D0"/>
</svg>
