<svg width="381" height="204" viewBox="0 0 381 204" fill="none" xmlns="http://www.w3.org/2000/svg">
<path opacity="0.6" d="M344.909 -173.738C293.767 -161.75 249.179 -126.235 196.904 -135.874C196.275 -135.967 195.765 -136.078 195.158 -136.21C179.959 -139.411 168.909 -149.622 153.152 -154.576C151.445 -155.091 149.803 -155.506 148.176 -155.859C128.117 -160.217 112.089 -152.496 94.3481 -144.397C70.6062 -133.53 47.4191 -128.274 21.3845 -127.188C-4.26119 -126.032 -34.8179 -131.776 -59.4764 -117.023C-63.7671 -114.418 -68.5799 -112.865 -73.6632 -112.193C-82.0556 -111.043 -90.9542 -112.413 -100.288 -112.246C-104.946 -112.002 -109.606 -112.018 -114.223 -111.232C-116.781 -110.82 -119.316 -110.187 -121.676 -109.155C-123.349 -108.435 -125.358 -107.428 -126.614 -106.099C-127.588 -105.069 -127.401 -104.999 -126.63 -103.965C-125.744 -102.791 -125.059 -101.56 -124.341 -100.278C-123.357 -98.5624 -121.971 -97.0341 -120.755 -95.4561C-118.488 -92.4661 -116.162 -89.5498 -113.741 -86.6706C-103.307 -74.2258 -93.6633 -64.3924 -78.2908 -58.5983C-64.3395 -53.3728 -49.0558 -53.0841 -35.9337 -45.5701C-16.3966 -34.4246 -4.2838 -16.4177 11.0636 -0.739832C28.8112 17.3796 48.557 28.9602 72.5174 34.1658C76.474 35.0254 80.5523 35.7238 84.778 36.2087C89.0361 36.744 93.3823 37.4717 97.7525 38.4212C122.485 43.7945 147.936 56.0948 162.57 76.05C184.226 105.687 208.91 101.58 238.312 114.565C253.948 121.47 258.13 133.524 267.182 149.206C279.685 170.863 295.868 188.542 319.513 198.79C323.06 200.34 326.759 201.519 330.619 202.358C368.369 210.544 418.689 186.323 447.214 159.821L447.735 159.082C419.35 185.803 368.581 210.432 330.658 202.178C326.812 201.343 323.112 200.164 319.576 198.63C296.001 188.398 279.825 170.75 267.333 149.109C258.302 133.46 254.106 121.346 238.406 114.398C208.921 101.394 184.306 105.517 162.718 75.9667C148.044 55.9306 122.535 43.6321 97.7885 38.2558C93.4182 37.3063 89.0642 36.548 84.8001 36.0403C80.5744 35.5553 76.4962 34.857 72.5533 34.0003C48.6343 28.8037 28.9131 17.243 11.193 -0.87051C-4.14656 -16.5178 -16.2702 -34.5415 -35.8289 -45.7205C-49.0168 -53.2633 -64.3143 -53.555 -78.2243 -58.7715C-93.5644 -64.5152 -103.181 -74.3427 -113.607 -86.757C-116.014 -89.6331 -118.367 -92.5554 -120.62 -95.5424C-120.91 -95.9374 -121.183 -96.3431 -121.503 -96.7303C-121.218 -96.3797 -120.953 -96.0045 -120.665 -95.6677C-118.353 -92.7544 -115.974 -89.8843 -113.558 -87.0495C-108.727 -81.51 -104.067 -76.5129 -98.958 -72.1836C-95.7024 -69.4263 -92.2934 -66.9099 -88.5296 -64.764C-85.2046 -62.8578 -81.6021 -61.1656 -77.6352 -59.7552C-72.4114 -57.884 -67.0191 -56.6547 -61.5874 -55.4746C-60.7878 -55.3009 -59.9882 -55.1272 -59.1886 -54.9535C-50.848 -53.1414 -42.5864 -51.231 -35.0043 -47.0573C-33.1479 -46.0332 -31.3753 -44.9551 -29.6424 -43.8279C-12.9326 -32.8925 -1.43204 -17.1841 12.6972 -3.47443C25.5909 9.14394 39.4666 18.4386 55.215 24.7619C61.5868 27.33 68.2408 29.3965 75.2579 30.921C78.9664 31.7267 82.8043 32.4017 86.7669 32.9017C89.8736 33.2879 93.0144 33.7826 96.214 34.4055C97.4883 34.6535 98.7704 34.9321 100.053 35.2106C124.785 40.5839 150.203 52.3717 164.942 71.7144C178.99 90.113 194.175 95.0434 211.05 99.5037C220.525 102.01 230.533 104.386 241.106 108.95C256.745 115.711 261.197 127.578 270.397 143.047C282.179 162.772 297.04 179.297 317.75 189.961C319.492 190.845 321.296 191.713 323.156 192.521C326.985 194.234 331.003 195.54 335.194 196.451C352.978 200.314 373.359 197.278 392.813 190.331C414.412 182.55 434.733 170.218 449.144 157.049L449.898 155.972C435.483 169.428 414.765 182.121 392.713 190.064C373.295 196.976 352.945 200.004 335.257 196.161C331.094 195.257 327.086 193.967 323.257 192.255C321.414 191.436 319.621 190.584 317.871 189.67C297.231 179.079 282.42 162.593 270.645 142.899C261.47 127.45 256.967 115.485 241.221 108.686C230.596 104.097 220.588 101.72 211.099 99.2112C194.244 94.7263 179.158 89.8751 165.172 71.5189C150.345 52.114 124.862 40.2974 100.102 34.9181C98.8195 34.6396 97.5236 34.358 96.2463 34.1238C93.0605 33.5039 89.8891 33.017 86.7747 32.6002C82.8229 32.117 79.0263 31.451 75.3178 30.6453C68.3282 29.1267 61.7018 27.0663 55.33 24.4981C39.6062 18.1947 25.7689 8.92275 12.8829 -3.66505C-1.21868 -17.3687 -12.7025 -33.0879 -29.4752 -44.0659C-31.2219 -45.1961 -32.9915 -46.2879 -34.8371 -47.2953C-42.4822 -51.5115 -50.7743 -53.4141 -59.1287 -55.2292C-59.9283 -55.4029 -60.7249 -55.5904 -61.5245 -55.7641C-66.9563 -56.9442 -72.3347 -58.1705 -77.531 -60.0357C-81.4811 -61.4569 -85.059 -63.1293 -88.3702 -65.0326C-92.131 -67.1923 -95.5382 -69.6505 -98.7771 -72.4186C-103.864 -76.7144 -108.504 -81.736 -113.311 -87.2557C-114.88 -89.0692 -116.38 -90.9397 -117.899 -92.7856C-116.382 -90.9978 -114.85 -89.2071 -113.31 -87.4577C-108.428 -82.0225 -103.636 -77.098 -98.4732 -72.8868C-95.1643 -70.1756 -91.7067 -67.7497 -87.922 -65.7003C-84.5592 -63.9014 -80.9525 -62.2949 -76.9491 -60.9199C-72.8491 -59.5238 -68.6131 -58.488 -64.3532 -57.5625C-61.3616 -56.9126 -58.364 -56.2902 -55.3862 -55.6432C-47.9968 -54.0378 -40.753 -52.1609 -34.0137 -48.56C-32.1513 -47.5635 -30.359 -46.51 -28.6123 -45.3798C-11.7215 -34.6794 0.0415529 -19.4482 14.3385 -6.17845C27.409 5.9586 41.2865 14.9793 57.1649 21.302C63.8202 23.9606 70.7134 26.1223 78.0339 27.7127C81.508 28.4675 85.0504 29.1072 88.7618 29.5671C91.8595 29.9946 95.0141 30.4923 98.2167 31.1015C99.6151 31.3764 101.024 31.6681 102.444 31.9766C127.163 37.347 152.483 48.6517 167.342 67.3128C181.549 85.1828 196.787 89.865 213.746 94.1413C223.272 96.543 233.295 98.8505 243.927 103.34C259.585 109.947 264.284 121.608 273.673 136.872C285.719 156.38 300.727 172.822 321.404 183.638C323.185 184.544 324.955 185.434 326.796 186.267C330.984 188.187 335.393 189.622 339.984 190.619C357.423 194.408 377.209 191.849 395.944 185.554C417.207 178.393 437.073 166.958 450.985 154.49L452.034 152.985C438.131 165.874 417.726 177.798 395.796 185.175C377.132 191.472 357.411 194.001 340.054 190.23C335.491 189.239 331.123 187.813 326.959 185.913C325.122 185.066 323.332 184.201 321.571 183.27C300.978 172.53 286.033 156.131 273.988 136.681C264.649 121.456 259.88 109.65 244.049 102.977C233.407 98.4705 223.356 96.1569 213.826 93.769C196.888 89.4682 181.801 84.8189 167.628 67.0574C152.675 48.3034 127.288 36.9699 102.514 31.5876C101.081 31.2761 99.6714 30.9844 98.27 30.7233C95.0704 30.1003 91.9188 29.5888 88.7906 29.1691C85.1205 28.7182 81.5643 28.0755 78.1039 27.3237C70.8248 25.7423 63.9179 23.5776 57.3039 20.928C41.4806 14.6173 27.6463 5.66367 14.6034 -6.46739C0.355596 -19.6975 -11.4428 -34.9653 -28.3965 -45.7083C-30.1492 -46.8109 -31.9661 -47.8842 -33.8117 -48.8915C-40.614 -52.5349 -47.9129 -54.4239 -55.2885 -56.0263C-58.2664 -56.6732 -61.267 -57.2818 -64.2586 -57.9318C-68.5047 -58.8543 -72.7239 -59.9008 -76.8238 -61.2969C-80.7859 -62.663 -84.3956 -64.2557 -87.7308 -66.0486C-91.4742 -68.089 -94.9072 -70.4951 -98.2053 -73.1895C-103.355 -77.3977 -108.138 -82.2917 -112.977 -87.7316C-113.398 -88.1841 -113.794 -88.6888 -114.212 -89.155C-113.815 -88.7223 -113.435 -88.2788 -113.035 -87.8599C-108.101 -82.529 -103.237 -77.6752 -97.9638 -73.5701C-94.6231 -70.9387 -91.1231 -68.5758 -87.2975 -66.6474C-83.9336 -64.9204 -80.2616 -63.4152 -76.2767 -62.0875C-72.7534 -60.9611 -69.1546 -60.0493 -65.5426 -59.2646C-61.4205 -58.3691 -57.2715 -57.5976 -53.1494 -56.702C-46.215 -55.1955 -39.3968 -53.3532 -33.0459 -50.0245C-31.1745 -49.0693 -29.3654 -48.0266 -27.6097 -46.9377C-10.5211 -36.4831 1.51214 -21.6984 15.9553 -8.90225C29.1966 2.78104 43.1124 11.4925 59.1041 17.8253C66.0153 20.5684 73.2058 22.8236 80.802 24.4739C84.028 25.1748 87.3193 25.7743 90.74 26.2432C93.8485 26.6876 97.0168 27.1883 100.216 27.8112C101.78 28.1221 103.341 28.4468 104.899 28.7852C129.59 34.1496 154.758 44.9592 169.739 62.925C184.113 80.225 199.444 84.6818 216.441 88.7788C226.016 91.09 236.068 93.3316 246.727 97.6974C262.398 104.177 267.324 115.656 276.901 130.716C289.15 150.023 304.423 166.378 325.076 177.303C326.809 178.229 328.621 179.128 330.431 179.968C334.995 182.086 339.778 183.659 344.741 184.737C361.849 188.454 380.994 186.391 399.032 180.71C420.008 174.136 439.42 163.599 452.833 151.831L454.253 149.815C440.874 162.154 420.748 173.387 398.877 180.229C380.908 185.853 361.853 187.907 344.841 184.211C339.919 183.141 335.147 181.585 330.652 179.482C328.828 178.638 327.052 177.776 325.297 176.817C304.745 165.957 289.546 149.661 277.313 130.416C267.779 115.423 262.789 103.771 246.906 97.2023C236.195 92.8108 226.099 90.5739 216.552 88.2687C199.541 84.1687 184.43 79.7598 170.118 62.5743C155.024 44.4683 129.77 33.6544 104.996 28.2721C103.424 27.9307 101.877 27.609 100.3 27.2951C97.0971 26.686 93.9149 26.1823 90.7927 25.735C87.3995 25.2721 84.122 24.6755 80.896 23.9746C73.3274 22.3303 66.1813 20.0703 59.2701 17.3272C43.3443 11.0231 29.4746 2.36503 16.2885 -9.30627C1.86395 -22.0551 -10.1909 -36.8733 -27.3532 -47.3873C-29.1089 -48.4762 -30.9348 -49.5081 -32.8278 -50.4968C-39.2368 -53.8238 -46.0796 -55.6858 -53.0416 -57.1983C-57.1637 -58.0939 -61.3097 -58.8792 -65.4318 -59.7747C-69.0438 -60.5594 -72.621 -61.4377 -76.1107 -62.5857C-80.0908 -63.869 -83.7323 -65.382 -87.0824 -67.106C-90.8774 -69.0421 -94.3175 -71.3487 -97.675 -73.9694C-101.917 -77.302 -105.931 -81.2203 -109.93 -85.4094C-105.877 -81.3384 -101.811 -77.5244 -97.5066 -74.2793C-94.1096 -71.7077 -90.5747 -69.4383 -86.7312 -67.5927C-83.3295 -65.973 -79.6515 -64.4954 -75.6151 -63.272C-72.6313 -62.3206 -69.5857 -61.5867 -66.5114 -60.9188C-61.4243 -59.8136 -56.2785 -58.9122 -51.2052 -57.8099C-44.6292 -56.3813 -38.1862 -54.6061 -32.1272 -51.5284C-30.242 -50.5702 -28.3994 -49.5492 -26.6071 -48.4957C-9.38493 -38.2574 2.91383 -23.9637 17.5721 -11.6261C30.9476 -0.361165 44.8969 7.99667 61.0157 14.3427C68.1937 17.187 75.6341 19.5542 83.5336 21.2705C86.4976 21.9144 89.5455 22.5045 92.6906 22.9134C95.8098 23.3745 98.9692 23.9166 102.189 24.515C103.918 24.8618 105.644 25.2224 107.367 25.5968C132.031 30.9551 157.025 41.2362 172.091 58.542C186.663 75.2641 202.022 79.525 219.089 83.435C228.707 85.6113 238.805 87.7762 249.493 92.076C265.197 98.4041 270.367 109.691 280.105 124.54C292.618 143.63 308.058 159.877 328.665 170.951C330.437 171.899 332.221 172.792 334.035 173.677C338.986 176.009 344.22 177.767 349.61 178.938C366.347 182.574 384.784 180.906 402.101 175.89C422.721 169.889 441.681 160.236 454.651 149.179L456.204 146.947C443.353 158.65 423.549 169.001 401.928 175.29C384.689 180.279 366.343 181.924 349.745 178.317C344.382 177.152 339.2 175.42 334.319 173.104C332.484 172.243 330.717 171.339 328.973 170.397C308.454 159.385 293.118 143.19 280.626 124.206C270.906 109.404 265.65 97.9108 249.707 91.4874C238.981 87.1648 228.842 84.9909 219.224 82.8146C202.143 78.9016 186.996 74.73 172.557 58.1236C157.336 40.6685 132.207 30.3437 107.488 24.9734C105.751 24.596 104.039 24.2384 102.296 23.8886C99.0764 23.2902 95.9062 22.7314 92.7672 22.2949C89.645 21.8475 86.6018 21.3019 83.6516 20.6609C75.7797 18.9507 68.3806 16.5924 61.2302 13.7541C45.1635 7.43382 31.2772 -0.881469 17.9371 -12.1098C3.35252 -24.3881 -8.98161 -38.7184 -26.3267 -49.0555C-28.1052 -50.106 -29.9448 -51.1409 -31.8743 -52.0943C-38.0022 -55.1869 -44.4944 -57.0016 -51.098 -58.4363C-56.2126 -59.5475 -61.3309 -60.4429 -66.4042 -61.5451C-69.4785 -62.2131 -72.4965 -62.9409 -75.4696 -63.8756C-79.4646 -65.09 -83.1348 -66.5371 -86.5059 -68.1646C-90.2943 -69.9982 -93.777 -72.2418 -97.1692 -74.769C-99.8829 -76.8311 -102.499 -79.0743 -105.094 -81.4859C-102.482 -79.157 -99.8116 -76.96 -97.0661 -74.9776C-93.6068 -72.4936 -90.0708 -70.2961 -86.1787 -68.541C-82.7651 -66.9765 -79.0571 -65.6367 -74.9871 -64.4349C-72.4786 -63.6878 -69.9018 -63.0557 -67.31 -62.4927C-61.4371 -61.2167 -55.4263 -60.2429 -49.5121 -58.958C-43.2118 -57.5892 -37.0397 -55.8296 -31.2116 -53.0186C-29.3234 -52.0742 -27.455 -51.1053 -25.6597 -50.0656C-8.21997 -40.0977 4.32628 -26.2122 19.1583 -14.3421C32.677 -3.53691 46.6646 4.51164 62.8691 10.8618C70.3474 13.7859 78.0378 16.2651 86.2406 18.0473C88.9565 18.6373 91.7395 19.1842 94.6411 19.5836C97.7436 20.0555 100.931 20.6035 104.178 21.2079C106.092 21.5661 108.008 21.9824 109.952 22.4048C134.505 27.7391 159.352 37.5694 174.477 54.1374C189.18 70.3249 204.593 74.3376 221.743 78.0636C223.19 78.3781 224.624 78.6896 226.099 79.0101C234.44 80.8221 243.134 82.8697 252.295 86.4193C267.996 92.6311 273.413 103.712 283.343 118.343C296.109 137.199 311.732 153.399 332.339 164.603C334.095 165.562 335.869 166.496 337.698 167.384C343.051 169.991 348.738 171.92 354.639 173.202C370.907 176.736 388.628 175.504 405.196 171.077C425.503 165.657 444.041 156.879 456.532 146.499L458.168 144.154C445.848 155.207 426.413 164.657 405.023 170.346C388.536 174.734 370.917 175.959 354.801 172.457C348.969 171.19 343.333 169.287 338.002 166.714C336.204 165.818 334.41 164.909 332.679 163.97C312.235 152.815 296.673 136.729 283.95 117.94C274.083 103.352 268.531 92.0256 252.558 85.7401C243.358 82.1678 234.596 80.1052 226.269 78.2962C224.808 77.9787 223.377 77.6534 221.943 77.3419C204.796 73.6021 189.625 69.6709 175.031 53.6513C159.735 36.8729 134.758 27.0432 110.135 21.6939C108.192 21.2715 106.259 20.866 104.322 20.4742C101.086 19.8867 97.9191 19.3141 94.7723 18.8469C91.915 18.4427 89.1398 17.9264 86.4377 17.3393C78.3038 15.5722 70.6302 13.0821 63.1963 10.1533C47.0409 3.84266 33.1438 -4.15733 19.6635 -14.9397C4.89142 -26.7535 -7.68719 -40.6893 -25.2558 -50.7285C-27.0678 -51.7574 -28.9165 -52.751 -30.849 -53.6906C-36.7677 -56.5501 -42.9979 -58.3079 -49.312 -59.6796C-55.24 -60.9676 -61.2508 -61.9414 -67.1099 -63.2143C-69.7017 -63.7774 -72.2372 -64.4005 -74.7289 -65.1584C-78.7605 -66.3374 -82.4379 -67.685 -85.827 -69.2298C-89.6423 -70.9393 -93.1537 -73.117 -96.5747 -75.5783C-98.1087 -76.6911 -99.5624 -77.9742 -101.045 -79.1914C-99.5534 -78.0156 -98.0661 -76.7541 -96.537 -75.6856C-93.0351 -73.2645 -89.4229 -71.1515 -85.5513 -69.5019C-82.0831 -68.0555 -78.3524 -66.7541 -74.2704 -65.6074C-72.2984 -65.049 -70.2562 -64.5476 -68.2159 -64.1043C-61.4468 -62.6336 -54.4657 -61.6078 -47.6415 -60.1252C-41.6446 -58.8223 -35.7806 -57.173 -30.2288 -54.552C-28.2962 -53.6124 -26.4386 -52.6602 -24.6235 -51.6451C-6.98607 -41.9229 5.79987 -28.4762 20.8362 -17.0814C34.4951 -6.72226 48.5073 1.014 64.8616 7.339C72.5899 10.3751 80.541 12.9832 89.0471 14.8312C91.501 15.3643 94.0359 15.8573 96.636 16.249C99.7631 16.7407 102.947 17.3025 106.197 17.8931C108.343 18.3159 110.51 18.7724 112.675 19.2426C137.134 24.5423 161.719 33.8535 176.874 49.7497C190.466 64.0066 204.553 68.4097 220.021 71.7703C221.468 72.0848 222.957 72.4082 224.455 72.6904C227.26 73.2708 230.092 73.8573 232.973 74.4833C240.073 76.0258 247.416 77.9099 255.089 80.8039C270.842 86.8395 276.47 97.7494 286.586 112.19C299.607 130.798 315.443 146.885 335.981 158.277C337.733 159.25 339.505 160.198 341.333 161.086C347.171 163.985 353.381 166.1 359.792 167.493C375.549 170.916 392.495 170.064 408.309 166.253C428.295 161.442 446.368 153.545 458.391 143.856L460.089 141.425C448.306 151.8 429.241 160.348 408.112 165.43C392.418 169.225 375.57 170.025 359.991 166.641C353.649 165.263 347.502 163.191 341.744 160.323C339.919 159.421 338.158 158.49 336.419 157.521C316.021 146.217 300.278 130.236 287.313 111.698C277.279 97.3476 271.468 86.1525 255.412 79.9791C247.688 77.0593 240.3 75.18 233.173 73.6315C230.291 73.0055 227.459 72.4191 224.655 71.8386C223.146 71.5397 221.657 71.2163 220.223 70.9048C204.824 67.5592 190.966 63.2346 177.51 49.1514C162.139 33.0497 137.414 23.7223 112.88 18.3633C110.688 17.8871 108.529 17.4612 106.369 17.0353C103.136 16.434 99.938 15.8691 96.7942 15.3882C94.2078 14.9996 91.7143 14.5156 89.2604 13.9824C80.8232 12.1494 72.8966 9.56109 65.196 6.53098C48.9105 0.220956 34.9889 -7.46674 21.3822 -17.8002C6.41956 -29.1356 -6.41556 -42.6219 -24.1819 -52.4153C-25.997 -53.4304 -27.8654 -54.3994 -29.8147 -55.3282C-35.4678 -58.0145 -41.3869 -59.6759 -47.4253 -60.9877C-54.3046 -62.4823 -61.2582 -63.5022 -67.9996 -64.9668C-70.04 -65.4101 -72.027 -65.8996 -74.002 -66.4441C-78.0486 -67.5543 -81.7655 -68.8527 -85.1588 -70.3117C-88.8051 -71.8691 -92.187 -73.8454 -95.4815 -76.0915C-92.0953 -73.8688 -88.6187 -71.9296 -84.9101 -70.4598C-81.4437 -69.0715 -77.6782 -67.8636 -73.5645 -66.7966C-72.063 -66.3982 -70.5555 -66.0274 -69.0115 -65.692C-61.429 -64.0446 -53.5878 -62.9907 -45.9502 -61.3314C-40.2014 -60.0824 -34.5826 -58.5007 -29.2412 -56.0409C-27.2966 -55.1565 -25.4283 -54.1875 -23.6072 -53.2C-5.81151 -43.6745 7.27646 -30.7541 22.5004 -19.8238C36.2994 -9.91061 50.3667 -2.49443 66.8008 3.86233C74.8047 6.95832 82.9969 9.71983 91.7925 11.6307C94.012 12.113 96.2957 12.5658 98.6448 12.9173C101.758 13.406 104.964 14.0014 108.211 14.6058C110.663 15.0808 113.153 15.5786 115.607 16.1117C139.857 21.3802 164.125 30.2186 179.302 45.3541C192.152 58.2374 205.405 62.6903 219.771 65.8112C222.197 66.3384 224.657 66.8439 227.195 67.3231C230.773 67.9994 234.413 68.7182 238.136 69.5269C244.532 70.9166 251.12 72.6222 257.949 75.1454C273.713 81.0677 279.615 91.7773 289.878 106.004C303.147 124.406 319.206 140.398 339.68 151.949C341.429 152.935 343.204 153.869 345.023 154.799C351.367 158.025 358.153 160.351 365.115 161.864C380.307 165.164 396.439 164.67 411.435 161.432C431.05 157.204 448.662 150.232 460.241 141.256L485.626 105.019L485.369 104.804C485.496 104.818 485.607 104.842 485.734 104.855L487.137 102.85C487.137 102.85 486.817 102.593 486.812 102.418C486.621 102.434 486.223 102.406 485.685 102.289C481.157 101.334 469.324 95.5292 454.782 91.6915C437.897 87.2144 416.894 77.6995 397.181 64.7691C395.44 63.6113 393.713 62.4565 392.003 61.2909C372.174 47.9021 353.764 33.1614 336.98 18.0519C324.5 6.85161 314.584 -1.79922 297.771 -5.94301C296.753 -6.17844 295.778 -6.40489 294.799 -6.61755C284.473 -8.86092 274.535 -9.63405 265.009 -10.0434C252.139 -10.5441 240.243 -10.8764 228.649 -13.3953C223.741 -14.4616 218.879 -15.9367 214.012 -17.9901C207.325 -20.771 199.897 -22.8613 191.929 -24.5925C175.054 -28.2586 155.813 -30.3312 136.596 -33.9143C134.803 -34.2317 133.073 -34.5785 131.364 -34.9499C129.806 -35.2884 128.282 -35.6484 126.785 -36.0025C115.409 -38.6617 105.363 -43.2553 94.5931 -47.1109C76.564 -53.5688 61.7931 -56.417 46.2746 -60.0772C40.2326 -61.5054 34.3267 -63.2938 28.3943 -65.1601C34.0731 -63.5221 39.6979 -61.968 45.4743 -60.7131C46.0809 -60.5813 46.7151 -60.4435 47.4212 -60.3045C53.6369 -59.0119 59.7328 -57.8319 65.9504 -56.481C75.2836 -54.4533 84.8788 -52.0366 95.682 -48.2025C106.361 -44.3954 116.488 -39.64 128.169 -36.8568C129.828 -36.453 131.531 -36.054 133.269 -35.6766C134.854 -35.3322 136.481 -34.9788 138.164 -34.6853C159.171 -30.771 180.076 -28.9144 197.747 -25.0608C204.103 -23.68 210.069 -22.0373 215.47 -19.9833C219.748 -18.3463 224.025 -17.0995 228.313 -16.168C241.037 -13.4035 253.886 -13.2685 267.623 -12.8393C277.403 -12.5336 287.521 -11.7935 297.985 -9.52015C298.619 -9.38237 299.291 -9.22183 300.008 -9.06608C316.207 -5.21471 325.873 2.79003 338.55 13.8165C355.678 28.7407 374.299 43.5707 394.225 57.1106C395.952 58.2654 397.676 59.4339 399.428 60.6085C419.289 73.9177 440.25 84.0877 457.171 89.3374C472.034 93.9526 483.233 100.948 487.535 102.344L488.819 100.487C488.819 100.487 488.773 99.9712 488.707 99.9424C486.149 99.4878 473.641 91.6741 457.979 86.8133C441.359 81.6433 420.575 71.5841 400.917 58.4056C399.179 57.234 397.425 56.0732 395.714 54.9077C375.9 41.4498 357.394 26.6882 340.295 11.8281C327.663 0.796852 317.459 -7.65676 300.599 -11.6519C299.91 -11.8017 299.226 -11.979 298.565 -12.1227C287.88 -14.444 277.574 -15.1817 267.708 -15.4915C253.941 -15.913 241.267 -16.0534 228.887 -18.7431C224.709 -19.6506 220.571 -20.8674 216.438 -22.4439C210.85 -24.5674 204.793 -26.2586 198.327 -27.6634C180.402 -31.5433 159.527 -33.4077 138.644 -37.2951C136.992 -37.5963 135.403 -37.927 133.832 -38.2684C132.122 -38.6399 130.446 -39.0328 128.815 -39.4306C117.434 -42.1342 107.412 -46.838 96.573 -50.7087C85.6457 -54.5697 75.9462 -57.0379 66.5302 -59.0836C60.2851 -60.4404 54.1862 -61.6067 47.9429 -62.9053C47.292 -63.0323 46.6854 -63.1641 46.0512 -63.3019C42.0808 -64.1645 38.1984 -65.1668 34.3005 -66.2302C36.7257 -65.6311 39.1419 -64.9906 41.582 -64.4605C44.0222 -63.9304 46.5373 -63.4128 49.0901 -63.0026C57.3204 -61.5465 65.2516 -60.2421 73.5509 -58.439C81.1195 -56.7946 88.9549 -54.717 97.6044 -51.6684C108.303 -47.8859 118.409 -43.034 130.127 -40.156C131.897 -39.7283 133.718 -39.2748 135.593 -38.8674C137.054 -38.55 138.56 -38.2373 140.15 -37.9785C162.864 -33.751 185.339 -32.2032 203.974 -28.14C208.91 -27.0677 213.58 -25.8366 217.941 -24.3117C221.402 -23.0978 224.889 -22.138 228.363 -21.3833C241.97 -18.427 255.66 -18.5133 270.329 -18.1849C280.434 -17.9818 290.904 -17.2663 301.713 -14.9181L302.829 -14.6755C319.055 -10.9482 329.004 -3.11311 341.806 7.66636C359.211 22.3766 377.981 37.1232 397.894 50.7902C399.598 51.9834 401.319 53.1657 403.084 54.3433C422.91 67.8179 443.588 78.5616 460.184 84.506C475.024 89.8236 485.639 97.8468 489.292 99.8387L490.531 98.0577C490.531 98.0577 490.84 97.634 490.787 97.6082C489.751 97.1953 477.029 87.5739 461.126 81.8955C444.825 76.0584 424.286 65.4028 404.625 52.0361C402.877 50.8477 401.142 49.6624 399.445 48.4998C379.633 34.8981 360.955 20.2 343.595 5.54313C330.796 -5.25014 320.338 -13.5281 303.436 -17.4021C303.047 -17.4722 302.692 -17.5639 302.32 -17.6447C291.249 -20.0499 280.588 -20.7492 270.4 -20.9702C255.687 -21.2938 242.191 -21.2376 228.984 -24.1069C225.592 -24.8438 222.243 -25.7736 218.862 -26.9557C214.374 -28.4938 209.586 -29.7794 204.581 -30.8667C185.653 -34.979 163.193 -36.5238 140.671 -40.7094C139.142 -40.9837 137.651 -41.2934 136.203 -41.6079C134.383 -42.0033 132.572 -42.44 130.806 -42.8815C119.443 -45.6678 109.425 -50.4574 98.5283 -54.3262C89.7715 -57.4125 81.7953 -59.5063 74.1439 -61.1686C65.7619 -62.9897 57.7834 -64.2756 49.5728 -65.7562C47.0752 -66.1545 44.6045 -66.6768 42.1781 -67.204C41.5026 -67.3507 40.836 -67.5389 40.1467 -67.6886C43.6574 -66.9692 47.1573 -66.2666 50.7512 -65.7312C60.1887 -64.316 69.1952 -63.11 78.7214 -61.0404C85.3113 -59.6087 92.1295 -57.7665 99.5358 -55.1757C110.262 -51.3871 120.391 -46.4435 132.114 -43.5212C133.988 -43.0419 135.906 -42.5675 137.878 -42.1392C139.256 -41.8396 140.665 -41.5479 142.152 -41.2826C166.517 -36.74 190.528 -35.6234 210.063 -31.3792C213.634 -30.6035 217.092 -29.7079 220.362 -28.6797C223.027 -27.8553 225.716 -27.1412 228.363 -26.5661C242.866 -23.4152 257.421 -23.7611 273.028 -23.5611C283.513 -23.4486 294.366 -22.7655 305.601 -20.3244C321.885 -16.729 332.074 -9.07256 345.048 1.51329C362.71 15.976 381.683 30.5793 401.472 44.4213C403.201 45.6343 404.933 46.8334 406.664 48.0325C426.463 61.7613 446.9 73.0157 463.155 79.6656C471.255 82.9845 478.293 87.473 483.257 91.1358C485.745 92.9756 487.716 94.6021 489.05 95.7725C489.726 96.3814 490.23 96.8518 490.562 97.1838C490.699 97.2857 490.791 97.3924 490.877 97.5266L492.552 95.1331C489.8 92.3841 479.037 83.116 464.251 77.0162C448.243 70.4921 427.913 59.2754 408.289 45.6714C406.546 44.4554 404.828 43.2593 403.11 42.0632C383.409 28.2834 364.474 13.7029 346.845 -0.709452C333.904 -11.3169 323.157 -19.3976 306.202 -23.1536C294.718 -25.6485 283.619 -26.3274 273.048 -26.4441C257.367 -26.6316 243.011 -26.3432 228.949 -29.3983C226.371 -29.9584 223.79 -30.6348 221.194 -31.4442C217.816 -32.5101 214.303 -33.4177 210.636 -34.2144C190.753 -38.5196 166.772 -39.644 142.626 -44.1249C141.197 -44.3921 139.829 -44.6748 138.45 -44.9743C136.52 -45.3936 134.627 -45.8483 132.767 -46.3246C121.413 -49.1523 111.416 -54.0383 100.461 -57.9054C92.9197 -60.5399 85.9774 -62.4091 79.3049 -63.8587C69.627 -65.9613 60.5546 -67.1961 51.1555 -68.5885C50.863 -68.6376 50.5764 -68.7143 50.2947 -68.7466C51.0098 -68.649 51.7159 -68.51 52.437 -68.44C62.7213 -67.2018 72.5244 -66.1403 83.0265 -63.8442C88.8442 -62.5803 94.9102 -60.9303 101.434 -58.6613C112.21 -54.9052 122.285 -49.8434 134.037 -46.857C136.008 -46.3568 138.033 -45.8446 140.115 -45.3923C141.411 -45.1107 142.734 -44.8232 144.128 -44.5926C170.134 -39.7655 195.645 -39.1748 215.977 -34.7431C218.293 -34.24 220.58 -33.6708 222.8 -33.0585C224.593 -32.5391 226.429 -32.0826 228.248 -31.6872C243.692 -28.3464 259.129 -28.9628 275.723 -28.9235C286.263 -28.9291 297.175 -28.3197 308.398 -25.9536C308.456 -25.9554 308.591 -25.9116 308.77 -25.8727C324.886 -22.3714 335.261 -14.9056 348.288 -4.62599C366.208 9.5753 385.341 24.1121 405.099 38.092C406.8 39.2989 408.543 40.5148 410.258 41.7248C430.029 55.6495 450.227 67.4728 466.158 74.8174C473.875 78.3708 480.557 83.2297 485.227 87.3193C487.57 89.3587 489.418 91.2183 490.632 92.6081C491.246 93.3046 491.696 93.8931 491.93 94.2761C492.038 94.4439 492.097 94.5721 492.164 94.659C492.164 94.659 492.962 94.3125 493.128 94.2765L492.242 93.8385L493.131 94.2627L494.344 92.534C494.179 92.296 494.053 92.0809 493.869 91.7956C493.869 91.7956 494.724 91.9813 494.727 91.9675L493.949 91.1632L494.73 91.9537L496.121 90.0037C496.051 89.8587 496.037 89.7256 495.975 89.6111L496.243 89.8425L543.147 22.8674C545.39 17.3924 547.245 11.4433 548.611 5.15679C553.06 -15.3876 553.245 -38.4321 549.791 -53.6338C543.028 -82.9086 525.14 -110.746 503.411 -130.943C480.333 -152.17 450.886 -166.941 419.839 -173.686C395.093 -179.062 369.275 -179.373 344.909 -173.738ZM411.151 160.547C396.28 163.741 380.264 164.231 365.237 160.966C358.33 159.466 351.652 157.178 345.402 153.986C343.579 153.07 341.797 152.106 340.083 151.156C319.735 139.69 303.793 123.825 290.568 105.49C280.372 91.3498 274.303 80.3441 258.204 74.3056C251.323 71.7567 244.683 70.0253 238.272 68.6326C234.55 67.8239 230.895 67.1021 227.317 66.4259C224.783 65.9329 222.33 65.4579 219.904 64.9307C205.58 61.8188 192.614 57.4425 179.913 44.736C164.499 29.3614 140.087 20.5206 115.741 15.2312C113.287 14.698 110.785 14.1835 108.322 13.6917C105.073 13.1011 101.867 12.5058 98.7291 11.9973C96.3939 11.6487 94.1516 11.2049 91.932 10.7227C83.2053 8.82673 75.0654 6.09099 67.089 3.00098C50.7208 -3.32702 36.7333 -10.7114 23.008 -20.5653C7.85777 -31.4362 -5.26256 -44.407 -23.1949 -54.0344C-25.0466 -55.0141 -26.9425 -55.9891 -28.881 -56.9011C-34.3022 -59.3927 -40.0175 -60.9953 -45.7939 -62.2503C-53.4866 -63.9216 -61.3279 -64.9755 -68.8551 -66.6108C-70.3578 -66.9373 -71.8821 -67.2973 -73.3866 -67.6819C-77.4422 -68.7507 -81.1633 -69.9634 -84.5943 -71.3152C-86.739 -72.142 -88.7806 -73.1775 -90.7767 -74.2897C-88.6919 -73.1871 -86.5586 -72.175 -84.342 -71.347C-80.8486 -70.0827 -77.0712 -68.93 -72.9317 -67.9152C-71.9451 -67.6719 -70.9141 -67.4335 -69.8939 -67.2119C-61.5395 -65.3968 -52.7986 -64.364 -44.3476 -62.5279C-38.8332 -61.3299 -33.4517 -59.7854 -28.3345 -57.4898C-26.3732 -56.6161 -24.4958 -55.6885 -22.652 -54.7393C-4.67232 -45.4626 8.64936 -32.9534 24.0776 -22.4985C38.0307 -13.0282 52.1254 -5.93811 68.6758 0.415044C76.9465 3.6123 85.3916 6.47207 94.4767 8.44588C96.4619 8.87718 98.4945 9.2899 100.576 9.61209C103.697 10.1314 106.905 10.713 110.163 11.3341C112.96 11.884 115.798 12.4428 118.61 13.0539C142.64 18.2744 166.479 26.6298 181.632 41.0095C193.926 52.7324 206.507 57.1548 220.045 60.0961C223.243 60.791 226.501 61.4121 229.823 62.0039C234.058 62.7796 238.367 63.5426 242.793 64.5041C248.569 65.759 254.52 67.3407 260.651 69.5534C276.461 75.327 282.591 85.855 293.029 99.8745C306.537 118.04 322.732 134.003 343.232 145.632C344.992 146.635 346.747 147.594 348.58 148.526C355.514 152.097 362.885 154.652 370.495 156.305C385.025 159.462 400.305 159.302 414.437 156.655C433.076 153.126 449.794 147.345 460.926 139.499C449.604 148.819 431.435 156.162 411.154 160.533L411.151 160.547ZM414.23 155.614C400.212 158.271 385.078 158.419 370.713 155.298C363.186 153.663 355.901 151.113 349.071 147.594C347.263 146.681 345.483 145.703 343.762 144.722C323.429 133.187 307.34 117.334 293.883 99.266C283.526 85.3364 277.167 74.4698 261.022 68.58C254.811 66.3355 248.829 64.7616 243.011 63.4977C238.558 62.5302 234.224 61.7474 230.003 60.9747C226.678 60.3968 223.451 59.7678 220.267 59.0759C206.787 56.1329 194.489 51.8009 182.372 40.2607C166.941 25.6329 142.927 17.283 118.815 12.0445C115.975 11.4275 113.157 10.844 110.354 10.3217C107.072 9.6808 103.874 9.11601 100.728 8.57696C98.6579 8.27154 96.6667 7.8678 94.6953 7.4395C85.6929 5.48366 77.306 2.62207 69.0599 -0.555397C52.5755 -6.87978 38.5436 -13.9273 24.6781 -23.3353C9.35713 -33.7524 -3.99991 -46.2982 -22.1498 -55.6553C-24.0044 -56.6212 -25.94 -57.547 -27.912 -58.4374C-33.1366 -60.7708 -38.5732 -62.3273 -44.1428 -63.5373C-52.6764 -65.3913 -61.4006 -66.435 -69.6861 -68.235C-70.7063 -68.4567 -71.7127 -68.6753 -72.6993 -68.9186C-76.7944 -69.9382 -80.5335 -71.0681 -83.9825 -72.3372C-84.266 -72.4277 -84.507 -72.5811 -84.7875 -72.6854C-84.438 -72.5661 -84.1173 -72.381 -83.7403 -72.2557C-80.229 -71.0742 -76.4198 -70.0012 -72.2683 -69.0415C-71.8272 -68.9456 -71.3614 -68.83 -70.8651 -68.7222C-61.7111 -66.7334 -52.0705 -65.7217 -42.7402 -63.6802C-37.4877 -62.539 -32.3346 -61.073 -27.3972 -58.9464C-25.4162 -58.0973 -23.5052 -57.1913 -21.6308 -56.2499C-3.45338 -47.2189 10.0972 -35.1653 25.7238 -25.1582C39.8062 -16.1506 53.9423 -9.38361 70.5952 -3.03706C79.1326 0.261461 87.7773 3.26566 97.1381 5.29938C98.889 5.67976 100.687 6.04158 102.531 6.32664C105.663 6.86269 108.865 7.47184 112.143 8.06842C115.384 8.70035 118.663 9.35506 121.917 10.0619C145.615 15.2106 168.934 23.0344 184.017 36.6768C195.775 47.3449 207.757 51.6661 220.551 54.4457C224.425 55.2873 228.411 56.009 232.496 56.6798C237.269 57.5004 242.17 58.3341 247.202 59.4273C252.482 60.5745 257.887 62.0087 263.456 63.9548C279.279 69.6014 285.666 79.9399 296.269 93.7352C310.067 111.69 326.427 127.559 346.881 139.336C348.624 140.35 350.39 141.326 352.214 142.3C359.752 146.276 367.816 149.096 376.06 150.888C389.888 153.892 404.236 154.035 417.499 151.863C435.034 149.032 450.786 144.442 461.478 137.756C450.585 145.9 433.455 151.981 414.23 155.614ZM417.302 150.709C404.178 152.839 389.977 152.684 376.315 149.716C368.153 147.943 360.197 145.16 352.777 141.238C350.963 140.281 349.192 139.333 347.462 138.322C327.187 126.655 310.919 110.893 297.202 93.0284C286.67 79.3062 280.073 68.6045 263.856 62.8435C258.219 60.8824 252.775 59.4254 247.453 58.2693C242.132 57.1132 237.482 56.3195 232.692 55.5098C228.611 54.8252 224.679 54.1155 220.819 53.2768C208.108 50.5153 196.393 46.2953 184.828 35.7992C169.462 21.9362 145.949 14.0705 122.168 8.90389C118.887 8.19104 115.611 7.52254 112.353 6.90139C109.079 6.29104 105.862 5.67889 102.714 5.15364C100.884 4.87155 99.1268 4.51872 97.3759 4.13834C88.1116 2.12559 79.5251 -0.880419 71.0092 -4.14538C54.4253 -10.4769 40.3551 -17.2152 26.3494 -26.1772C10.8211 -36.1052 -2.78941 -48.2152 -21.1371 -57.3265C-23.0007 -58.2511 -24.95 -59.1799 -26.9418 -60.0457C-31.9727 -62.2071 -37.175 -63.7127 -42.4964 -64.8688C-51.9016 -66.8977 -61.559 -67.8986 -70.6303 -69.8694C-71.1128 -69.9743 -71.548 -70.0977 -72.0137 -70.2133C-73.2131 -70.4739 -74.2477 -70.8286 -75.383 -71.1185C-74.1512 -70.8076 -72.9332 -70.4997 -71.6235 -70.2152C-61.7526 -68.0706 -51.2339 -67.1135 -41.1424 -64.9211C-36.1243 -63.8308 -31.1888 -62.4265 -26.451 -60.4444C-24.4807 -59.6121 -22.553 -58.7168 -20.642 -57.8108C-2.2974 -49.0178 11.5264 -37.4245 27.3436 -27.8957C41.5692 -19.3479 55.7544 -12.8734 72.5038 -6.50591C81.2726 -3.1427 90.175 0.00411749 99.8116 2.09773C101.328 2.4272 102.875 2.74888 104.495 2.99982C107.621 3.56343 110.84 4.16181 114.126 4.78896C117.913 5.49634 121.744 6.27085 125.563 7.1005C148.779 12.1444 171.478 19.5013 186.408 32.3166C197.667 42.0246 209.09 46.1954 221.181 48.8222C225.744 49.8136 230.38 50.6041 235.188 51.3312C240.445 52.1846 245.84 53.0681 251.396 54.2751C256.221 55.3234 261.175 56.645 266.243 58.367C282.103 63.8481 288.728 74.0218 299.508 87.5959C313.546 105.314 330.092 121.122 350.505 133.021C352.262 134.038 354.025 135.027 355.818 136.009C364.038 140.436 372.858 143.565 381.819 145.512C394.861 148.346 408.231 148.738 420.575 147.075C437.634 144.775 452.865 141.053 463.149 135.116C452.769 142.491 436.138 147.67 417.319 150.698L417.302 150.709ZM420.394 145.779C408.214 147.421 394.988 147.03 382.098 144.23C373.233 142.304 364.545 139.233 356.44 134.873C354.647 133.892 352.881 132.916 351.155 131.891C330.909 120.087 314.469 104.388 300.523 86.777C289.811 73.2898 282.934 62.7439 266.66 57.1148C261.511 55.3611 256.524 54.0611 251.658 53.0038C246.061 51.7878 240.638 50.8984 235.378 50.0587C230.586 49.3208 225.95 48.5303 221.442 47.5509C209.462 44.9481 198.312 40.8509 187.24 31.3425C172.004 18.2731 149.117 10.9186 125.835 5.84597C122.003 5.01332 118.186 4.24179 114.374 3.51463C111.085 2.90128 107.869 2.2891 104.699 1.73029C103.112 1.45776 101.59 1.15588 100.087 0.829408C90.5471 -1.24324 81.7382 -4.35531 72.9526 -7.70774C56.2584 -14.0633 42.1607 -20.4755 28.0255 -28.9747C12.3127 -38.452 -1.5603 -50.0848 -20.0722 -58.9719C-21.9663 -59.8887 -23.9079 -60.787 -25.9333 -61.6312C-30.7616 -63.6619 -35.7552 -65.0644 -40.8423 -66.1696C-49.7206 -68.0985 -58.8104 -69.1205 -67.4777 -70.7581C-58.3315 -69.132 -48.7766 -68.1244 -39.5398 -66.1177C-34.7422 -65.0754 -30.0213 -63.7465 -25.5108 -61.9148C-23.5069 -61.1041 -21.5318 -60.2274 -19.6455 -59.3412C-1.09227 -50.7772 12.9575 -39.6256 28.9789 -30.5722C43.328 -22.4596 57.5713 -16.3189 74.4094 -9.96101C83.4647 -6.5211 92.547 -3.20527 102.473 -1.04876C103.783 -0.76422 105.095 -0.493457 106.478 -0.27966C109.587 0.294751 112.817 0.909914 116.119 1.52625C120.641 2.3786 125.191 3.29507 129.699 4.27448C152.281 9.18055 174.133 16.0503 188.796 27.9702C199.561 36.7623 210.455 40.775 221.912 43.264C227.068 44.3842 232.362 45.2023 237.871 46.0239C243.591 46.8767 249.476 47.7654 255.5 49.0743C259.912 50.0328 264.419 51.2142 269.037 52.7516C284.909 58.1057 291.806 68.0929 302.72 81.4506C317.011 98.9346 333.73 114.679 354.137 126.736C355.891 127.767 357.64 128.753 359.445 129.751C368.392 134.684 378.023 138.133 387.77 140.251C399.915 142.889 412.244 143.489 423.634 142.297C440.268 140.554 455.015 137.666 464.9 132.436C455.011 139.08 438.849 143.364 420.391 145.793L420.394 145.779ZM423.5 140.853C412.254 142.047 400.083 141.453 388.089 138.847C378.466 136.757 368.97 133.351 360.149 128.504C358.341 127.519 356.581 126.516 354.869 125.494C334.656 113.538 318.035 97.9442 303.839 80.5532C292.982 67.2656 285.82 56.9032 269.494 51.3784C264.804 49.8398 260.269 48.6524 255.803 47.6819C249.709 46.3581 243.8 45.4496 238.077 44.6105C232.565 43.8027 227.318 42.966 222.203 41.8548C210.857 39.3898 200.247 35.4676 189.675 26.8474C174.696 14.6567 152.639 7.80014 129.988 2.87909C125.453 1.89368 120.919 0.966405 116.381 0.124854C113.085 -0.519057 109.851 -1.12042 106.701 -1.70382C105.346 -1.91164 104.064 -2.19019 102.768 -2.47174C92.952 -4.60429 83.9602 -7.87158 74.9295 -11.2917C58.0914 -17.6496 43.9554 -23.7525 29.6938 -31.8028C13.7875 -40.7879 -0.322222 -51.9958 -19.0594 -60.6431C-20.9626 -61.5186 -22.9377 -62.3952 -24.9691 -63.2119C-29.5978 -65.0982 -34.3876 -66.442 -39.2403 -67.4963C-43.0591 -68.326 -46.8922 -68.9566 -50.7481 -69.5489C-46.4529 -68.9189 -42.1558 -68.2308 -37.9372 -67.3142C-33.374 -66.3228 -28.8707 -65.0557 -24.5537 -63.396C-22.5193 -62.5931 -20.5382 -61.744 -18.6399 -60.9129C0.0882912 -52.5563 14.4083 -41.8513 30.6203 -33.2762C45.1234 -25.6066 59.3834 -19.8088 76.3378 -13.4545C85.6077 -9.93907 94.9201 -6.48659 105.108 -4.27317C106.183 -4.03954 107.259 -3.80592 108.404 -3.62925C111.549 -3.01828 114.762 -2.39234 118.092 -1.77001C123.471 -0.745732 128.879 0.342648 134.228 1.50477C156.013 6.22333 176.888 12.6065 191.184 23.6237C201.468 31.575 211.815 35.3822 222.637 37.7334C228.427 38.9914 234.365 39.8339 240.536 40.6693C246.676 41.5125 252.99 42.4221 259.483 43.8328C263.508 44.7074 267.622 45.7744 271.817 47.1332C287.719 52.3494 294.857 62.158 305.946 75.3083C320.497 92.5891 337.401 108.215 357.754 120.39C359.499 121.462 361.269 122.482 363.06 123.477C372.842 128.952 383.378 132.756 393.965 135.057C405.119 137.48 416.302 138.235 426.675 137.471C442.932 136.268 457.239 134.208 466.711 129.682C457.338 135.615 441.594 139.038 423.47 140.86L423.5 140.853ZM426.589 135.937C416.388 136.709 405.321 135.95 394.32 133.56C383.883 131.293 373.469 127.529 363.843 122.131C362.042 121.119 360.299 120.105 358.558 119.078C338.386 107 321.62 91.4759 307.144 74.3126C296.136 61.2522 288.695 51.0457 272.323 45.6695C268.073 44.2986 263.907 43.2059 259.84 42.3223C253.264 40.8936 246.937 39.981 240.783 39.1348C234.595 38.3103 228.701 37.4629 222.994 36.2229C212.31 33.9017 202.221 30.1652 192.145 22.3889C177.499 11.1223 156.453 4.73082 134.588 -0.0195038C129.225 -1.18462 123.783 -2.25144 118.415 -3.25891C115.105 -3.90581 111.878 -4.53477 108.711 -5.10738C107.585 -5.30863 106.537 -5.53626 105.462 -5.76988C95.3677 -7.94856 86.1901 -11.3573 76.8896 -14.8649C59.9353 -21.2192 45.7579 -26.999 31.3592 -34.6171C15.276 -43.1209 0.903874 -53.8517 -18.0113 -62.2778C-19.945 -63.1454 -21.9291 -63.9807 -23.9911 -64.7896C-28.3464 -66.4721 -32.8359 -67.7363 -37.3686 -68.7354C-37.0377 -68.6636 -36.6871 -68.6163 -36.3562 -68.5444C-31.9998 -67.5979 -27.7219 -66.423 -23.5919 -64.8328C-21.5485 -64.0713 -19.5752 -63.2528 -17.605 -62.4205C1.3054 -54.3708 15.8531 -44.0494 32.294 -35.9299C46.9097 -28.7122 61.2249 -23.2345 78.2649 -16.876C87.78 -13.2929 97.2477 -9.6912 107.684 -7.42386C108.539 -7.23816 109.448 -7.04049 110.409 -6.87517C113.539 -6.26719 116.78 -5.63526 120.11 -5.01292C126.529 -3.79161 132.983 -2.53373 139.352 -1.14996C160.117 3.34697 179.797 9.25378 193.61 19.3001C203.393 26.4351 213.223 30.0289 223.425 32.2453C229.836 33.6381 236.401 34.5159 243.25 35.3542C249.797 36.1847 256.556 37.1045 263.49 38.6111C267.157 39.4078 270.858 40.3849 274.646 41.5544C290.575 46.6466 297.959 56.2489 309.21 69.1888C324.017 86.2219 341.144 101.752 361.413 114.111C363.175 115.172 364.94 116.219 366.711 117.239C377.348 123.362 388.876 127.584 400.318 130.07C410.424 132.266 420.446 133.115 429.769 132.73C445.656 132.038 459.526 130.792 468.613 126.977C459.758 132.185 444.418 134.743 426.605 135.998L426.589 135.937ZM429.689 131.038C420.53 131.401 410.645 130.581 400.664 128.413C389.373 125.96 378.005 121.801 367.537 115.759C365.753 114.736 363.993 113.733 362.273 112.68C342.173 100.402 325.172 85.029 310.459 68.0887C299.266 55.219 291.567 45.2019 275.151 39.9606C271.307 38.7791 267.552 37.79 263.844 36.9843C256.813 35.4568 250.026 34.531 243.466 33.6975C236.617 32.8592 230.109 31.9796 223.768 30.6018C213.704 28.4153 204.126 24.9198 194.584 17.9382C180.393 7.63658 160.537 1.74896 139.695 -2.7935C133.326 -4.17727 126.83 -5.44414 120.408 -6.65169C117.079 -7.27402 113.841 -7.91974 110.696 -8.5307C109.777 -8.68703 108.909 -8.87573 108.04 -9.06442C97.7558 -11.2988 88.354 -14.8717 78.8497 -18.438C61.7989 -24.8133 47.5497 -30.2623 33.0275 -37.4452C16.74 -45.4737 2.13716 -55.807 -16.968 -63.9568C-18.9245 -64.7861 -20.9361 -65.6273 -23.0011 -66.4225C-24.9096 -67.1403 -26.8697 -67.7538 -28.822 -68.3367C-26.7288 -67.7376 -24.6615 -67.0864 -22.6151 -66.3386C-20.5687 -65.5908 -18.5757 -64.7969 -16.5964 -64.006C2.54529 -56.2236 17.2992 -46.3195 33.9582 -38.6723C48.6835 -31.8928 63.046 -26.7656 80.1963 -20.3832C89.9319 -16.7522 99.5549 -13.0013 110.294 -10.6681C110.956 -10.5243 111.642 -10.3608 112.396 -10.2404C115.524 -9.61861 118.761 -8.97288 122.102 -8.33376C129.787 -6.89502 137.539 -5.42753 145.107 -3.78319C164.573 0.445981 182.844 5.85908 196.027 14.8877C205.293 21.2754 214.61 24.6421 224.205 26.7267C231.209 28.2483 238.397 29.1171 245.962 29.981C252.895 30.7653 260.051 31.7139 267.413 33.3133C270.694 34.0261 274.048 34.8702 277.465 35.8869C293.411 40.8382 301.047 50.2787 312.458 63.0081C327.516 79.8213 344.798 95.2988 365.047 107.754C366.808 108.815 368.556 109.873 370.335 110.924C382.021 117.736 394.662 122.417 407.042 125.107C415.92 127.035 424.674 127.941 432.819 127.863C448.417 127.7 461.933 127.287 470.614 124.077C462.325 128.672 447.305 130.36 429.7 131.054L429.689 131.038ZM432.795 126.111C424.78 126.189 416.156 125.282 407.402 123.38C395.188 120.727 382.704 116.123 371.226 109.414C369.434 108.36 367.683 107.316 365.965 106.25C345.867 93.8997 328.729 78.5546 313.767 61.8344C302.423 49.1918 294.452 39.303 277.958 34.2182C274.502 33.1787 271.11 32.3118 267.774 31.587C260.302 29.9636 253.087 29.0169 246.143 28.2158C238.606 27.3579 231.473 26.501 224.566 25.0005C215.109 22.9458 206.062 19.6665 197.005 13.4401C183.453 4.18673 165.028 -1.24554 145.465 -5.49568C137.883 -7.14301 130.12 -8.62728 122.424 -10.0828C119.081 -10.7081 115.843 -11.3539 112.688 -11.9816C111.992 -12.1038 111.333 -12.2613 110.658 -12.4081C100.112 -14.6994 90.5545 -18.4216 80.8021 -22.0418C63.6379 -28.4272 49.3336 -33.5561 34.6683 -40.2793C18.21 -47.854 3.37343 -57.7761 -15.9493 -65.6555C-17.09 -66.1199 -18.3026 -66.5855 -19.4876 -67.0451C-18.1923 -66.5615 -16.8664 -66.0858 -15.5908 -65.5777C3.70608 -57.9782 18.7392 -48.562 35.5918 -41.4069C50.4603 -35.0871 64.858 -30.2555 82.1031 -23.9102C92.0533 -20.2037 101.842 -16.2868 112.802 -13.9056C113.271 -13.8038 113.792 -13.6762 114.36 -13.5672C117.471 -12.9346 120.737 -12.2829 124.091 -11.6408C133.219 -9.93193 142.392 -8.22784 151.27 -6.29896C169.275 -2.38729 185.993 2.5297 198.415 10.5413C207.19 16.2013 215.951 19.332 224.968 21.2908C232.605 22.9502 240.433 23.7991 248.654 24.6324C255.98 25.4011 263.547 26.3231 271.377 28.0244C274.3 28.6593 277.257 29.4028 280.242 30.2823C296.231 35.0987 304.122 44.3636 315.684 56.8658C331.014 73.4206 348.475 88.807 368.688 101.427C370.416 102.51 372.188 103.588 373.967 104.639C386.797 112.234 400.707 117.45 414.093 120.359C421.621 121.994 428.944 122.906 435.878 123.085C451.194 123.424 464.315 123.835 472.625 121.266C464.915 125.192 450.204 126.053 432.792 126.125L432.795 126.111ZM435.912 121.201C429.122 121.025 421.895 120.133 414.492 118.525C401.298 115.659 387.562 110.509 374.923 103.028C373.145 101.977 371.389 100.888 369.682 99.8389C349.651 87.3156 332.304 72.0695 317.092 55.5692C305.587 43.1371 297.31 33.4563 280.781 28.4649C277.724 27.5842 274.729 26.818 271.779 26.177C263.838 24.4518 256.199 23.5286 248.846 22.7539C240.631 21.893 232.893 21.0926 225.38 19.4603C216.518 17.5206 208.013 14.4744 199.454 8.948C186.687 0.731471 169.756 -4.20289 151.682 -8.12954C142.762 -10.0674 133.576 -11.7745 124.465 -13.4941C121.118 -14.1057 117.872 -14.782 114.706 -15.4265C114.207 -15.5206 113.725 -15.6254 113.228 -15.7332C102.461 -18.0724 92.7736 -21.924 82.785 -25.6533C65.5183 -32.0322 51.1313 -36.847 36.3564 -43.132C20.4928 -49.8557 5.97044 -58.6989 -12.1888 -66.1523C6.15741 -58.9615 20.9824 -50.5144 37.2913 -44.1127C52.2862 -38.2419 66.7223 -33.7196 84.0806 -27.3641C94.2269 -23.6294 104.171 -19.5633 115.366 -17.1312C115.655 -17.0683 115.997 -16.9797 116.375 -16.9264C119.463 -16.2555 122.739 -15.587 126.113 -14.9694C136.833 -12.9437 147.635 -11.03 157.919 -8.79564C174.256 -5.24637 189.322 -0.832654 200.845 6.1319C209.045 11.1183 217.23 13.9793 225.626 15.8034C234.021 17.6274 242.398 18.408 251.345 19.2256C259.029 19.9421 266.972 20.8593 275.119 22.6295C277.739 23.1985 280.371 23.8425 283.045 24.6256C299.077 29.3071 307.215 38.3658 318.949 50.6744C334.529 67.0092 352.178 82.2631 372.324 95.0567C374.08 96.1456 375.822 97.2314 377.597 98.2957C391.619 106.785 406.845 112.59 421.196 115.708C427.303 117.035 433.255 117.881 438.914 118.215C454 119.082 466.788 120.358 474.693 118.394C467.618 121.723 453.174 121.688 435.921 121.16L435.912 121.201ZM439.015 116.288C433.486 115.953 427.631 115.128 421.606 113.819C407.475 110.749 392.437 105.013 378.604 96.6521C376.828 95.5878 375.114 94.5079 373.372 93.4221C353.387 80.75 335.864 65.5813 320.349 49.3472C308.697 37.1285 300.147 27.576 283.579 22.7638C280.847 21.9826 278.163 21.3128 275.516 20.7378C267.23 18.9377 259.215 18.0192 251.501 17.3105C242.561 16.4654 234.142 15.6758 226.022 13.9117C217.902 12.1475 209.821 9.33807 201.838 4.48528C189.986 -2.69502 174.749 -7.11713 158.319 -10.7011C147.965 -12.9505 137.161 -14.8504 126.455 -16.8731C123.097 -17.5014 119.838 -18.1807 116.689 -18.8361C116.352 -18.8804 116.062 -18.9433 115.745 -19.0122C104.771 -21.3963 94.9069 -25.4307 84.7086 -29.1911C67.3118 -35.5693 52.8697 -40.0641 37.9851 -45.9109C23.7658 -51.4978 10.4724 -58.6881 -5.0968 -65.3045C10.6899 -58.9584 24.2591 -52.0403 38.9374 -46.7724C54.039 -41.3259 68.5254 -37.168 85.9556 -30.8114C96.3165 -27.0012 106.427 -22.7691 117.842 -20.2891C117.911 -20.2741 118.101 -20.2184 118.358 -20.2059C121.412 -19.5134 124.702 -18.8419 128.074 -18.2105C140.476 -15.8913 152.919 -13.8232 164.61 -11.2833C179.237 -8.10548 192.631 -4.17043 203.241 1.81605C210.845 6.15342 218.457 8.731 226.218 10.4173C235.193 12.3671 244.357 13.1164 254.015 13.9153C262.067 14.5964 270.365 15.4752 278.912 17.3322C281.187 17.8264 283.488 18.3985 285.849 19.027C301.898 23.5677 310.288 32.4645 322.186 44.5489C338.022 60.6361 355.8 75.8893 375.942 88.7687C377.681 89.8684 379.448 90.974 381.234 92.055C396.59 101.513 413.271 107.995 428.588 111.323C433.165 112.317 437.655 113.047 441.946 113.431C457.247 114.835 469.889 117.048 477.307 115.469C471.217 118.448 456.58 117.505 439.015 116.288ZM442.149 111.367C437.936 110.957 433.553 110.265 429.031 109.282C413.949 106.006 397.466 99.6094 382.312 90.2826C380.539 89.2045 378.795 88.1324 377.075 87.0082C357.094 74.2505 339.436 59.1099 323.671 43.0958C311.846 31.0707 303.035 21.7214 286.41 17.0412C284.011 16.39 281.666 15.8226 279.349 15.3194C270.664 13.4325 262.267 12.5465 254.201 11.8624C244.515 11.0575 235.437 10.3124 226.669 8.40747C219.073 6.75714 211.679 4.24127 204.281 0.0207508C193.381 -6.1587 179.771 -10.0973 165.075 -13.2901C153.315 -15.845 140.831 -17.9221 128.459 -20.2491C125.112 -20.8606 121.869 -21.5507 118.712 -22.2366C118.544 -22.2588 118.475 -22.2737 118.296 -22.3127C107.101 -24.7447 97.0954 -28.9254 86.6795 -32.7475C69.1557 -39.1389 54.6585 -43.3136 39.6337 -48.7145C26.9525 -53.2742 15.09 -59.143 1.70266 -64.8378C15.3429 -59.3768 27.4859 -53.7358 40.6004 -49.4428C55.8313 -44.4591 70.3345 -40.6441 87.8888 -34.2605C98.4181 -30.4282 108.598 -26.051 120.23 -23.5093C120.782 -23.3895 121.372 -23.2469 121.965 -23.1181C124.598 -22.5461 127.303 -21.9728 130.101 -21.4948C144.208 -18.8486 158.384 -16.6494 171.453 -13.81C184.522 -10.9706 196.102 -7.58856 205.684 -2.51841C212.687 1.19748 219.675 3.52399 226.774 5.0665C236.452 7.1691 246.298 7.83556 256.742 8.60324C265.131 9.19855 273.822 10.0618 282.769 12.0056C284.699 12.4249 286.662 12.8946 288.681 13.4344C304.757 17.851 313.387 26.5691 325.433 38.4402C341.546 54.3134 359.526 69.4371 379.619 82.4789C381.355 83.5924 383.104 84.7088 384.857 85.8114C401.651 96.3608 419.891 103.572 436.104 107.094C439.151 107.756 442.114 108.27 445.013 108.683C460.242 110.62 472.486 113.8 479.477 112.721C474.355 115.232 459.785 113.322 442.17 111.401L442.149 111.367ZM445.279 106.46C442.433 106.073 439.541 105.56 436.536 104.907C420.599 101.445 402.559 94.306 386.006 83.9101C384.237 82.8182 382.49 81.688 380.776 80.6081C360.84 67.6436 342.977 52.6463 326.962 36.8522C314.982 25.0099 305.9 15.8471 289.22 11.2849C287.187 10.7422 285.197 10.2665 283.226 9.83818C274.099 7.85538 265.311 6.97124 256.895 6.36993C246.437 5.59926 236.68 4.9232 227.237 2.87151C220.302 1.36495 213.505 -0.905862 206.708 -4.5049C196.827 -9.72666 184.872 -13.1758 171.913 -15.9912C158.954 -18.8067 144.571 -21.0507 130.475 -23.6802C127.721 -24.163 125.071 -24.7243 122.424 -25.2993C121.873 -25.4192 121.28 -25.5479 120.704 -25.6875C109.319 -28.1753 99.23 -32.504 88.6318 -36.3512C70.9702 -42.7726 56.4149 -46.6134 41.2804 -51.5761C30.3898 -55.1405 19.9749 -59.6987 8.8192 -64.3023C20.2464 -59.8851 30.9495 -55.5242 42.2507 -52.1882C57.6159 -47.6229 72.1466 -44.1339 89.7926 -37.7737C100.349 -33.9354 110.55 -29.4527 122.184 -26.8529C123.122 -26.6492 124.084 -26.4258 125.049 -26.2161C127.31 -25.7249 129.629 -25.2355 132.062 -24.8079C147.922 -21.8531 163.804 -19.6009 178.141 -16.4859C189.294 -14.0628 199.517 -11.0768 208.095 -6.9032C214.485 -3.75365 220.865 -1.68899 227.317 -0.287251C237.67 1.96212 248.212 2.54876 259.43 3.21025C268.19 3.75637 277.263 4.58716 286.61 6.61788C288.21 6.96532 289.817 7.34333 291.467 7.78846C307.593 12.0426 316.485 20.6157 328.684 32.2457C345.037 47.8821 363.17 62.9669 383.213 76.0992C384.96 77.2294 386.707 78.3597 388.487 79.4683C406.847 91.1809 426.748 99.258 443.743 102.965C445.177 103.276 446.603 103.557 448.004 103.818C451.591 104.453 455.044 105.175 458.311 105.884C462.364 106.765 466.085 107.646 469.421 108.37C474.499 109.387 478.415 110.166 481.385 109.988C477.298 111.987 462.86 109.067 445.299 106.436L445.279 106.46ZM483.367 107.444C481.855 108.155 476.745 107.753 469.907 106.137C466.626 105.424 462.869 104.507 458.802 103.623C455.549 102.917 452.052 102.2 448.427 101.543C447.036 101.298 445.648 101.04 444.228 100.732C427.547 97.1074 407.858 89.1195 389.684 77.5483C387.948 76.4349 386.184 75.3155 384.479 74.1942C364.561 61.147 346.548 46.1749 330.267 30.6116C318.12 19.0073 308.758 10.0004 292.035 5.57305C290.365 5.1525 288.706 4.74874 287.079 4.39531C277.566 2.32865 268.352 1.4817 259.561 0.943369C248.36 0.271101 237.907 -0.32515 227.788 -2.5236C221.488 -3.89239 215.315 -5.91213 209.092 -8.9676C200.256 -13.2838 189.865 -16.292 178.616 -18.736C164.154 -21.878 148.269 -24.1165 132.484 -27.0838C130.078 -27.5054 127.77 -27.9781 125.523 -28.4663C124.558 -28.6759 123.613 -28.9102 122.675 -29.1138C111.3 -31.643 101.228 -36.0544 90.5781 -39.9274C72.7894 -46.3619 58.1592 -49.8581 42.9014 -54.3857C33.4511 -57.2039 24.397 -60.7158 14.9059 -64.4092C24.6703 -60.8441 34.0589 -57.4761 43.8999 -54.8617C59.3669 -50.7651 73.9557 -47.61 91.6982 -41.2288C102.316 -37.4061 112.471 -32.8467 124.118 -30.1719C125.38 -29.8688 126.646 -29.5795 127.955 -29.2949C129.927 -28.8666 131.956 -28.4401 134.059 -28.0843C151.648 -24.7828 169.233 -22.5937 184.797 -19.2121C194.268 -17.1545 202.99 -14.6388 210.497 -11.2466C216.185 -8.65381 221.889 -6.86598 227.637 -5.61701C238.763 -3.19991 250.084 -2.747 262.119 -2.12458C271.188 -1.67021 280.596 -0.853263 290.302 1.25533C291.612 1.53987 292.915 1.85199 294.274 2.17608C310.413 6.30318 319.57 14.6592 331.935 26.1232C348.557 41.5151 366.869 56.4368 386.841 69.7699C388.568 70.9247 390.328 72.0579 392.103 73.1941C412.04 86.0867 433.476 95.1328 451.031 98.99C463.457 101.733 473.884 105.572 480.223 106.963C481.4 107.191 482.436 107.343 483.37 107.431L483.367 107.444ZM45.6054 -57.5951C61.1898 -53.9061 75.8199 -51.0741 93.6434 -44.7331C104.292 -40.9181 114.436 -36.2454 126.116 -33.5203C127.626 -33.1633 129.164 -32.8003 130.75 -32.4558C132.473 -32.0814 134.241 -31.7118 136.065 -31.4022C155.392 -27.7952 174.644 -25.7058 191.311 -22.0846C199.183 -20.3744 206.491 -18.3248 212.949 -15.6224C217.964 -13.5222 222.986 -11.9837 228.018 -10.8904C239.929 -8.30261 251.992 -8.00625 264.814 -7.48702C274.282 -7.07585 284.049 -6.31109 294.154 -4.11565C295.092 -3.91198 296.067 -3.68552 297.085 -3.45009C313.253 0.539144 322.665 8.71953 335.177 19.9702C352.052 35.1282 370.557 49.9618 390.498 63.4327C392.222 64.6013 393.949 65.7561 395.721 66.9061C415.619 79.9779 436.8 89.6037 454.044 94.1586C468.406 97.9575 479.821 103.628 485.043 104.777L485.195 104.81C485.049 104.951 483.549 105.275 480.73 104.562C474.716 103.27 464.113 99.378 451.538 96.5882C434.356 92.8119 413.1 83.8628 393.401 71.1374C391.641 70.0042 389.921 68.88 388.194 67.7252C368.346 54.491 350.121 39.6316 333.583 24.3159C321.268 12.8914 311.634 4.07092 294.864 -0.207734C293.478 -0.537817 292.144 -0.842143 290.82 -1.12968C280.935 -3.27721 271.386 -4.11033 262.232 -4.5689C250.199 -5.20511 239.008 -5.6586 228.159 -8.01579C222.548 -9.23481 217.037 -10.9807 211.505 -13.4962C203.749 -17.0004 194.872 -19.5353 185.305 -21.6139C169.588 -25.0284 152.006 -27.2313 134.487 -30.5179C132.422 -30.8509 130.434 -31.2684 128.476 -31.6937C127.194 -31.9723 125.932 -32.2754 124.667 -32.5647C113.292 -35.1658 103.242 -39.6737 92.5364 -43.5587C74.6423 -49.9728 59.9432 -53.1519 44.5343 -57.2503C36.9717 -59.2543 29.6391 -61.7857 22.1512 -64.4664C29.9615 -61.8745 37.6256 -59.4731 45.5946 -57.6119L45.6054 -57.5951ZM106.333 -89.1849C106.526 -89.143 106.711 -89.1316 106.918 -89.0867C110.075 -88.4008 113.331 -87.5057 116.757 -86.4003C127.547 -82.7712 137.268 -77.209 148.825 -73.6585L148.729 -73.6795C137.361 -76.9722 127.473 -82.6286 116.032 -86.5147C112.677 -87.6189 109.481 -88.4577 106.333 -89.1849ZM118.121 -90.0166C118.311 -89.9608 118.479 -89.9387 118.694 -89.8632C125.315 -87.6451 131.583 -84.6664 138.072 -81.8417C131.557 -84.6142 125.126 -87.6427 118.121 -90.0166ZM102.712 -86.0737C103.266 -85.9676 103.808 -85.9365 104.373 -85.8137C107.737 -85.0829 111.197 -84.1291 114.832 -82.9206C125.823 -79.2191 135.784 -73.5034 147.681 -70.0525C149.727 -69.4348 151.873 -68.8818 154.073 -68.375L153.811 -68.4319C151.371 -68.9621 149.024 -69.5875 146.73 -70.2591C135.383 -73.5183 125.466 -79.0368 114.068 -82.9277C110.125 -84.2465 106.351 -85.2829 102.712 -86.0737ZM91.0922 -84.2237C94.5782 -83.8561 98.1308 -83.3297 101.798 -82.533C105.465 -81.7363 109.046 -80.7417 112.907 -79.441C123.891 -75.7118 133.872 -70.1508 145.744 -66.7197C148.096 -66.0499 150.523 -65.3926 153.06 -64.8415C153.846 -64.6708 154.69 -64.5019 155.578 -64.3378C155.272 -64.3899 154.963 -64.4282 154.656 -64.4803C153.613 -64.6636 152.59 -64.8714 151.584 -65.0901C149.226 -65.6023 146.959 -66.196 144.742 -66.822C133.388 -69.9817 123.475 -75.4558 112.136 -79.3486C107.871 -80.7805 103.78 -81.8859 99.8367 -82.7425C96.8589 -83.3895 93.98 -83.8272 91.1059 -84.2207L91.0922 -84.2237ZM492.184 89.4516C492.687 90.196 493.034 90.7911 493.264 91.2598C493.118 91.0692 492.99 90.926 492.836 90.7048C488.874 86.1482 479.458 77.7215 467.345 72.1446C451.65 64.909 431.564 53.1679 411.933 39.3312C410.207 38.1045 408.478 36.8916 406.777 35.6846C387.081 21.7473 367.995 7.26385 350.103 -6.93146C337.079 -17.2248 326.116 -25.1071 309.366 -28.7462C309.297 -28.7612 309.173 -28.7881 308.996 -28.8409C297.461 -31.2315 286.326 -31.875 275.68 -31.8491C259.028 -31.8866 243.788 -31.314 228.847 -34.5746C227.082 -34.9579 225.327 -35.3827 223.575 -35.8931C221.283 -36.5066 218.957 -37.0985 216.572 -37.6167C195.807 -42.1136 170.368 -42.7031 144.613 -47.4901C143.277 -47.7225 141.992 -47.9873 140.71 -48.2658C138.683 -48.7061 136.696 -49.1955 134.743 -49.7066C123.371 -52.5816 113.384 -57.5809 102.384 -61.4432C95.7508 -63.7362 89.5667 -65.4406 83.6249 -66.7315C74.5781 -68.6826 66.0836 -69.7196 57.4895 -70.7638C67.2367 -69.8444 76.655 -68.9388 86.774 -66.7403C92.0266 -65.5992 97.4782 -64.1116 103.319 -62.0918C114.124 -58.3297 124.194 -53.1822 135.973 -50.1179C138.047 -49.5661 140.186 -49.0438 142.406 -48.5615C143.577 -48.3069 144.804 -48.0404 146.085 -47.82C173.743 -42.6916 200.721 -42.7352 221.838 -38.1328C222.969 -37.8872 224.066 -37.62 225.245 -37.3348C226.111 -37.1324 227.042 -36.9011 227.994 -36.6944C244.399 -33.1302 260.763 -34.0937 278.39 -34.22C288.948 -34.3083 299.908 -33.7894 311.18 -31.5138L312.214 -31.2892C327.999 -27.8597 338.544 -20.6457 351.529 -10.7072C369.681 3.22679 388.978 17.6695 408.707 31.7872C410.405 33.0079 412.128 34.2484 413.853 35.4751C433.582 49.5929 453.503 61.9622 469.117 70.0321C476.496 73.8151 482.816 79.0139 487.193 83.5165C489.389 85.7694 491.118 87.8484 492.198 89.4546L492.184 89.4516ZM494.188 86.9417C492.98 85.3223 491.405 83.5364 489.424 81.3591C484.817 76.6479 478.259 71.2819 470.538 67.2802C455.102 59.3211 435.258 46.9974 415.652 32.9785C413.915 31.735 412.19 30.5083 410.491 29.2876C390.829 15.1986 371.559 0.761892 353.397 -13.1888C340.37 -23.1363 329.295 -30.7687 312.859 -34.3251L311.797 -34.5557C300.206 -36.8865 289.043 -37.4059 278.338 -37.3062C260.62 -37.1565 244.487 -36.2584 228.636 -39.7166C227.754 -39.9083 226.863 -40.1306 225.943 -40.345C224.788 -40.6104 223.649 -40.8866 222.464 -41.1442C200.844 -45.8268 173.938 -45.782 146.6 -50.8553C145.364 -51.0805 144.206 -51.3321 143.034 -51.5867C140.883 -52.0539 138.783 -52.5536 136.712 -53.1191C125.365 -56.0463 115.382 -61.1313 104.328 -65.0055C98.3487 -67.0553 92.7652 -68.6004 87.4162 -69.7625C79.4753 -71.4877 72.0111 -72.4164 64.5385 -73.1737C72.9761 -72.5388 81.2693 -71.7043 90.1338 -69.7784C94.9589 -68.7301 99.9172 -67.3642 105.222 -65.5331C116.074 -61.7896 126.112 -56.5624 137.917 -53.4202C140 -52.8378 142.204 -52.2867 144.452 -51.7985C145.596 -51.5499 146.798 -51.3031 148.065 -51.0857C177.31 -45.6847 205.672 -46.4526 227.564 -41.6962L227.675 -41.6723C245.09 -37.9032 262.433 -39.1881 281.073 -39.5273C291.696 -39.7169 302.675 -39.2807 313.956 -37.1184C314.549 -36.9896 315.131 -36.8776 315.724 -36.7488C331.162 -33.3804 341.844 -26.3966 354.763 -16.8189C373.225 -3.12054 392.659 11.294 412.308 25.51C414.031 26.7505 415.726 27.985 417.449 29.2255C437.163 43.5423 456.824 56.4469 472.086 65.2055C479.106 69.2427 485.111 74.7628 489.236 79.6293C491.698 82.3873 493.28 85.07 494.198 86.9585L494.188 86.9417ZM495.665 82.9317C491.807 76.6362 483.866 68.53 473.707 62.396C458.587 53.7117 438.943 40.8682 419.36 26.609C417.637 25.3685 415.904 24.1112 414.192 22.8875C394.542 8.6714 375.134 -5.72329 356.701 -19.4294C343.716 -29.0359 332.498 -36.4105 316.407 -39.892C315.8 -40.0238 315.208 -40.1526 314.598 -40.2706C302.988 -42.5186 291.761 -42.9368 281.041 -42.7682C262.495 -42.3942 245.587 -41.1879 228.981 -44.6946L228.56 -45.349L227.768 -44.9581C205.366 -49.6952 177.308 -48.9334 148.624 -54.2559C147.426 -54.4583 146.295 -54.7039 145.137 -54.9555C142.945 -55.4317 140.824 -55.9649 138.738 -56.5335C127.379 -59.5355 117.4 -64.7063 106.277 -68.5955C100.862 -70.4505 95.7246 -71.8554 90.8167 -72.9217C84.6956 -74.2515 78.8539 -75.0731 73.1189 -75.655C79.7134 -75.1751 86.3199 -74.4184 93.2957 -72.9028C97.6935 -71.9474 102.283 -70.676 107.15 -69.0266C118.03 -65.277 128.047 -59.9534 139.882 -56.747C142.047 -56.1467 144.265 -55.5925 146.581 -55.0893C147.698 -54.8467 148.856 -54.5951 150.081 -54.3867C179.522 -48.9576 207.931 -50.2062 230.116 -46.0649C247.639 -42.7921 265.099 -44.4126 283.799 -44.8975C294.435 -45.2141 305.495 -44.8182 316.797 -42.7523C317.617 -42.6032 318.43 -42.4265 319.244 -42.2498C334.353 -38.9671 345.144 -32.2194 358.05 -22.9767C376.735 -9.5044 396.349 4.80516 415.955 19.1561C417.678 20.3966 419.356 21.6419 421.081 22.9405C440.743 37.4335 460.187 50.8686 475.094 60.3298C485.239 66.5327 492.953 77.073 495.679 82.9347L495.665 82.9317ZM496.414 77.2908C492.468 70.803 485.506 63.2415 476.859 57.5226C462.045 48.0962 442.667 34.6899 423.065 20.2533C421.332 18.996 419.618 17.7141 417.923 16.4796C398.292 2.10888 378.691 -12.1977 359.992 -25.673C347.027 -34.972 335.708 -42.0798 319.947 -45.4895C319.107 -45.6722 318.266 -45.8549 317.405 -46.013C305.757 -48.1538 294.476 -48.5258 283.699 -48.2253C264.852 -47.729 247.637 -46.1708 230.723 -49.3256C207.954 -53.5651 179.669 -52.2896 150.65 -57.6702C149.48 -57.8666 148.402 -58.0865 147.285 -58.3291C145.066 -58.8113 142.895 -59.3841 140.751 -59.9508C129.396 -63.0386 119.435 -68.2921 108.24 -72.1825C103.241 -73.8895 98.549 -75.1542 94.0134 -76.1396C88.3748 -77.3646 83.0019 -78.0844 77.714 -78.598C83.7451 -78.1828 89.8265 -77.4679 96.2647 -76.0691C100.359 -75.1796 104.613 -74.0245 109.087 -72.4894C119.999 -68.7615 130.01 -63.3383 141.846 -60.0738C144.105 -59.4387 146.458 -58.8409 148.871 -58.3167C149.877 -58.0981 150.952 -57.8644 152.095 -57.674C181.663 -52.2317 210.079 -53.9118 232.579 -50.4239C250.18 -47.7115 267.728 -49.6018 286.522 -50.254C297.207 -50.6611 308.281 -50.334 319.619 -48.3617C320.703 -48.1694 321.767 -47.9526 322.843 -47.719C337.635 -44.5052 348.535 -37.9937 361.317 -29.1101C380.271 -15.8823 399.978 -1.59613 419.596 12.8297C421.299 14.0948 423.016 15.3629 424.716 16.6418C444.336 31.3277 463.519 45.2981 478.083 55.4786C486.733 61.3137 493.364 70.6656 496.442 77.2968L496.414 77.2908ZM497.942 72.5842C494.179 65.8476 487.87 58.3412 480.039 52.6552C465.51 42.5113 446.358 28.5332 426.76 13.8807C425.032 12.5959 423.318 11.314 421.626 10.0657C401.986 -4.39369 382.241 -18.7026 363.248 -31.9532C350.376 -40.8853 338.973 -47.7372 323.546 -51.0888C322.443 -51.3284 321.337 -51.5543 320.201 -51.7723C308.516 -53.8057 297.206 -54.1118 286.346 -53.6992C267.43 -53.0159 250.069 -51.1862 233.059 -53.8279C210.009 -57.3775 181.751 -55.692 152.643 -61.063C151.597 -61.2325 150.591 -61.4511 149.571 -61.6727C147.241 -62.1789 144.976 -62.7864 142.739 -63.3879C131.377 -66.5063 121.44 -71.87 110.156 -75.7508C105.569 -77.296 101.197 -78.5057 96.9649 -79.4252C93.6838 -80.138 90.48 -80.6752 87.341 -81.1118C91.1669 -80.7137 95.0456 -80.1598 99.0711 -79.2852C103.097 -78.4106 106.826 -77.3693 110.984 -75.9751C121.939 -72.2381 131.931 -66.7323 143.766 -63.3958C146.036 -62.744 148.378 -62.1629 150.818 -61.6328C151.852 -61.4081 152.914 -61.1775 154.039 -60.9762C183.773 -55.4981 212.219 -57.6481 235.001 -54.7919C252.685 -52.5956 270.35 -54.7634 289.189 -55.6224C299.926 -56.1338 311.035 -55.9003 322.401 -53.9939C323.751 -53.7585 325.083 -53.5123 326.42 -53.2218C340.882 -50.0799 351.85 -43.8135 364.562 -35.2769C383.762 -22.3135 403.627 -8.0939 423.188 6.46382C424.891 7.72892 426.613 9.04135 428.313 10.3202C447.921 25.1914 466.85 39.6695 481.05 50.5938C488.848 56.4314 494.915 65.5167 497.934 72.5537L497.942 72.5842ZM483.205 47.7848C469.013 36.8911 450.076 22.3824 430.471 7.49744C428.743 6.21259 427.032 4.91694 425.343 3.65487C405.733 -10.9424 385.832 -25.1986 366.556 -38.2075C353.753 -46.7927 342.268 -53.4024 327.183 -56.6653C325.832 -56.9589 324.45 -57.2446 322.991 -57.5039C311.298 -59.4378 299.929 -59.6702 289.032 -59.1503C270.052 -58.3076 252.57 -56.1865 235.477 -58.3121C222.194 -59.9707 207.302 -60.0012 191.591 -60.7149C208.203 -60.0942 223.799 -60.4451 237.502 -59.1282C255.245 -57.4677 273.018 -59.9299 291.92 -60.9482C302.701 -61.5945 313.838 -61.4269 325.239 -59.6141C326.901 -59.3541 328.509 -59.048 330.122 -58.6976C344.209 -55.6228 355.227 -49.5908 367.843 -41.4072C387.312 -28.6884 407.376 -14.5845 426.857 0.143473C428.543 1.41934 430.237 2.72579 431.942 4.04902C451.488 19.1378 470.224 34.108 484.052 45.7456C490.744 51.2273 495.996 59.4137 499.003 66.5058C495.414 59.9658 489.911 53.0675 483.208 47.7711L483.205 47.7848ZM486.409 42.9372C472.515 31.2708 453.758 16.267 434.173 1.15549C432.457 -0.184512 430.744 -1.46635 429.05 -2.7728C409.509 -17.5571 389.393 -31.6868 369.85 -44.4649C357.136 -52.7276 345.619 -59.0556 330.895 -62.2545C329.241 -62.6139 327.539 -62.9547 325.819 -63.2128C314.07 -65.0868 302.656 -65.2424 291.718 -64.6015C272.621 -63.5531 255.015 -61.1269 237.833 -62.7809C228.031 -63.7123 217.415 -63.8242 206.281 -64.0056C218.284 -63.9675 229.632 -64.1728 239.962 -63.4734C257.799 -62.3123 275.665 -65.0717 294.626 -66.2939C305.435 -67.0061 316.622 -66.929 328.047 -65.2264C330.015 -64.9144 331.912 -64.5454 333.787 -64.1381C347.587 -61.1399 358.632 -55.3621 371.093 -47.5297C390.816 -35.0447 410.98 -21.0055 430.47 -6.18886C432.151 -4.88541 433.845 -3.57898 435.549 -2.25577C455.068 13.029 473.548 28.5069 487.005 40.8579C492.876 46.1323 497.542 53.7583 500.414 60.8066C497.063 54.4338 492.237 47.9425 486.398 42.9204L486.409 42.9372ZM489.572 38.0806C476.003 25.6475 457.449 10.1103 437.867 -5.21701C436.155 -6.5708 434.444 -7.86645 432.764 -9.16989C413.206 -24.0735 392.943 -38.1917 373.099 -50.7175C360.519 -58.6625 348.972 -64.7226 334.593 -67.8466C332.649 -68.2689 330.666 -68.642 328.601 -68.975C316.842 -70.7357 305.368 -70.8176 294.362 -70.0616C275.199 -68.84 257.472 -66.1225 240.193 -67.2633C232.733 -67.7437 224.814 -67.7751 216.628 -67.7776C225.677 -67.9628 234.366 -68.1539 242.444 -67.857C260.365 -67.212 278.321 -70.2549 297.335 -71.6533C308.182 -72.4728 319.411 -72.4587 330.868 -70.8358C333.162 -70.4963 335.369 -70.089 337.519 -69.6217C350.961 -66.7014 362.051 -61.1304 374.374 -53.66C394.369 -41.4334 414.706 -27.4578 434.105 -12.4876C435.802 -11.195 437.48 -9.87776 439.162 -8.51618C458.632 6.98917 476.922 22.9454 490.027 35.9851C495.261 41.1355 499.485 48.4055 502.178 55.415C499.09 49.1572 494.796 42.9404 489.586 38.0836L489.572 38.0806ZM492.763 33.23C479.522 20.0165 461.138 4.02549 441.573 -11.5728C439.874 -12.9235 438.155 -14.2497 436.467 -15.5837C416.939 -30.6252 396.518 -44.6769 376.393 -56.9749C363.948 -64.5441 352.391 -70.3609 338.343 -73.4129C336.11 -73.8981 333.806 -74.3264 331.427 -74.6701C319.611 -76.3709 308.092 -76.376 297.037 -75.5295C277.801 -74.1071 259.939 -71.1013 242.57 -71.7566C237.47 -71.9406 232.135 -71.9015 226.693 -71.8421C232.992 -72.0617 239.083 -72.2542 244.907 -72.216C262.908 -72.0733 280.967 -75.4549 300.028 -77.0019C310.915 -77.9425 322.184 -77.9776 333.678 -76.462C336.285 -76.0979 338.842 -75.6433 341.31 -75.1071C354.434 -72.2558 365.492 -66.937 377.627 -59.7963C397.881 -47.831 418.386 -33.9633 437.697 -18.8536C439.385 -17.5195 441.076 -16.1993 442.758 -14.8377C462.207 0.836051 480.28 17.3228 492.967 31.0944C497.198 35.6084 500.658 41.745 503.145 47.9735C500.417 42.5878 496.88 37.4018 492.738 33.2102L492.763 33.23ZM495.95 28.3932C483.024 14.3963 464.869 -2.18039 445.298 -17.953C443.588 -19.3206 441.875 -20.6744 440.171 -21.9976C420.712 -37.2261 400.084 -51.1927 379.674 -63.2353C367.372 -70.47 355.875 -76.0285 342.171 -79.0057C339.607 -79.5628 336.964 -80.0215 334.234 -80.4126C322.378 -81.9923 310.815 -81.9344 299.706 -80.9698C280.39 -79.3772 262.401 -76.0525 244.934 -76.1948C241.938 -76.2249 238.896 -76.1784 235.807 -76.1133C239.748 -76.311 243.641 -76.4901 247.384 -76.5721C265.462 -76.9178 283.636 -80.5632 302.775 -82.3386C313.695 -83.3589 324.998 -83.4874 336.51 -82.0546C339.504 -81.6785 342.378 -81.1551 345.177 -80.547C357.971 -77.7675 368.983 -72.7041 380.919 -65.9099C401.401 -54.1981 422.079 -40.394 441.332 -25.1523C443.017 -23.8045 444.702 -22.4567 446.374 -21.1119C465.794 -5.24214 483.643 11.7445 495.972 26.2324C499.729 30.6002 502.837 36.4294 505.109 42.4523C502.646 37.3118 499.564 32.4266 495.944 28.4208L495.95 28.3932ZM499.138 23.5564C486.553 8.78198 468.581 -8.30353 449.016 -24.3058C447.324 -25.6841 445.617 -27.0655 443.904 -28.4193C424.462 -43.7886 403.648 -57.6946 382.971 -69.5064C370.84 -76.4008 359.406 -81.7147 346.061 -84.614C343.152 -85.2459 340.158 -85.752 337.043 -86.1688C325.169 -87.6658 313.548 -87.5342 302.387 -86.4653C282.968 -84.6641 264.875 -81.0589 247.314 -80.7018C246.065 -80.6699 244.753 -80.6086 243.488 -80.5659C245.626 -80.7076 247.778 -80.8463 249.864 -80.9419C268.008 -81.7929 286.295 -85.7602 305.484 -87.698C316.475 -88.8472 327.782 -89.0615 339.348 -87.6748C342.743 -87.2838 345.957 -86.7298 349.128 -86.0409C361.563 -83.3393 372.48 -78.4988 384.203 -72.054C404.972 -60.5976 425.794 -46.863 444.979 -31.5063C446.678 -30.1555 448.374 -28.7909 450.022 -27.4077C469.384 -11.3341 487.043 6.13084 498.983 21.3429C502.168 25.3553 504.849 30.5576 506.889 36.0537C504.731 31.4992 502.16 27.187 499.148 23.5731L499.138 23.5564ZM502.284 18.7105C490.083 3.1677 472.266 -14.4327 452.714 -30.6921C451.01 -32.0872 449.304 -33.4686 447.605 -34.8194C428.198 -50.3541 407.198 -64.1996 386.24 -75.7836C374.322 -82.3285 362.978 -87.3919 350.019 -90.2073C346.738 -90.9202 343.338 -91.4855 339.847 -91.8975C327.925 -93.3039 316.271 -93.0926 305.045 -91.9224C287.982 -90.2012 271.9 -87.083 256.294 -85.7528C273.233 -87.3709 290.341 -91.0892 308.196 -93.0712C319.222 -94.314 330.599 -94.5851 342.165 -93.3285C345.937 -92.8842 349.571 -92.2679 353.087 -91.5042C365.177 -88.8774 375.976 -84.2935 387.47 -78.1873C408.498 -66.9923 429.418 -53.3086 448.61 -37.8494C450.292 -36.4878 451.957 -35.1154 453.616 -33.7155C472.947 -17.4321 490.415 0.51119 501.967 16.4473C504.427 19.8113 506.518 24.0049 508.257 28.4971C506.52 24.9292 504.544 21.5981 502.298 18.7135L502.284 18.7105ZM510.373 22.4748C508.905 19.3984 507.31 16.4389 505.482 13.8905C493.616 -2.46037 475.981 -20.5697 456.43 -37.031C454.732 -38.4537 453.026 -39.8351 451.319 -41.2165C431.909 -56.8675 410.759 -70.6877 389.49 -82.0362C377.815 -88.2395 366.582 -93.0187 353.996 -95.7533C350.328 -96.55 346.567 -97.1795 342.62 -97.6183C330.649 -98.9343 318.967 -98.6571 307.689 -97.3825C295.531 -96.0396 283.899 -93.9324 272.519 -92.1892C285.072 -94.2838 297.785 -96.849 310.872 -98.4091C321.935 -99.7591 333.358 -100.107 344.939 -98.9193C349.176 -98.4895 353.192 -97.8337 357.121 -96.98C368.839 -94.4342 379.487 -90.0852 390.709 -84.3266C411.979 -73.3821 433.055 -59.7513 452.192 -44.1739C453.888 -42.8094 455.534 -41.4124 457.204 -39.9957C476.442 -23.4869 493.764 -5.07007 504.92 11.5596C507.011 14.6269 508.833 18.401 510.343 22.4826L510.373 22.4748ZM508.653 9.06447C497.17 -8.05484 479.627 -26.6497 460.135 -43.3868C458.44 -44.8232 456.754 -46.2292 455.033 -47.6136C435.653 -63.4024 414.322 -77.1897 392.781 -88.2798C381.336 -94.1445 370.295 -98.6798 358.095 -101.33C354.014 -102.217 349.816 -102.898 345.441 -103.358C333.435 -104.58 321.68 -104.232 310.372 -102.82C301.794 -101.811 293.48 -100.354 285.306 -98.8817C294.609 -100.701 304.014 -102.527 313.62 -103.746C324.721 -105.203 336.169 -105.603 347.79 -104.536C352.457 -104.086 356.922 -103.375 361.237 -102.438C372.583 -99.9729 383.052 -95.8649 394.004 -90.4539C415.533 -79.7708 436.737 -66.1987 455.823 -50.5171C457.499 -49.1279 459.161 -47.7418 460.814 -46.3142C480.091 -29.6526 497.156 -10.7143 507.91 6.63646C509.336 8.90973 510.587 11.5924 511.732 14.4256C510.773 12.528 509.724 10.712 508.628 9.04469L508.653 9.06447ZM513.939 8.19168C513.266 6.83297 512.587 5.44368 511.826 4.22464C500.713 -13.6661 483.368 -32.8388 463.829 -49.7593C462.138 -51.2096 460.457 -52.6431 458.756 -54.052C439.376 -69.9709 417.875 -83.7085 396.064 -94.5539C384.887 -100.057 374.025 -104.352 362.224 -106.915C357.716 -107.895 353.082 -108.627 348.22 -109.106C336.204 -110.215 324.414 -109.774 313.036 -108.305C308.236 -107.673 303.511 -106.924 298.84 -106.09C304.631 -107.229 310.452 -108.303 316.356 -109.099C327.481 -110.667 338.979 -111.157 350.642 -110.154C355.787 -109.714 360.717 -108.947 365.5 -107.907C376.447 -105.529 386.704 -101.64 397.315 -96.592C419.086 -86.1595 440.452 -72.6677 459.481 -56.8542C461.167 -55.4483 462.799 -54.0543 464.46 -52.5962C483.654 -35.7506 500.597 -16.319 510.938 1.73612C512.052 3.65281 513.028 5.87158 513.942 8.17789L513.939 8.19168ZM516.28 2.00156C515.843 1.15589 515.471 0.208927 515.008 -0.584617C504.26 -19.2912 487.077 -38.9482 467.562 -56.109C465.879 -57.6006 464.185 -59.0371 462.487 -60.4599C443.136 -76.5167 421.469 -90.2182 399.347 -100.828C388.492 -106.016 377.871 -110.027 366.484 -112.501C361.507 -113.582 356.379 -114.364 351.041 -114.846C338.987 -115.848 327.141 -115.346 315.708 -113.759C311.914 -113.24 308.201 -112.56 304.507 -111.905C309.31 -112.882 314.161 -113.748 319.068 -114.472C330.239 -116.117 341.768 -116.687 353.455 -115.794C359.118 -115.343 364.539 -114.512 369.833 -113.362C380.365 -111.073 390.334 -107.449 400.602 -102.75C422.646 -92.5757 444.126 -79.1457 463.111 -63.1973C464.787 -61.8082 466.434 -60.3531 468.084 -58.9118C487.278 -41.8642 503.98 -21.9218 513.928 -3.18699C514.77 -1.61791 515.558 0.141168 516.283 1.98777L516.28 2.00156ZM517.713 -6.19039C507.344 -25.3777 490.528 -45.3302 471.251 -62.4539C469.571 -63.9594 467.879 -65.4097 466.168 -66.8354C446.853 -83.0576 425.016 -96.7094 402.605 -107.05C392.117 -111.87 381.788 -115.629 370.842 -118.008C365.355 -119.2 359.714 -120.079 353.822 -120.536C341.908 -121.45 330.149 -120.886 318.832 -119.23C319.819 -119.391 320.781 -119.63 321.779 -119.774C332.991 -121.539 344.545 -122.162 356.271 -121.375C362.464 -120.91 368.413 -120.051 374.231 -118.787C384.336 -116.592 394.009 -113.205 403.86 -108.842C426.17 -98.8985 447.785 -85.5548 466.715 -69.4883C468.375 -68.0884 470.019 -66.6195 471.666 -65.1644C490.817 -47.9238 507.367 -27.4803 516.905 -8.05496C517.186 -7.48857 517.438 -6.78433 517.696 -6.17959L517.713 -6.19039ZM520.028 -12.6604C509.945 -32.1031 493.678 -51.922 474.972 -68.8205C473.307 -70.3229 471.593 -71.8067 469.888 -73.26C450.595 -89.6507 428.583 -103.225 405.863 -113.344C395.76 -117.806 385.767 -121.319 375.276 -123.599C369.252 -124.907 363.054 -125.821 356.628 -126.278C345.434 -127.05 334.418 -126.513 323.709 -124.999C323.964 -125.045 324.236 -125.101 324.494 -125.161C335.737 -127.006 347.358 -127.73 359.109 -126.996C365.873 -126.565 372.385 -125.641 378.74 -124.261C388.391 -122.164 397.708 -118.999 407.158 -114.983C429.702 -105.321 451.47 -92.016 470.349 -75.8452C472.019 -74.4285 473.663 -72.9596 475.301 -71.4632C494.346 -54.0002 510.767 -33.094 519.92 -12.9583C519.96 -12.8774 519.991 -12.7551 520.028 -12.6604ZM478.705 -75.1702C477.004 -76.7092 475.329 -78.1703 473.616 -79.6541C454.339 -96.1857 432.147 -109.727 409.144 -119.604C399.444 -123.733 389.813 -126.98 379.804 -129.155C373.2 -130.589 366.453 -131.564 359.421 -132.024C350.559 -132.563 341.752 -132.297 333.134 -131.368C342.552 -132.657 352.198 -133.131 361.936 -132.633C369.298 -132.231 376.398 -131.223 383.36 -129.71C392.514 -127.721 401.437 -124.801 410.469 -121.121C433.273 -111.72 455.188 -98.4988 473.993 -82.1854C475.657 -80.7411 477.287 -79.2752 478.933 -77.7482C496.4 -61.5233 511.492 -42.1472 520.585 -22.9339C510.703 -41.3079 495.739 -59.5447 478.722 -75.181L478.705 -75.1702ZM482.407 -81.5121C480.74 -83.0727 479.046 -84.5812 477.344 -86.0482C458.059 -102.74 435.697 -116.232 412.401 -125.826C403.153 -129.64 393.933 -132.654 384.434 -134.718C377.224 -136.284 369.855 -137.322 362.219 -137.725C354.127 -138.155 346.128 -137.886 338.234 -137.103C346.939 -138.229 355.82 -138.639 364.768 -138.225C372.77 -137.844 380.494 -136.786 388.091 -135.136C396.748 -133.255 405.219 -130.577 413.744 -127.224C436.779 -118.09 458.85 -104.922 477.603 -88.5039C479.267 -87.0596 480.905 -85.5632 482.524 -84.0421C499.442 -68.1529 514.01 -49.0206 522.905 -29.8217C513.321 -48.1742 498.884 -66.1808 482.421 -81.5091L482.407 -81.5121ZM486.113 -87.8679C484.442 -89.4146 482.754 -90.9507 481.047 -92.4621C461.809 -109.303 439.263 -122.748 415.673 -132.117C406.92 -135.549 398.149 -138.307 389.202 -140.251C381.33 -141.961 373.299 -143.07 365.026 -143.467C359.308 -143.728 353.628 -143.634 348.024 -143.292C354.504 -143.877 361.029 -144.076 367.603 -143.832C376.264 -143.495 384.668 -142.376 392.926 -140.582C401.184 -138.788 409.047 -136.372 417.039 -133.351C440.329 -124.465 462.543 -111.352 481.227 -94.8195C482.885 -93.3476 484.527 -91.8649 486.142 -90.3301C501.668 -75.5375 515.086 -57.8245 523.807 -39.6883C514.524 -56.9649 501.227 -73.641 486.126 -87.8649L486.113 -87.8679ZM489.829 -94.2068C488.153 -95.798 486.479 -97.331 484.775 -98.8562C465.542 -115.855 442.8 -129.256 418.934 -138.353C410.714 -141.453 402.46 -143.997 394.051 -145.824C385.641 -147.651 376.786 -148.824 367.782 -149.177C363.101 -149.357 358.445 -149.257 353.803 -149.024C359.298 -149.462 364.845 -149.613 370.41 -149.444C379.744 -149.148 388.859 -147.977 397.848 -146.024C405.403 -144.382 412.865 -142.184 420.292 -139.487C443.825 -130.852 466.186 -117.822 484.827 -101.155C486.471 -99.6859 488.107 -98.1757 489.716 -96.6133C504.34 -82.5219 517.038 -65.6149 525.545 -48.0883C516.559 -64.7374 504.035 -80.6536 489.812 -94.196L489.829 -94.2068ZM527.664 -55.9147C518.975 -72.1383 507.057 -87.5187 493.523 -100.579C491.864 -102.181 490.18 -103.731 488.486 -105.239C469.276 -122.406 446.325 -135.78 422.187 -144.619C414.521 -147.411 406.816 -149.691 399.013 -151.387C389.721 -153.405 380.269 -154.621 370.575 -154.923C368.036 -154.998 365.507 -154.985 362.982 -154.927C366.391 -155.067 369.799 -155.135 373.248 -155.064C383.313 -154.812 393.197 -153.589 402.957 -151.468C409.892 -149.961 416.769 -147.991 423.614 -145.609C447.409 -137.248 469.868 -124.27 488.471 -107.495C490.129 -106.023 491.731 -104.491 493.354 -102.926C507.278 -89.333 519.407 -72.9972 527.678 -55.9117L527.664 -55.9147ZM497.242 -106.932C495.583 -108.534 493.908 -110.125 492.206 -111.664C473.015 -128.986 449.919 -142.29 425.442 -150.9C418.393 -153.341 411.329 -155.381 404.133 -156.944C394.069 -159.131 383.804 -160.393 373.362 -160.641C374.273 -160.645 375.179 -160.694 376.083 -160.67C386.875 -160.506 397.568 -159.222 408.087 -156.937C414.401 -155.565 420.648 -153.818 426.895 -151.739C450.941 -143.671 473.539 -130.734 492.071 -113.83C493.72 -112.317 495.335 -110.782 496.928 -109.209C509.246 -97.0623 520.037 -82.6054 527.971 -67.2964C519.776 -81.7381 509.144 -95.2654 497.239 -106.918L497.242 -106.932ZM530.602 -74.4198C522.66 -88.6331 512.42 -101.902 500.93 -113.277C499.294 -114.917 497.605 -116.511 495.918 -118.047C476.748 -135.537 453.467 -148.853 428.706 -157.149C422.296 -159.278 415.835 -161.101 409.3 -162.52C398.947 -164.77 388.388 -166.01 377.737 -166.288C378.124 -166.276 378.52 -166.306 378.896 -166.31C390.453 -166.211 401.976 -164.891 413.308 -162.429C418.96 -161.201 424.574 -159.664 430.193 -157.88C454.47 -150.079 477.224 -137.195 495.69 -120.19C497.342 -118.691 498.955 -117.142 500.555 -115.538C512.416 -103.679 522.913 -89.531 530.605 -74.4336L530.602 -74.4198ZM499.331 -126.517C511.105 -115.585 521.639 -102.209 529.827 -87.6678C522.715 -99.3189 514.128 -110.164 504.677 -119.624C503.03 -121.281 501.344 -122.889 499.646 -124.442C480.489 -142.059 457.011 -155.331 431.963 -163.371C426.216 -165.226 420.406 -166.792 414.547 -168.065C406.179 -169.883 397.689 -171.077 389.171 -171.672C399.037 -171.232 408.897 -169.97 418.617 -167.859C448.671 -161.329 477.19 -147.005 499.328 -126.503L499.331 -126.517Z" fill="#10607B"/>
</svg>
