<svg width="158" height="79" viewBox="0 0 158 79" fill="none" xmlns="http://www.w3.org/2000/svg">
<g clip-path="url(#clip0_9339_49588)">
<path opacity="0.4" d="M184.839 -114.217C157.679 -116.378 130.037 -105.881 105.735 -118.906C105.439 -119.051 105.205 -119.187 104.926 -119.348C97.9226 -123.332 94.078 -130.123 87.0765 -135.061C86.3145 -135.585 85.5687 -136.05 84.8209 -136.482C75.6 -141.805 66.4613 -140.524 56.4163 -139.327C42.9692 -137.712 30.6832 -138.78 17.6496 -142.359C4.79707 -145.842 -9.39106 -153.51 -23.9053 -150.119C-26.4367 -149.51 -29.0599 -149.504 -31.6774 -149.975C-36.0054 -150.734 -40.185 -152.817 -44.8224 -154.21C-47.1624 -154.826 -49.4618 -155.57 -51.8675 -155.912C-53.1963 -156.113 -54.5483 -156.2 -55.8778 -156.064C-56.8176 -155.973 -57.9693 -155.793 -58.8001 -155.334C-59.4443 -154.98 -59.3629 -154.916 -59.1451 -154.283C-58.8933 -153.563 -58.7494 -152.846 -58.5976 -152.099C-58.3824 -151.096 -57.9392 -150.122 -57.5877 -149.15C-56.9406 -147.315 -56.2524 -145.507 -55.5117 -143.702C-52.3242 -135.904 -49.114 -129.522 -42.4353 -124.229C-36.3689 -119.442 -28.8639 -116.884 -23.5689 -111.097C-15.6787 -102.503 -12.5409 -91.6923 -7.43699 -81.5209C-1.53321 -69.7639 6.3913 -60.9215 17.4057 -54.5623C19.2245 -53.5122 21.1289 -52.5225 23.1399 -51.615C25.159 -50.6775 27.1911 -49.6309 29.2 -48.4711C40.5693 -41.907 51.1985 -31.8073 55.2742 -19.6354C61.2879 -1.57052 74.1321 0.301996 86.6051 11.3648C93.2385 17.2479 93.3987 23.8638 95.3919 33.0419C98.1456 45.718 103.346 57.0098 113.408 65.81C114.915 67.1365 116.556 68.3038 118.331 69.3283C135.686 79.34 164.374 75.3279 182.656 66.7437L183.03 66.4613C164.784 75.1754 135.809 79.3178 118.378 69.2459C116.61 68.2251 114.969 67.0577 113.464 65.7413C103.434 56.9594 98.2329 45.6839 95.4819 33.0178C93.494 23.8596 93.3358 17.2112 86.678 11.2971C74.167 0.212308 61.3545 -1.64194 55.3606 -19.6532C51.2778 -31.8713 40.6196 -41.9794 29.244 -48.5471C27.235 -49.707 25.2038 -50.7698 23.1775 -51.6947C21.1665 -52.6022 19.2621 -53.5919 17.4496 -54.6384C6.45422 -60.9866 -1.46128 -69.8153 -7.35238 -81.565C-12.4573 -91.72 -15.5977 -102.541 -23.4933 -111.155C-28.8163 -116.966 -36.3277 -119.528 -42.3751 -124.304C-49.0457 -129.567 -52.2432 -135.942 -55.4317 -143.723C-56.1661 -145.524 -56.8669 -147.34 -57.5078 -149.172C-57.5884 -149.413 -57.659 -149.656 -57.756 -149.898C-57.6707 -149.68 -57.5991 -149.453 -57.5102 -149.241C-56.8284 -147.436 -56.1066 -145.642 -55.3612 -143.86C-53.8501 -140.359 -52.3376 -137.154 -50.4982 -134.208C-49.3257 -132.331 -48.0393 -130.549 -46.5191 -128.894C-45.1777 -127.426 -43.6654 -126.021 -41.9286 -124.697C-39.6436 -122.947 -37.174 -121.487 -34.6771 -120.046C-34.3095 -119.833 -33.9419 -119.621 -33.5744 -119.409C-29.7402 -117.195 -25.9607 -114.946 -22.8746 -111.685C-22.1194 -110.886 -21.4141 -110.073 -20.7362 -109.242C-14.2095 -101.198 -11.0109 -91.6201 -6.19769 -82.6136C-1.82235 -74.3416 3.5635 -67.5564 10.3442 -61.9432C13.0861 -59.6672 16.0468 -57.5945 19.2725 -55.7321C20.9773 -54.7479 22.7667 -53.8078 24.6453 -52.9344C26.119 -52.2525 27.5925 -51.5117 29.0747 -50.6982C29.6651 -50.3742 30.2544 -50.0339 30.8438 -49.6936C42.2131 -43.1296 52.907 -33.2882 57.131 -21.4025C61.1634 -10.0923 67.8858 -5.25624 75.5176 -0.385294C79.8023 2.35044 84.3711 5.10651 88.8729 9.03226C95.5302 14.8447 95.854 21.4113 97.9538 30.5073C100.657 42.1148 105.386 52.6276 113.932 61.1696C114.653 61.8817 115.407 62.5958 116.198 63.2891C117.819 64.7404 119.598 66.0209 121.524 67.1332C129.7 71.8532 140.248 73.5748 150.958 73.2177C162.858 72.7878 174.847 69.9076 184.048 65.6798L184.59 65.2665C175.342 69.6357 163.1 72.6318 150.95 73.0697C140.264 73.4151 129.732 71.6945 121.601 67.0001C119.687 65.8952 117.911 64.6247 116.29 63.1734C115.509 62.4773 114.758 61.7733 114.038 61.0448C105.515 52.5501 100.804 42.0646 98.1001 30.4735C96.0093 21.3911 95.6757 14.7681 88.9714 8.92014C84.4479 4.97342 79.8792 2.21737 75.5881 -0.522024C67.97 -5.40199 61.2836 -10.1834 57.2756 -21.4627C53.0182 -33.393 42.2963 -43.259 30.9143 -49.8304C30.325 -50.1707 29.7292 -50.5146 29.1352 -50.8322C27.6593 -51.6421 26.1695 -52.3839 24.6968 -53.0821C22.8208 -53.9455 21.0505 -54.8747 19.3457 -55.8589C16.1327 -57.714 13.1847 -59.7793 10.4427 -62.0553C3.67104 -67.6549 -1.69944 -74.4228 -6.07578 -82.6785C-10.8763 -91.6776 -14.0649 -101.259 -20.6159 -109.333C-21.3002 -110.168 -22.0019 -110.987 -22.7544 -111.776C-25.8649 -115.068 -29.6607 -117.318 -33.5012 -119.536C-33.8687 -119.748 -34.2327 -119.967 -34.6002 -120.179C-37.0972 -121.62 -39.5604 -123.076 -41.8327 -124.819C-43.5596 -126.146 -45.0628 -127.538 -46.3979 -129.001C-47.9144 -130.663 -49.2091 -132.416 -50.3717 -134.295C-52.2057 -137.221 -53.7045 -140.436 -55.2066 -143.923C-55.6953 -145.067 -56.1403 -146.228 -56.599 -147.38C-56.132 -146.257 -55.6587 -145.13 -55.1744 -144.022C-53.6213 -140.565 -52.0326 -137.375 -50.1476 -134.478C-48.9414 -132.616 -47.6167 -130.871 -46.0708 -129.26C-44.6939 -127.84 -43.166 -126.476 -41.4055 -125.164C-39.6007 -123.826 -37.6717 -122.645 -35.7134 -121.514C-34.3382 -120.72 -32.9557 -119.939 -31.5868 -119.149C-28.19 -117.188 -24.908 -115.115 -22.1477 -112.271C-21.3851 -111.484 -20.6662 -110.681 -19.9819 -109.846C-13.3287 -101.89 -9.92501 -92.5057 -4.95938 -83.6901C-0.42063 -75.6279 5.0094 -68.9777 11.8545 -63.3442C14.7221 -60.9788 17.7859 -58.8212 21.1511 -56.8783C22.7481 -55.9563 24.3971 -55.0803 26.1579 -54.2665C27.6207 -53.5656 29.1005 -52.8211 30.5864 -52.0139C31.2338 -51.657 31.8839 -51.2901 32.5366 -50.9133C43.8996 -44.3529 54.6218 -34.7655 59.0125 -23.1977C63.2065 -12.1236 69.9948 -7.40165 77.6968 -2.60845C82.0235 0.0838952 86.6105 2.80827 91.1533 6.70698C97.8445 12.446 98.3229 18.9498 100.548 27.9746C103.416 39.5166 108.232 50.0117 116.737 58.6234C117.474 59.3528 118.207 60.0722 118.985 60.7746C120.75 62.3854 122.702 63.791 124.812 65.0094C132.829 69.6379 143.009 71.5013 153.26 71.3527C164.896 71.1758 176.518 68.667 185.362 64.7063L186.118 64.1287C177.212 68.2988 165.246 70.964 153.246 71.1421C143.03 71.3026 132.887 69.4348 124.909 64.8283C122.811 63.6172 120.878 62.2226 119.122 60.6254C118.348 59.9167 117.6 59.2063 116.878 58.4679C108.402 49.9071 103.611 39.4431 100.735 27.9301C98.5272 18.9325 98.0374 12.3461 91.2711 6.54684C86.7257 2.63814 82.1259 -0.0935491 77.7956 -2.77956C70.1073 -7.58179 63.3887 -12.2635 59.1944 -23.2786C54.7713 -34.9074 44.021 -44.5194 32.6327 -51.0944C31.9736 -51.4749 31.3236 -51.8418 30.6725 -52.1923C29.1903 -53.0058 27.7141 -53.7567 26.235 -54.4586C24.4932 -55.2614 22.8379 -56.1411 21.2472 -57.0594C17.901 -58.9913 14.8309 -61.1526 11.9823 -63.507C5.16255 -69.1259 -0.256759 -75.7361 -4.78284 -83.7909C-9.73045 -92.5792 -13.1459 -101.987 -19.8234 -109.974C-20.515 -110.796 -21.243 -111.613 -21.9956 -112.403C-24.7802 -115.278 -28.0875 -117.365 -31.478 -119.323C-32.8469 -120.113 -34.2331 -120.888 -35.6083 -121.682C-37.5602 -122.809 -39.4792 -123.993 -41.2841 -125.33C-43.0255 -126.632 -44.5571 -127.989 -45.9214 -129.402C-47.4482 -131.002 -48.7639 -132.733 -49.9674 -134.586C-51.8461 -137.479 -53.4358 -140.652 -54.9662 -144.105C-55.1028 -144.395 -55.2185 -144.707 -55.3516 -145.003C-55.2239 -144.727 -55.1062 -144.448 -54.9749 -144.177C-53.3799 -140.764 -51.7439 -137.597 -49.7879 -134.735C-48.5534 -132.907 -47.1978 -131.187 -45.6126 -129.629C-44.2237 -128.244 -42.6476 -126.92 -40.8888 -125.635C-39.3262 -124.521 -37.6924 -123.502 -36.032 -122.543C-34.1371 -121.449 -32.2093 -120.412 -30.3144 -119.318C-27.1267 -117.478 -24.0495 -115.49 -21.4381 -112.842C-20.6646 -112.074 -19.9356 -111.273 -19.2404 -110.457C-12.4506 -102.591 -8.84279 -93.3849 -3.73008 -84.7802C0.964767 -76.9152 6.4626 -70.4117 13.362 -64.7553C16.3428 -62.3076 19.5387 -60.0569 23.0306 -58.0409C24.5135 -57.1847 26.0448 -56.3682 27.6606 -55.5959C29.126 -54.885 30.6122 -54.1368 32.0944 -53.3233C32.8179 -52.9225 33.5376 -52.5154 34.2538 -52.1019C45.604 -45.5489 56.3293 -36.2302 60.8902 -24.9865C65.257 -14.1676 72.1265 -9.54243 79.8761 -4.83162C84.241 -2.1763 88.8527 0.520042 93.4284 4.3617C100.146 10.04 100.766 16.49 103.116 25.4437C106.116 36.9182 111.076 47.4121 119.552 56.0745C120.262 56.8056 121.015 57.536 121.776 58.2374C123.696 60.005 125.811 61.5384 128.092 62.8556C135.957 67.3963 145.741 69.4031 155.551 69.4477C166.953 69.5157 178.208 67.3783 186.695 63.6847L187.715 62.9132C179.155 66.8942 167.437 69.2628 155.55 69.1854C145.784 69.1237 136.045 67.1262 128.225 62.6111C125.963 61.3049 123.851 59.7815 121.963 58.0322C121.195 57.3271 120.454 56.6204 119.738 55.8693C111.302 47.2552 106.369 36.8022 103.367 25.3604C101.027 16.4467 100.404 9.90142 93.5955 4.14552C88.9981 0.282883 84.3637 -2.41811 80.0114 -5.06611C72.2555 -9.78059 65.4874 -14.3472 61.1331 -25.0998C56.5381 -36.4307 45.7711 -45.7651 34.3828 -52.3401C33.6604 -52.7572 32.9469 -53.1606 32.2171 -53.5651C30.7312 -54.3723 29.2388 -55.1241 27.767 -55.8387C26.1638 -56.6037 24.6389 -57.4165 23.156 -58.2727C19.6767 -60.2814 16.5035 -62.5275 13.5227 -64.9751C6.65136 -70.607 1.1679 -77.0767 -3.5016 -84.9271C-8.61261 -93.5055 -12.2258 -102.732 -19.0426 -110.639C-19.7379 -111.454 -20.4768 -112.253 -21.2557 -113.04C-23.8961 -115.697 -26.9823 -117.699 -30.1827 -119.546C-32.0776 -120.64 -34.0017 -121.684 -35.8966 -122.778C-37.557 -123.736 -39.1854 -124.736 -40.728 -125.854C-42.4915 -127.118 -44.0513 -128.441 -45.4339 -129.822C-47.0027 -131.378 -48.3376 -133.062 -49.5821 -134.887C-51.1511 -137.204 -52.5148 -139.774 -53.8279 -142.476C-52.4692 -139.824 -51.0635 -137.297 -49.4499 -135.014C-48.1781 -133.206 -46.7905 -131.526 -45.1835 -130.007C-43.7589 -128.669 -42.1754 -127.358 -40.3747 -126.115C-39.051 -125.173 -37.6624 -124.33 -36.2491 -123.514C-33.9106 -122.163 -31.5109 -120.905 -29.1788 -119.558C-26.1558 -117.813 -23.2534 -115.918 -20.7465 -113.439C-19.9666 -112.668 -19.2177 -111.872 -18.4988 -111.068C-11.6088 -103.288 -7.79224 -94.2825 -2.50077 -85.8702C2.32651 -78.1907 7.8968 -71.8567 14.8569 -66.1737C17.9535 -63.6338 21.2551 -61.2883 24.8864 -59.1917C26.249 -58.405 27.6615 -57.6318 29.1506 -56.9326C30.6187 -56.2117 32.0939 -55.4445 33.5898 -54.64C34.3893 -54.1953 35.1851 -53.7443 35.9773 -53.2869C47.3149 -46.7412 58.0378 -37.7111 62.7453 -26.78C67.3011 -16.2153 74.2155 -11.6825 82.0289 -7.05308C86.4368 -4.45749 91.0831 -1.79185 95.6835 2.02179C102.441 7.63042 103.212 14.0238 105.676 22.8991C108.84 34.3081 113.9 44.7752 122.329 53.5036C123.055 54.2521 123.795 54.9751 124.552 55.6992C126.629 57.6336 128.937 59.3294 131.415 60.76C139.108 65.2019 148.481 67.2923 157.828 67.5517C168.964 67.8464 179.857 66.0741 188.012 62.6622L189.132 61.8049C180.934 65.5552 169.514 67.5384 157.838 67.2277C148.533 66.9676 139.209 64.8802 131.579 60.4749C129.114 59.0515 126.828 57.3767 124.782 55.4606C124.012 54.7455 123.282 54.0198 122.569 53.2787C114.173 44.5948 109.156 34.1697 105.986 22.8161C103.523 13.9671 102.744 7.4584 95.8825 1.7649C91.2668 -2.06606 86.6015 -4.74268 82.1936 -7.33827C74.3738 -11.9713 67.5498 -16.4266 63.0418 -26.913C58.2812 -37.9424 47.4985 -47.0154 36.1356 -53.5758C35.3371 -54.0368 34.5476 -54.4842 33.7418 -54.9325C32.2459 -55.737 30.768 -56.5142 29.2862 -57.2261C27.8145 -57.9406 26.3973 -58.6912 25.0411 -59.4742C21.4224 -61.5634 18.1398 -63.8981 15.0559 -66.4306C8.11751 -72.0926 2.57158 -78.3957 -2.24401 -86.0515C-7.50843 -94.4228 -11.3367 -103.452 -18.2718 -111.301C-18.9843 -112.101 -19.7296 -112.903 -20.5322 -113.679C-23.0707 -116.175 -25.9912 -118.098 -29.0268 -119.851C-31.378 -121.208 -33.765 -122.46 -36.0972 -123.806C-37.5104 -124.622 -38.8863 -125.459 -40.2074 -126.39C-41.9891 -127.622 -43.5736 -128.917 -44.9818 -130.254C-46.5635 -131.759 -47.9294 -133.417 -49.2058 -135.202C-50.2205 -136.65 -51.1586 -138.172 -52.0591 -139.773C-51.1366 -138.21 -50.1649 -136.702 -49.1219 -135.289C-47.8055 -133.515 -46.406 -131.87 -44.7606 -130.388C-43.3214 -129.076 -41.7014 -127.828 -39.8806 -126.59C-38.7594 -125.825 -37.5863 -125.105 -36.3949 -124.417C-33.6951 -122.859 -30.8796 -121.427 -28.1608 -119.858C-25.2646 -118.186 -22.4936 -116.341 -20.0586 -114.031C-19.2751 -113.266 -18.5052 -112.492 -17.7826 -111.694C-10.7424 -104.013 -6.73903 -95.17 -1.28781 -86.9613C3.68288 -79.4863 9.321 -73.299 16.3228 -67.6004C19.5551 -64.9737 22.9625 -62.5332 26.7333 -60.3562C27.9818 -59.6354 29.2702 -58.9253 30.6406 -58.2693C32.0987 -57.5458 33.5866 -56.7712 35.0951 -55.9594C35.9843 -55.4798 36.8652 -54.9713 37.7588 -54.4553C49.0457 -47.9389 59.767 -39.1548 64.6204 -28.5788C69.3252 -18.2576 76.3054 -13.8389 84.1892 -9.28722C84.8546 -8.90303 85.5137 -8.52251 86.1918 -8.131C90.0259 -5.91737 93.9972 -3.53158 97.9622 -0.329817C104.737 5.22079 105.662 11.5514 108.255 20.3491C111.581 31.6826 116.739 42.1556 125.148 50.9484C125.864 51.6995 126.593 52.4416 127.356 53.1693C129.588 55.3032 132.093 57.1551 134.806 58.7211C142.284 63.0386 151.234 65.2314 160.119 65.6631C171.007 66.1954 181.554 64.7891 189.365 61.6353L190.544 60.7356C182.711 64.2488 171.615 65.845 160.149 65.2748C151.31 64.836 142.412 62.6561 135.003 58.3789C132.323 56.8312 129.839 55.0002 127.612 52.8863C126.866 52.1596 126.123 51.4265 125.416 50.6891C117.079 41.9465 111.934 31.5398 108.618 20.2464C106.05 11.4796 105.097 5.00635 98.1995 -0.623764C94.2192 -3.84284 90.2162 -6.24692 86.3884 -8.4569C85.7166 -8.84474 85.0612 -9.2316 84.4021 -9.61212C76.522 -14.1701 69.6485 -18.5103 64.9705 -28.7316C60.066 -39.4385 49.2803 -48.2428 37.9617 -54.7776C37.0681 -55.2935 36.1773 -55.7994 35.2827 -56.299C33.7768 -57.1008 32.3026 -57.8843 30.8218 -58.6125C29.4741 -59.2639 28.1847 -59.9576 26.9426 -60.6748C23.2035 -62.8335 19.8061 -65.2767 16.5964 -67.8987C9.61267 -73.57 4.01159 -79.719 -0.94375 -87.1767C-6.37426 -95.3481 -10.3857 -104.221 -17.4782 -111.958C-18.2108 -112.753 -18.9671 -113.536 -19.7733 -114.305C-22.2453 -116.654 -25.0454 -118.507 -27.9479 -120.183C-30.673 -121.756 -33.4886 -123.187 -36.1819 -124.742C-37.3734 -125.43 -38.5275 -126.139 -39.6387 -126.907C-41.4441 -128.127 -43.0478 -129.374 -44.478 -130.673C-46.0926 -132.12 -47.4832 -133.751 -48.7842 -135.508C-49.3661 -136.3 -49.8814 -137.164 -50.4214 -138C-49.8705 -137.183 -49.3351 -136.325 -48.7486 -135.555C-47.4012 -133.805 -45.9507 -132.191 -44.2987 -130.764C-42.814 -129.501 -41.1766 -128.268 -39.3412 -127.056C-38.4552 -126.469 -37.5256 -125.898 -36.5877 -125.357C-33.476 -123.56 -30.1892 -121.95 -27.0522 -120.139C-24.2955 -118.547 -21.6592 -116.805 -19.3307 -114.633C-18.5245 -113.863 -17.7573 -113.099 -17.021 -112.311C-9.8443 -104.72 -5.65315 -96.0556 -0.0258499 -88.0494C5.08461 -80.7726 10.7842 -74.7357 17.864 -69.0258C21.2021 -66.3043 24.718 -63.7589 28.6281 -61.5014C29.7562 -60.8501 30.9306 -60.2059 32.1532 -59.6014C33.6204 -58.8642 35.1046 -58.0833 36.6168 -57.2778C37.6101 -56.7297 38.6087 -56.1616 39.6037 -55.5872C50.8499 -49.1026 61.5235 -40.6165 66.4982 -30.3676C70.9593 -21.1758 77.2226 -16.7738 84.3331 -12.6686C84.9985 -12.2844 85.683 -11.8892 86.3784 -11.5131C87.6722 -10.783 88.9787 -10.0456 90.3032 -9.28087C93.567 -7.39654 96.897 -5.30496 100.23 -2.66242C107.058 2.80946 108.114 9.08888 110.829 17.8219C114.321 29.0734 119.601 39.5243 127.947 48.3985C128.659 49.1559 129.384 49.9044 130.147 50.6321C132.573 52.9874 135.307 55.0137 138.254 56.7151C145.497 60.8972 154.004 63.1552 162.419 63.7718C173.053 64.5543 183.23 63.5095 190.701 60.6237L191.925 59.6907C184.464 62.9541 173.693 64.1633 162.452 63.3344C154.098 62.7281 145.648 60.4604 138.487 56.3258C135.572 54.6427 132.862 52.6474 130.471 50.3204C129.712 49.5863 128.989 48.8479 128.283 48.0941C119.993 39.2855 114.741 28.9019 111.266 17.694C108.578 9.01833 107.476 2.56898 100.52 -3.01875C97.1655 -5.68227 93.8128 -7.77849 90.5364 -9.67013C89.2119 -10.4348 87.9054 -11.1722 86.6116 -11.9023C85.9135 -12.2885 85.2291 -12.6836 84.57 -13.0641C77.4911 -17.1511 71.3282 -21.4782 66.9066 -30.5628C61.8581 -40.9472 51.1174 -49.4636 39.8442 -55.9891C38.8365 -56.5709 37.8369 -57.1226 36.8373 -57.6744C35.3351 -58.4826 33.8446 -59.2671 32.3674 -60.0016C31.1511 -60.6025 29.9957 -61.2357 28.8677 -61.887C24.9892 -64.1262 21.4823 -66.6579 18.1569 -69.3721C11.1088 -75.0637 5.44624 -81.0623 0.357484 -88.3182C-5.24277 -96.2834 -9.45197 -104.975 -16.6811 -112.622C-17.4173 -113.41 -18.1872 -114.184 -19.0034 -114.951C-21.3716 -117.172 -24.0333 -118.928 -26.809 -120.531C-29.9714 -122.357 -33.2455 -123.96 -36.3445 -125.749C-37.2824 -126.29 -38.1867 -126.846 -39.0763 -127.427C-40.9 -128.615 -42.5311 -129.844 -43.9768 -131.102C-45.532 -132.447 -46.8904 -133.958 -48.163 -135.589C-46.8414 -133.955 -45.4304 -132.448 -43.8305 -131.135C-42.3375 -129.902 -40.6681 -128.71 -38.8045 -127.532C-38.1257 -127.098 -37.4395 -126.677 -36.7297 -126.267C-33.2442 -124.254 -29.5369 -122.494 -26.026 -120.467C-23.3833 -118.942 -20.8574 -117.272 -18.6074 -115.212C-17.7866 -114.468 -17.0167 -113.694 -16.2731 -112.918C-8.98716 -105.399 -4.5636 -96.9475 1.22979 -89.1412C6.47999 -82.0625 12.2574 -76.1751 19.3716 -70.4369C22.8364 -67.6422 26.4471 -64.9829 30.4904 -62.6486C31.5107 -62.0595 32.5673 -61.4748 33.6722 -60.9298C35.1331 -60.1963 36.6226 -59.3954 38.1312 -58.5836C39.2675 -57.9613 40.4192 -57.3217 41.5473 -56.6704C52.6948 -50.2344 63.287 -42.0319 68.3923 -32.1555C72.7044 -23.7594 78.5479 -19.4646 85.1515 -15.652C86.2669 -15.0081 87.4023 -14.3695 88.5803 -13.7316C90.241 -12.832 91.926 -11.9014 93.6371 -10.9135C96.5776 -9.21572 99.5627 -7.33171 102.538 -5.00573C109.389 0.411788 110.612 6.63568 113.434 15.2865C117.08 26.4753 122.486 36.9139 130.775 45.8569C131.483 46.6207 132.212 47.3628 132.964 48.1095C135.588 50.7062 138.573 52.9279 141.773 54.7756C148.757 58.8077 156.805 61.1136 164.726 61.8841C175.084 62.896 184.887 62.2353 192.027 59.6312L210.295 45.7417L210.202 45.5952C210.263 45.6218 210.314 45.651 210.375 45.6776L211.385 44.9088C211.385 44.9088 211.267 44.7313 211.292 44.6442C211.195 44.622 211.003 44.5449 210.756 44.4022C208.67 43.2148 203.742 38.4766 197.164 34.282C189.53 29.4011 180.658 21.3804 172.963 11.8764C172.286 11.0293 171.615 10.1858 170.955 9.33963C163.275 -0.409341 156.51 -10.6017 150.606 -20.7195C146.211 -28.2255 142.68 -34.0667 135.028 -38.7716C134.563 -39.0487 134.117 -39.3148 133.667 -39.5746C128.92 -42.3151 124.133 -44.2679 119.491 -45.976C113.212 -48.2577 107.388 -50.3022 102.058 -53.3794C99.8017 -54.6819 97.6327 -56.1793 95.553 -57.963C92.6892 -60.3938 89.3498 -62.6007 85.6867 -64.7155C77.9298 -69.194 68.7514 -73.2595 59.8241 -78.0672C58.9883 -78.5075 58.1888 -78.9522 57.4029 -79.4059C56.6868 -79.8194 55.9907 -80.2382 55.3072 -80.6497C50.1074 -83.7616 45.8703 -87.6191 41.1593 -91.2262C33.2731 -97.2665 26.426 -101.008 19.3379 -105.27C16.5787 -106.93 13.9437 -108.747 11.3079 -110.607C13.8545 -108.9 16.3877 -107.243 19.043 -105.71C19.3219 -105.549 19.6134 -105.381 19.9403 -105.201C22.8067 -103.58 25.6318 -102.033 28.4899 -100.383C32.7804 -97.9059 37.1387 -95.1952 41.8698 -91.5934C46.5438 -88.0245 50.795 -84.0745 56.1259 -80.853C56.8818 -80.3913 57.6603 -79.9249 58.4588 -79.4639C59.1876 -79.0431 59.9354 -78.6113 60.7205 -78.2003C70.48 -72.9459 80.5145 -68.7241 88.6354 -64.0271C91.557 -62.3404 94.2449 -60.5857 96.5884 -58.7172C98.4434 -57.2322 100.359 -55.9402 102.33 -54.8023C108.18 -51.4251 114.506 -49.3275 121.225 -46.944C126.008 -45.2471 130.889 -43.2821 135.7 -40.505C135.991 -40.3367 136.298 -40.151 136.627 -39.9608C144.021 -35.4975 147.531 -30.015 152.051 -22.5638C158.154 -12.4833 165.009 -2.21332 172.713 7.62562C173.384 8.46911 174.051 9.31893 174.731 10.1761C182.439 19.8907 191.187 28.2285 198.716 33.4965C205.33 38.126 209.757 43.3521 211.661 44.7221L212.589 44.0074C212.589 44.0074 212.648 43.7453 212.62 43.7207C211.428 43.0918 206.484 37.2544 199.515 32.3773C192.121 27.1961 183.443 18.9412 175.814 9.32317C175.141 8.46968 174.458 7.61888 173.797 6.77271C166.136 -3.00797 159.326 -13.226 153.228 -23.2701C148.731 -30.7167 145.026 -36.506 137.328 -41.1449C137.011 -41.3278 136.702 -41.5234 136.397 -41.6991C131.486 -44.5347 126.511 -46.5283 121.686 -48.2408C114.951 -50.6253 108.712 -52.698 103.021 -55.9837C101.1 -57.0924 99.248 -58.3478 97.4554 -59.7799C95.0305 -61.7122 92.3055 -63.5052 89.3333 -65.2212C81.091 -69.9714 71.0728 -74.1922 61.3704 -79.4137C60.6016 -79.8238 59.8691 -80.2382 59.1467 -80.6553C58.3608 -81.109 57.595 -81.5681 56.8518 -82.0225C51.6567 -85.1571 47.4489 -89.0652 42.7061 -92.6907C37.918 -96.3254 33.5163 -99.078 29.1878 -101.577C26.317 -103.235 23.4883 -104.775 20.6091 -106.403C20.3076 -106.569 20.0288 -106.73 19.7373 -106.898C17.9121 -107.952 16.1525 -109.061 14.3949 -110.202C15.4983 -109.523 16.5908 -108.825 17.7125 -108.177C18.8342 -107.529 19.9949 -106.876 21.1913 -106.27C25.0272 -104.25 28.7392 -102.351 32.5544 -100.149C36.0336 -98.1401 39.5761 -95.8751 43.3674 -93.0018C48.0551 -89.4419 52.2806 -85.4475 57.6149 -82.1734C58.4215 -81.6824 59.2497 -81.1704 60.1116 -80.6728C60.7834 -80.2849 61.4778 -79.8925 62.2222 -79.5134C72.7758 -73.8343 83.6341 -69.5172 92.1986 -64.564C94.4674 -63.2541 96.5799 -61.9077 98.4932 -60.4651C100.011 -59.3183 101.582 -58.2929 103.179 -57.3708C109.434 -53.7595 116.212 -51.6381 123.406 -49.1571C128.367 -47.4595 133.426 -45.451 138.395 -42.5824L138.908 -42.286C146.335 -37.8798 150.011 -32.4365 154.632 -25.0874C160.906 -15.0688 167.847 -4.8166 175.525 5.08304C176.178 5.94189 176.841 6.79806 177.527 7.65887C185.192 17.4495 193.709 26.0259 200.969 31.5859C207.46 36.5589 211.436 42.2005 212.925 43.762L213.819 43.078C213.819 43.078 214.038 42.9174 214.017 42.8964C213.57 42.5286 208.806 35.7643 201.847 30.4453C194.716 24.9847 186.254 16.474 178.653 6.76255C177.977 5.89908 177.308 5.03926 176.653 4.19674C169.016 -5.65462 162.111 -15.8685 155.852 -25.8535C151.234 -33.2089 147.376 -38.9517 139.639 -43.5372C139.458 -43.6333 139.296 -43.7348 139.125 -43.8336C134.036 -46.7717 128.88 -48.8024 123.882 -50.522C116.664 -53.0075 109.988 -55.1131 103.916 -58.6183C102.357 -59.5184 100.85 -60.5072 99.3661 -61.6257C97.3921 -63.095 95.2299 -64.487 92.9294 -65.8151C84.2282 -70.8388 73.3762 -75.1523 62.9113 -80.7801C62.1996 -81.1573 61.5115 -81.5461 60.8461 -81.9303C60.0095 -82.4132 59.184 -82.9152 58.3811 -83.4126C53.2079 -86.5852 49.0157 -90.535 44.2439 -94.1688C40.4056 -97.0777 36.7961 -99.3729 33.2788 -101.404C29.4257 -103.628 25.6873 -105.525 21.865 -107.554C20.694 -108.146 19.556 -108.794 18.4406 -109.438C18.1301 -109.617 17.8305 -109.816 17.5137 -109.999C19.1343 -109.088 20.7523 -108.188 22.4432 -107.355C26.882 -105.164 31.1408 -103.145 35.52 -100.617C38.5493 -98.8677 41.6265 -96.8798 44.8759 -94.4292C49.5763 -90.862 53.7989 -86.8186 59.1286 -83.5218C59.9785 -82.9888 60.8511 -82.4512 61.7574 -81.928C62.3911 -81.5621 63.0412 -81.1953 63.7339 -80.8291C75.0526 -74.7336 86.7386 -70.3865 95.7187 -65.2018C97.36 -64.2542 98.9268 -63.2651 100.38 -62.2402C101.566 -61.4117 102.782 -60.6339 103.999 -59.9314C110.665 -56.0822 117.911 -53.9523 125.589 -51.3866C130.752 -49.6736 136.005 -47.6206 141.17 -44.6386C148.646 -40.2885 152.47 -34.8953 157.207 -27.6147C163.646 -17.6779 170.711 -7.46422 178.299 2.5022C178.962 3.3747 179.628 4.24084 180.294 5.107C187.905 15.0191 196.222 23.8097 203.202 29.6643C206.679 32.5844 209.446 35.9142 211.32 38.5085C212.258 39.8107 212.974 40.9257 213.448 41.7148C213.686 42.1225 213.861 42.4346 213.972 42.6511C214.024 42.7231 214.053 42.7904 214.074 42.8703L215.28 41.9526C214.355 40.1595 210.502 33.8794 204.162 28.5286C197.284 22.7751 189.014 14.0201 181.469 4.19731C180.801 3.32117 180.141 2.45867 179.481 1.59616C171.927 -8.32562 164.877 -18.522 158.446 -28.4288C153.729 -35.7148 149.697 -41.4057 141.914 -45.9415C136.635 -48.9893 131.259 -51.0791 126.055 -52.8078C118.338 -55.3791 111.2 -57.5058 104.736 -61.2379C103.551 -61.9221 102.382 -62.6643 101.228 -63.4745C99.7276 -64.535 98.1355 -65.5387 96.4497 -66.512C87.3075 -71.7818 75.6379 -76.1279 64.4169 -82.1585C63.7532 -82.5164 63.1222 -82.8723 62.4884 -83.2382C61.6012 -83.7504 60.7376 -84.2744 59.894 -84.8036C54.7318 -87.9953 50.5652 -91.9895 45.7644 -95.6315C42.4553 -98.1251 39.321 -100.146 36.2537 -101.917C31.8049 -104.485 27.518 -106.529 23.0946 -108.703C22.9579 -108.774 22.8284 -108.857 22.6944 -108.917C23.0322 -108.756 23.3591 -108.576 23.7042 -108.427C28.5893 -106.19 33.2646 -104.116 38.09 -101.321C40.7644 -99.7773 43.5004 -98.0034 46.3645 -95.8512C51.0948 -92.2921 55.2718 -88.1989 60.6059 -84.8658C61.5002 -84.3073 62.4198 -83.7341 63.3768 -83.1816C63.9725 -82.8376 64.5809 -82.4864 65.2329 -82.1522C77.3177 -75.6566 89.828 -71.3322 99.1719 -65.929C100.237 -65.3143 101.277 -64.6715 102.277 -64.0181C103.08 -63.4781 103.915 -62.9624 104.751 -62.4795C111.853 -58.3878 119.577 -56.2522 127.769 -53.6098C132.977 -51.9465 138.271 -49.9206 143.442 -46.9776C143.471 -46.9693 143.53 -46.9263 143.613 -46.8788C151.021 -42.6015 154.967 -37.2732 159.777 -30.1356C166.386 -20.287 173.54 -10.0811 181.092 -0.0513427C181.741 0.81383 182.41 1.68998 183.066 2.55882C190.632 12.5632 198.742 21.5971 205.451 27.7438C208.702 30.719 211.235 34.1758 212.896 36.9344C213.731 38.3123 214.35 39.5232 214.73 40.4017C214.924 40.8428 215.053 41.2046 215.108 41.4308C215.135 41.5308 215.143 41.6035 215.163 41.6571C215.163 41.6571 215.612 41.6119 215.7 41.6204L215.331 41.2639L215.703 41.6141L216.576 40.9518C216.532 40.8082 216.504 40.6819 216.458 40.5119C216.458 40.5119 216.851 40.7388 216.855 40.7324L216.597 40.2121L216.858 40.7261L217.854 39.9826C217.842 39.9 217.856 39.832 217.844 39.7656L217.939 39.9222L251.698 14.2484C253.672 11.8982 255.529 9.2524 257.197 6.36255C262.643 -3.08383 266.377 -14.4394 267.073 -22.4955C268.36 -38.0272 263.922 -54.6074 256.38 -68.02C248.334 -82.1547 236.121 -94.1068 221.849 -102.347C210.474 -108.914 197.768 -113.149 184.839 -114.217ZM164.725 61.4021C156.874 60.6292 148.884 58.3399 141.976 54.3517C138.801 52.5186 135.863 50.3326 133.28 47.7678C132.524 47.0274 131.796 46.269 131.099 45.5289C122.859 36.6478 117.491 26.2901 113.856 15.1414C111.054 6.54417 109.795 0.147648 102.796 -5.38035C99.7996 -7.72732 96.7928 -9.63229 93.8459 -11.3337C92.1348 -12.3216 90.4434 -13.2558 88.7828 -14.1555C87.6084 -14.7997 86.472 -15.422 85.3567 -16.0659C78.7721 -19.8675 73.058 -24.0792 68.7917 -32.3643C63.6073 -42.3962 52.9443 -50.6227 41.7524 -57.0843C40.6244 -57.7356 39.47 -58.3852 38.331 -59.0175C36.8187 -59.823 35.3292 -60.6238 33.8594 -61.371C32.7608 -61.9123 31.7231 -62.486 30.7028 -63.0751C26.6913 -65.3912 23.1023 -68.0294 19.6501 -70.8169C12.564 -76.5304 6.82092 -82.3896 1.59776 -89.4273C-4.16858 -97.1927 -8.60018 -105.675 -15.9376 -113.265C-16.6974 -114.042 -17.48 -114.824 -18.2935 -115.58C-20.5779 -117.668 -23.1482 -119.363 -25.8035 -120.897C-29.3398 -122.938 -33.047 -124.698 -36.5073 -126.696C-37.198 -127.095 -37.8942 -127.514 -38.5766 -127.942C-40.4113 -129.111 -42.058 -130.298 -43.5393 -131.508C-44.4682 -132.256 -45.3131 -133.09 -46.1235 -133.955C-45.2678 -133.081 -44.3738 -132.243 -43.4096 -131.484C-41.8836 -130.307 -40.1997 -129.141 -38.315 -127.985C-37.8661 -127.709 -37.3944 -127.428 -36.9255 -127.157C-33.085 -124.94 -28.9299 -123.048 -25.0451 -120.805C-22.5102 -119.342 -20.0957 -117.728 -17.9305 -115.785C-17.0996 -115.043 -16.3188 -114.288 -15.5579 -113.528C-8.14171 -106.103 -3.53769 -97.8171 2.43178 -90.2133C7.82807 -83.3291 13.6706 -77.5983 20.8428 -71.8436C24.4234 -68.9567 28.1435 -66.2089 32.3199 -63.7977C33.2325 -63.2708 34.1714 -62.7456 35.1486 -62.2575C36.6084 -61.5076 38.1016 -60.7131 39.6129 -59.8913C40.9076 -59.1776 42.2214 -58.4528 43.5143 -57.7064C54.5603 -51.329 65.0169 -43.4329 70.23 -33.9336C74.4508 -26.1987 79.9671 -22.0252 86.1905 -18.4321C87.6607 -17.5833 89.172 -16.7615 90.7195 -15.944C92.689 -14.8914 94.6975 -13.8332 96.7318 -12.6587C99.3872 -11.1256 102.077 -9.40363 104.756 -7.34126C111.655 -1.9898 113.018 4.18025 115.959 12.7563C119.761 23.8659 125.239 34.3121 133.528 43.2977C134.239 44.0715 134.955 44.8226 135.713 45.573C138.574 48.4331 141.812 50.8601 145.31 52.8798C151.989 56.7363 159.564 59.0728 166.963 59.9989C176.73 61.2014 185.903 60.9881 192.643 58.8715C185.576 61.6865 175.439 62.4419 164.729 61.3958L164.725 61.4021ZM167.026 59.4518C159.68 58.5487 152.181 56.2297 145.577 52.4172C142.117 50.4194 138.921 48.008 136.103 45.1899C135.354 44.4531 134.629 43.6884 133.934 42.9319C125.712 34.0192 120.269 23.6439 116.477 12.5907C113.563 4.07194 112.139 -2.3017 105.093 -7.76365C102.38 -9.8543 99.6733 -11.5773 96.9989 -13.1214C94.952 -14.3032 92.9344 -15.375 90.9713 -16.424C89.4201 -17.2351 87.9252 -18.0559 86.4612 -18.9011C80.2669 -22.4859 74.8763 -26.5699 70.714 -34.1865C65.4027 -43.8523 54.8591 -51.7733 43.775 -58.1727C42.4695 -58.9264 41.1694 -59.6602 39.8673 -60.3612C38.347 -61.1967 36.8565 -61.9812 35.3877 -62.7448C34.4131 -63.2229 33.4932 -63.7371 32.587 -64.2603C28.4487 -66.6496 24.7576 -69.389 21.186 -72.2623C14.0418 -77.9924 8.22362 -83.6922 2.8607 -90.5318C-3.06173 -98.0999 -7.67744 -106.409 -15.165 -113.901C-15.9286 -114.671 -16.7384 -115.435 -17.572 -116.186C-19.7842 -118.165 -22.2241 -119.793 -24.7844 -121.271C-28.7072 -123.536 -32.8523 -125.431 -36.661 -127.63C-37.13 -127.901 -37.5926 -128.168 -38.0416 -128.444C-39.9036 -129.595 -41.5722 -130.744 -43.0755 -131.916C-43.2013 -132.006 -43.2961 -132.12 -43.4182 -132.216C-43.2644 -132.101 -43.1352 -131.959 -42.9688 -131.838C-41.4208 -130.699 -39.7085 -129.567 -37.8093 -128.436C-37.6065 -128.319 -37.3947 -128.189 -37.1665 -128.057C-32.9585 -125.627 -28.3556 -123.604 -24.0689 -121.12C-21.6543 -119.726 -19.3403 -118.187 -17.2372 -116.356C-16.3927 -115.624 -15.5918 -114.874 -14.8146 -114.113C-7.2619 -106.778 -2.47279 -98.681 3.66545 -91.267C9.19882 -84.591 15.1129 -79.0133 22.3367 -73.2456C26.0331 -70.2665 29.829 -67.4159 34.1321 -64.9315C34.937 -64.4668 35.7681 -64.0038 36.6339 -63.5715C38.0964 -62.8117 39.5823 -62.0045 41.1072 -61.1917C42.6085 -60.3672 44.1251 -59.5254 45.6207 -58.6619C56.5147 -52.3722 66.7985 -44.8209 72.0932 -35.6971C76.2158 -28.568 81.4524 -24.5392 87.3335 -21.1437C89.1143 -20.1156 90.9697 -19.1288 92.8815 -18.1519C95.1101 -16.9919 97.3994 -15.8054 99.7125 -14.4699C102.14 -13.0685 104.583 -11.5055 107.027 -9.66386C113.952 -4.37309 115.473 1.74411 118.53 10.2354C122.509 21.2867 128.083 31.7125 136.326 40.7642C137.027 41.5406 137.745 42.3017 138.492 43.0711C141.588 46.2273 145.126 48.8952 148.916 51.0832C155.272 54.7531 162.338 57.0919 169.234 58.1156C178.344 59.4886 186.852 59.7107 193.191 58.0979C186.522 60.3991 177.098 60.6957 167.026 59.4518ZM169.319 57.5142C162.499 56.4917 155.507 54.1705 149.227 50.5446C145.475 48.3785 141.984 45.7461 138.938 42.6356C138.194 41.8762 137.468 41.1278 136.774 40.355C128.601 31.3862 123.056 21.0277 119.103 10.0337C116.069 1.58974 114.501 -4.74007 107.4 -10.1496C104.925 -12.0096 102.466 -13.5899 100.02 -15.0022C97.5736 -16.4145 95.4021 -17.5416 93.1634 -18.6988C91.2554 -19.6822 89.4253 -20.6542 87.6508 -21.6787C81.8078 -25.0522 76.687 -28.9889 72.6328 -36.0024C67.2326 -45.2801 56.86 -52.8826 45.928 -59.1942C44.4197 -60.065 42.9068 -60.9132 41.3956 -61.735C39.8743 -62.5541 38.3821 -63.365 36.9096 -64.1222C36.0501 -64.5508 35.238 -65.0028 34.4331 -65.4675C30.1744 -67.9263 26.4075 -70.7686 22.7165 -73.7277C15.5243 -79.4771 9.63828 -85.0301 4.13561 -91.6716C-1.96656 -99.0309 -6.77639 -107.165 -14.4005 -114.567C-15.1751 -115.318 -15.9913 -116.085 -16.8384 -116.828C-18.9822 -118.691 -21.3143 -120.257 -23.7606 -121.669C-28.0863 -124.158 -32.6992 -126.179 -36.8692 -128.587C-37.091 -128.715 -37.2865 -128.844 -37.4983 -128.975C-38.0496 -129.293 -38.5047 -129.632 -39.0197 -129.955C-38.4603 -129.607 -37.9073 -129.262 -37.3052 -128.914C-32.7676 -126.295 -27.7223 -124.159 -23.0834 -121.481C-20.7766 -120.149 -18.5602 -118.675 -16.5329 -116.947C-15.6911 -116.224 -14.8803 -115.477 -14.0794 -114.728C-6.40646 -107.484 -1.40957 -99.5712 4.89841 -92.3634C10.5752 -85.8919 16.5597 -80.451 23.828 -74.6576C27.6284 -71.61 31.5291 -68.6482 35.959 -66.0906C36.6561 -65.6881 37.3695 -65.2847 38.1303 -64.9046C39.5855 -64.132 41.0813 -63.3275 42.6052 -62.4984C44.3646 -61.5502 46.1347 -60.5621 47.8902 -59.5486C58.5624 -53.387 68.6135 -46.1644 73.9636 -37.4732C77.9916 -30.8974 82.9757 -27.0312 88.5336 -23.8223C90.6312 -22.6113 92.7965 -21.4879 95.057 -20.3687C97.5194 -19.116 100.045 -17.8268 102.599 -16.3522C104.817 -15.0716 107.055 -13.6357 109.287 -11.9838C116.256 -6.76906 117.921 -0.695695 121.101 7.7144C125.236 18.6866 130.911 29.1119 139.115 38.217C139.822 38.9971 140.537 39.7645 141.268 40.5329C144.629 44.0197 148.491 46.9596 152.611 49.3379C158.606 52.7992 165.149 55.1066 171.51 56.236C180.301 57.7963 188.414 58.3653 194.433 57.0578C188.14 59.0602 179.105 58.9901 169.329 57.5115L169.319 57.5142ZM171.626 55.5675C165.349 54.4531 158.876 52.1696 152.951 48.7485C148.876 46.3959 145.069 43.5052 141.754 40.0704C141.023 39.302 140.305 38.5409 139.614 37.7617C131.478 28.7296 125.838 18.3752 121.732 7.47031C118.571 -0.886142 116.841 -7.18308 109.691 -12.5366C107.425 -14.2168 105.167 -15.6473 102.929 -16.9389C100.356 -18.4244 97.818 -19.721 95.352 -20.9673C93.1014 -22.0892 90.9362 -23.2126 88.8638 -24.409C83.3566 -27.5886 78.4957 -31.3753 74.5288 -37.8229C69.0678 -46.6879 58.9233 -53.939 48.2231 -60.1253C46.4613 -61.1424 44.6976 -62.1269 42.9292 -63.0888C41.4016 -63.9116 39.9094 -64.7224 38.4315 -65.4996C37.6908 -65.885 36.9863 -66.2748 36.2956 -66.6736C31.9101 -69.2056 28.0501 -72.1355 24.2397 -75.1805C16.9968 -80.9592 11.0456 -86.3554 5.40588 -92.7887C-0.858717 -99.9545 -5.87364 -107.894 -13.6143 -115.211C-14.4052 -115.963 -15.2224 -116.714 -16.0896 -117.451C-18.1539 -119.218 -20.3992 -120.7 -22.7377 -122.05C-26.819 -124.407 -31.1481 -126.348 -35.1712 -128.527C-30.9097 -126.278 -26.3485 -124.27 -22.1025 -121.819C-19.8971 -120.545 -17.7748 -119.143 -15.836 -117.525C-14.9742 -116.807 -14.137 -116.062 -13.3452 -115.326C-5.53298 -108.162 -0.354651 -100.432 6.12941 -93.4272C11.936 -87.1511 18.002 -81.866 25.3156 -76.0634C29.2454 -72.9326 33.2082 -69.8588 37.7712 -67.2244C38.3732 -66.8768 38.9789 -66.5355 39.6283 -66.2113C41.0735 -65.4361 42.572 -64.6216 44.1059 -63.7951C46.2049 -62.6594 48.3082 -61.4873 50.3805 -60.2908C60.7611 -54.2976 70.4709 -47.4495 75.8304 -39.243C79.7591 -33.1977 84.507 -29.4932 89.7733 -26.4527C92.1435 -25.0843 94.6295 -23.8433 97.2216 -22.5665C99.9124 -21.2411 102.679 -19.8718 105.449 -18.2729C107.477 -17.102 109.517 -15.8059 111.555 -14.3164C118.55 -9.16236 120.379 -3.13818 123.659 5.18613C127.956 16.0828 133.726 26.504 141.903 35.6861C142.606 36.4725 143.315 37.2363 144.048 38.0147C147.689 41.8658 151.902 45.0923 156.382 47.6791C161.965 50.9026 167.961 53.1477 173.777 54.359C182.27 56.1277 190.012 57.0318 195.722 56.0106C189.787 57.7296 181.125 57.2917 171.622 55.5738L171.626 55.5675ZM173.939 53.6245C168.194 52.4371 162.275 50.2196 156.762 47.0364C152.338 44.4825 148.185 41.299 144.593 37.5098C143.856 36.7377 143.145 35.9639 142.46 35.1884C134.365 26.0866 128.618 15.7553 124.354 4.91965C121.09 -3.36102 119.19 -9.61243 111.998 -14.9225C109.924 -16.424 107.872 -17.7275 105.818 -18.9129C103.017 -20.5302 100.241 -21.9131 97.5468 -23.2322C94.9511 -24.5027 92.4914 -25.7453 90.1402 -27.1028C84.9245 -30.114 80.3024 -33.729 76.4422 -39.6587C70.9691 -48.0491 61.156 -54.923 50.7437 -60.9346C48.6587 -62.1383 46.5654 -63.3131 44.4565 -64.4462C42.9299 -65.2853 41.4277 -66.0935 39.9635 -66.8797C39.3268 -67.1966 38.7374 -67.5369 38.1417 -67.8808C33.6295 -70.4859 29.7037 -73.5214 25.7828 -76.6386C18.4693 -82.4412 12.4503 -87.6907 6.67712 -93.9221C0.239118 -100.875 -4.95991 -108.643 -12.8498 -115.877C-13.6517 -116.61 -14.4889 -117.355 -15.3634 -118.08C-17.3519 -119.743 -19.5058 -121.164 -21.7366 -122.452C-23.4921 -123.466 -25.2861 -124.383 -27.0974 -125.285C-25.075 -124.295 -23.0608 -123.276 -21.1216 -122.156C-19.0239 -120.945 -16.9994 -119.608 -15.1291 -118.105C-14.2509 -117.387 -13.4064 -116.654 -12.5999 -115.944C-4.66852 -108.855 0.713924 -101.303 7.36773 -94.5036C13.3204 -88.422 19.4489 -83.3036 26.8204 -77.4844C30.8444 -74.2824 34.8993 -71.1047 39.5827 -68.4008C40.077 -68.1154 40.5713 -67.83 41.1093 -67.5617C42.5661 -66.7628 44.0547 -65.9456 45.6013 -65.1119C48.0968 -63.7556 50.5967 -62.363 53.0556 -60.9433C63.0723 -55.1686 72.3762 -48.7154 77.6972 -41.0128C81.521 -35.459 86.031 -31.9426 91.0058 -29.0704C93.6675 -27.5336 96.468 -26.1787 99.3845 -24.7906C102.285 -23.4035 105.26 -21.9561 108.245 -20.2328C110.095 -19.1644 111.959 -17.987 113.817 -16.6527C120.848 -11.562 122.824 -5.58799 126.224 2.66153C130.681 13.499 136.562 23.8907 144.693 33.1225C145.385 33.928 146.099 34.7118 146.826 35.4865C150.793 39.7376 155.397 43.2826 160.264 46.0926C165.391 49.0526 170.797 51.1934 176.042 52.4557C184.264 54.4311 191.657 55.6748 197.052 54.9364C191.484 56.3857 183.165 55.588 173.923 53.6235L173.939 53.6245ZM176.242 51.6842C171.08 50.4531 165.733 48.3289 160.675 45.4091C155.878 42.6393 151.328 39.1336 147.426 34.9455C146.696 34.1608 145.995 33.3843 145.298 32.6015C137.241 23.4463 131.412 13.1265 126.973 2.35899C123.599 -5.83323 121.537 -12.0518 114.298 -17.2959C112.415 -18.6449 110.53 -19.8432 108.66 -20.9226C105.637 -22.6679 102.655 -24.1189 99.749 -25.5097C96.8225 -26.8951 94.0446 -28.2454 91.421 -29.7602C86.5095 -32.5958 82.1163 -36.0364 78.3673 -41.471C72.9128 -49.352 63.5255 -55.8365 53.4744 -61.6395C51.0091 -63.0628 48.4893 -64.45 45.9965 -65.7963C44.4635 -66.6391 42.9686 -67.4599 41.4944 -68.2435C40.9701 -68.5208 40.4885 -68.7989 39.9942 -69.0843C35.3515 -71.7563 31.3563 -74.891 27.316 -78.094C19.9444 -83.9132 13.854 -89.0097 7.94471 -95.0493C1.3433 -101.793 -4.06082 -109.366 -12.0736 -116.519C-12.8918 -117.253 -13.74 -117.979 -14.6308 -118.705C-16.5165 -120.224 -18.5347 -121.559 -20.616 -122.769C-20.4639 -122.681 -20.2982 -122.602 -20.1461 -122.514C-18.1435 -121.358 -16.2157 -120.101 -14.4268 -118.663C-13.5376 -117.964 -12.6922 -117.247 -11.8503 -116.525C-3.7804 -109.559 1.77517 -102.16 8.61407 -95.55C14.6938 -89.674 20.9001 -84.705 28.3134 -78.8701C32.4478 -75.5959 36.5558 -72.32 41.3532 -69.5502C41.7461 -69.3234 42.1644 -69.0819 42.6126 -68.8484C44.0632 -68.0532 45.5644 -67.2287 47.111 -66.3949C50.0891 -64.7769 53.079 -63.1353 56.0068 -61.4448C65.5546 -55.9409 74.343 -49.912 79.5793 -42.7653C83.2845 -37.694 87.573 -34.3647 92.2627 -31.6571C95.2095 -29.9557 98.3145 -28.4842 101.565 -26.9875C104.669 -25.5423 107.862 -24.0195 111.05 -22.1791C112.736 -21.2058 114.409 -20.1382 116.096 -18.9616C123.161 -13.928 125.291 -8.01683 128.804 0.154229C133.427 10.9098 139.433 21.2894 147.493 30.599C148.196 31.4018 148.902 32.1982 149.615 32.982C153.903 37.6883 158.931 41.5964 164.191 44.6333C168.836 47.3153 173.653 49.319 178.32 50.6024C186.278 52.7718 193.327 54.3489 198.419 53.9005C193.221 55.0737 185.239 53.9126 176.24 51.7168L176.242 51.6842ZM178.548 49.7538C173.965 48.4854 169.212 46.5182 164.623 43.8691C159.433 40.8725 154.474 37.021 150.258 32.3812C149.538 31.5938 148.827 30.8201 148.144 30.0282C140.155 20.7853 134.185 10.5029 129.595 -0.191697C126.099 -8.31911 123.879 -14.4848 116.597 -19.6692C114.885 -20.8604 113.187 -21.9426 111.482 -22.9269C108.25 -24.7929 105.043 -26.323 101.934 -27.7718C98.6829 -29.2685 95.6069 -30.7318 92.6917 -32.4149C88.0654 -35.0859 83.8864 -38.3267 80.276 -43.2841C74.8935 -50.6167 66.0144 -56.6641 56.4359 -62.2026C53.508 -63.8931 50.4992 -65.5457 47.5174 -67.1574C45.9708 -67.9912 44.4733 -68.822 43.0164 -69.6209C42.5871 -69.8434 42.1879 -70.0739 41.7886 -70.3044C37.0609 -73.0339 32.9809 -76.2852 28.8492 -79.5494C21.4332 -85.3942 15.255 -90.3386 9.21595 -96.1827C2.43847 -102.724 -3.14246 -110.137 -11.2928 -117.183C-12.1283 -117.902 -12.9891 -118.636 -13.8836 -119.355C-14.713 -120.011 -15.5844 -120.624 -16.4567 -121.221C-15.5174 -120.594 -14.599 -119.945 -13.7062 -119.252C-12.8134 -118.56 -11.9542 -117.852 -11.1014 -117.149C-2.87497 -110.278 2.84839 -103.053 9.8697 -96.6418C16.0729 -90.9649 22.3579 -86.1616 29.8219 -80.2975C34.0577 -76.9648 38.2189 -73.5906 43.1557 -70.7403C43.4599 -70.5647 43.7731 -70.3754 44.1263 -70.1968C45.5732 -69.3953 47.0708 -68.5645 48.62 -67.7207C52.1895 -65.7951 55.787 -63.8448 59.2662 -61.8361C68.2146 -56.6697 76.3852 -51.1074 81.4707 -44.5632C85.0391 -39.9427 89.1096 -36.8067 93.5205 -34.2601C96.7399 -32.4014 100.154 -30.8359 103.755 -29.2133C107.056 -27.73 110.441 -26.1301 113.826 -24.1763C115.334 -23.3054 116.857 -22.3583 118.385 -21.3159C125.48 -16.3493 127.76 -10.4783 131.385 -2.38573C136.167 8.30068 142.258 18.6789 150.293 28.0328C150.995 28.8355 151.692 29.6347 152.404 30.4348C157.101 35.6476 162.606 39.9581 168.297 43.2438C172.378 45.6001 176.56 47.4313 180.596 48.6801C188.328 51.0654 195.07 52.9979 199.867 52.7842C195.045 53.7439 187.358 52.2039 178.551 49.7638L178.548 49.7538ZM180.861 47.8108C176.889 46.5823 172.772 44.7713 168.748 42.4479C163.133 39.2062 157.693 34.9586 153.083 29.8297C152.364 29.0259 151.664 28.2331 150.984 27.435C143.007 18.1566 136.966 7.86675 132.218 -2.7587C128.612 -10.7976 126.237 -16.9432 118.892 -22.0624C117.349 -23.1222 115.81 -24.0866 114.277 -24.9721C110.842 -26.9552 107.427 -28.5634 104.123 -30.0567C100.535 -31.672 97.1465 -33.2229 93.9715 -35.056C89.624 -37.566 85.6729 -40.6161 82.183 -45.1237C76.9503 -51.8374 68.7063 -57.4336 59.7136 -62.6256C56.228 -64.6379 52.6278 -66.5982 49.0557 -68.5338C47.5028 -69.3713 46.0052 -70.2021 44.5456 -71.011C44.2214 -71.1812 43.9209 -71.3632 43.6104 -71.5425C38.7623 -74.3415 34.6291 -77.6911 30.3834 -81.0212C22.913 -86.8889 16.657 -91.6839 10.4745 -97.3235C3.54095 -103.667 -2.22044 -110.914 -10.521 -117.861C-11.0111 -118.271 -11.5366 -118.693 -12.0494 -119.107C-11.4859 -118.663 -10.9061 -118.219 -10.3562 -117.766C-2.02417 -110.962 3.91428 -103.933 11.109 -97.7346C17.4556 -92.2621 23.8048 -87.5993 31.3215 -81.7386C35.6513 -78.3346 39.8683 -74.8522 44.9065 -71.9434C45.122 -71.819 45.3591 -71.6736 45.6226 -71.5299C47.0595 -70.7257 48.5698 -69.8875 50.1254 -69.0401C54.3649 -66.7529 58.6271 -64.4612 62.7084 -62.1048C70.985 -57.3263 78.467 -52.2545 83.3375 -46.333C86.778 -42.1497 90.6117 -39.2181 94.7563 -36.8251C98.2673 -34.7981 102 -33.1413 105.93 -31.4301C109.428 -29.8924 113.02 -28.2408 116.62 -26.1625C117.964 -25.3868 119.307 -24.5522 120.642 -23.6458C127.78 -18.7389 130.214 -12.9145 133.95 -4.91035C138.907 5.69151 145.101 16.0529 153.092 25.4829C153.774 26.291 154.479 27.1038 155.192 27.9039C160.33 33.6841 166.377 38.46 172.531 42.0128C175.991 44.0105 179.465 45.6189 182.863 46.8032C190.376 49.3917 196.793 51.6686 201.305 51.7132C196.875 52.4341 189.471 50.5341 180.858 47.8172L180.861 47.8108ZM183.177 45.8778C179.85 44.7175 176.421 43.1347 173.018 41.1699C166.953 37.6683 160.981 32.9527 155.919 27.2591C155.207 26.459 154.511 25.6435 153.834 24.8553C145.917 15.502 139.757 5.22786 134.85 -5.32841C131.132 -13.2889 128.573 -19.3798 121.196 -24.4584C119.825 -25.3767 118.466 -26.2287 117.11 -27.0117C113.46 -29.1193 109.832 -30.7828 106.322 -32.3279C102.399 -34.0518 98.7032 -35.6703 95.2493 -37.6644C91.178 -40.0234 87.4575 -42.8728 84.1028 -46.9559C79.0941 -53.0332 71.5097 -58.1472 63.2013 -62.944C59.101 -65.3113 54.8325 -67.6068 50.603 -69.8966C49.0464 -70.7277 47.5498 -71.5749 46.0876 -72.3938C45.8558 -72.5191 45.6339 -72.6472 45.4058 -72.7789C40.4563 -75.6365 36.2791 -79.0707 31.9339 -82.492C24.4119 -88.3727 18.0653 -93.0255 11.7594 -98.466C4.98512 -104.295 -0.791566 -110.96 -8.58468 -117.512C-0.65769 -111.06 5.33114 -104.543 12.3763 -98.8027C18.8563 -93.5321 25.2734 -89.016 32.8444 -83.1323C37.2666 -79.6835 41.5367 -76.1028 46.6827 -73.1318C46.8157 -73.0549 46.9705 -72.9571 47.1489 -72.871C48.5685 -72.0514 50.0814 -71.2033 51.6507 -70.3648C56.6263 -67.6696 61.6603 -65.0168 66.388 -62.2872C73.8978 -57.9514 80.6432 -53.3894 85.2353 -48.1272C88.498 -44.3676 92.0893 -41.6604 95.9488 -39.4321C99.8083 -37.2038 103.823 -35.4941 108.114 -33.676C111.797 -32.1074 115.576 -30.3987 119.321 -28.2363C120.525 -27.5411 121.724 -26.8069 122.921 -25.9974C130.102 -21.1503 132.69 -15.3886 136.542 -7.45298C141.657 3.0797 147.964 13.4053 155.895 22.9103C156.59 23.7258 157.279 24.5376 157.988 25.344C163.574 31.7543 170.178 37.0292 176.775 40.8381C179.583 42.459 182.389 43.8175 185.132 44.8772C192.448 47.69 198.564 50.3422 202.78 50.6214C198.758 51.1472 191.628 48.8472 183.188 45.8588L183.177 45.8778ZM185.487 43.9412C182.808 42.9017 180.046 41.5688 177.276 39.9699C170.781 36.2195 164.258 31.0086 158.745 24.6912C158.036 23.8847 157.36 23.0802 156.671 22.2684C148.801 12.849 142.542 2.58532 137.443 -7.88737C133.618 -15.7657 130.904 -21.8365 123.48 -26.8327C122.253 -27.6505 121.033 -28.4057 119.816 -29.1082C116.008 -31.3072 112.193 -33.0279 108.494 -34.5974C104.211 -36.4281 100.176 -38.1489 96.4438 -40.304C92.711 -42.4591 89.163 -45.1244 85.9861 -48.7837C81.2659 -54.2044 74.4371 -58.7977 66.8866 -63.1654C62.1272 -65.9133 57.0896 -68.5598 52.1203 -71.2514C50.561 -72.0924 49.0581 -72.9433 47.6058 -73.7648C47.4464 -73.84 47.3133 -73.9168 47.1676 -74.001C42.123 -76.9134 37.8873 -80.4658 33.4434 -83.9357C25.857 -89.8366 19.4326 -94.3401 13.0034 -99.5814C6.86168 -104.589 1.43084 -110.243 -5.21501 -115.972C1.58105 -110.342 7.1911 -104.779 13.61 -99.8565C20.2097 -94.7786 26.7093 -90.4346 34.3156 -84.539C38.8319 -81.019 43.1578 -77.33 48.4052 -74.3004C48.4368 -74.2821 48.5219 -74.2246 48.647 -74.1777C50.0465 -73.3528 51.5658 -72.501 53.1314 -71.6562C58.8922 -68.5499 64.7125 -65.5614 70.0866 -62.4587C76.8105 -58.5766 82.8058 -54.5153 87.1011 -49.8806C90.1723 -46.5358 93.5251 -44.0593 97.093 -41.9993C101.219 -39.6174 105.627 -37.7988 110.272 -35.8774C114.143 -34.2682 118.103 -32.5223 122.032 -30.2538C123.078 -29.6501 124.125 -29.0037 125.192 -28.32C132.403 -23.5399 135.141 -17.8185 139.109 -9.9676C144.389 0.483215 150.762 10.8291 158.677 20.3758C159.362 21.1939 160.06 22.0194 160.771 22.8358C166.863 29.9355 174.079 35.7749 181.12 39.8399C183.224 41.0547 185.327 42.1251 187.386 42.9929C194.724 46.1053 200.62 49.1968 204.534 49.5891C201.054 50.0982 193.972 47.3192 185.487 43.9412ZM187.813 42.0055C185.796 41.1369 183.74 40.1021 181.662 38.902C174.728 34.8992 167.596 29.1337 161.584 22.1306C160.879 21.3178 160.186 20.5123 159.515 19.6851C151.66 10.224 145.329 -0.047198 140.072 -10.4507C136.131 -18.2606 133.256 -24.2722 125.783 -29.2123C124.7 -29.9133 123.631 -30.5644 122.567 -31.179C118.574 -33.4842 114.566 -35.2493 110.689 -36.8622C106.031 -38.7909 101.664 -40.5939 97.6336 -42.9209C94.1417 -44.937 90.8866 -47.3486 87.8985 -50.6032C83.4904 -55.379 77.3891 -59.4762 70.6335 -63.3766C65.2276 -66.4976 59.3883 -69.4971 53.6439 -72.6024C52.0873 -73.4335 50.5944 -74.2871 49.1431 -75.1249C49.0634 -75.1625 49.0318 -75.1808 48.9494 -75.2284C43.8034 -78.1994 39.5209 -81.8464 34.9793 -85.3811C27.3322 -91.3087 20.83 -95.6627 14.2609 -100.706C8.7168 -104.963 3.784 -109.738 -1.92961 -114.667C3.94591 -109.813 9.05328 -105.107 14.8537 -100.913C21.5905 -96.0432 28.1525 -91.866 35.8159 -85.9374C40.4119 -82.3798 44.7492 -78.6082 50.0943 -75.5137C50.3478 -75.3674 50.6166 -75.2037 50.8891 -75.0464C52.0996 -74.3475 53.3454 -73.6367 54.6521 -72.9583C61.2033 -69.421 67.859 -66.0938 73.8669 -62.6252C79.8747 -59.1565 85.061 -55.6552 88.9932 -51.6358C91.8656 -48.6931 94.9498 -46.4392 98.2136 -44.5549C102.662 -41.9864 107.421 -40.1008 112.46 -38.0706C116.51 -36.4505 120.667 -34.6503 124.78 -32.2756C125.667 -31.7634 126.562 -31.2212 127.475 -30.6353C134.719 -25.9122 137.604 -20.2409 141.679 -12.4722C147.13 -2.08326 153.622 8.23045 161.487 17.8496C162.169 18.674 162.857 19.5022 163.548 20.3239C170.177 28.1903 178.049 34.6362 185.502 38.9391C186.902 39.7477 188.285 40.47 189.652 41.1323C196.869 44.4965 202.416 48.003 206.04 48.5747C203.113 49.0055 196.216 45.7589 187.818 42.0255L187.813 42.0055ZM190.135 40.0761C188.79 39.4348 187.442 38.7244 186.061 37.9268C178.735 33.6971 170.951 27.3187 164.417 19.5663C163.715 18.7472 163.031 17.9127 162.354 17.1082C154.555 7.55204 148.101 -2.68072 142.685 -13.015C138.639 -20.7591 135.6 -26.7215 128.081 -31.612C127.162 -32.2015 126.254 -32.7511 125.348 -33.2743C121.153 -35.6965 116.951 -37.5223 112.888 -39.1497C107.843 -41.1836 103.13 -43.0598 98.789 -45.5662C95.6013 -47.4066 92.6022 -49.6029 89.8129 -52.4554C85.7568 -56.597 80.3958 -60.1908 74.4386 -63.6301C68.4815 -67.0695 61.7308 -70.4516 55.1822 -73.9789C53.8981 -74.6526 52.6777 -75.3488 51.4609 -76.0513C51.2074 -76.1977 50.9349 -76.355 50.6724 -76.515C45.4414 -79.5436 41.1411 -83.2769 36.5134 -86.8529C28.803 -92.817 22.2193 -97.0153 15.5268 -101.859C10.7099 -105.342 6.28514 -109.24 1.50155 -113.278C6.44874 -109.289 11.0471 -105.443 16.103 -102.008C22.9722 -97.3242 29.5994 -93.3036 37.3117 -87.3722C41.9204 -83.8072 46.2511 -79.9802 51.5879 -76.8568C52.0189 -76.608 52.4588 -76.3455 52.9025 -76.0894C53.9418 -75.4893 55.0101 -74.881 56.1448 -74.285C63.5128 -70.3184 71.0031 -66.6952 77.594 -62.89C82.721 -59.9299 87.2991 -56.8389 90.8773 -53.421C93.5363 -50.855 96.3619 -48.8265 99.3278 -47.1141C104.087 -44.3663 109.202 -42.4101 114.64 -40.3101C118.881 -38.6556 123.233 -36.8109 127.529 -34.3302C128.264 -33.9057 128.999 -33.465 129.743 -32.9842C137.038 -28.3335 140.076 -22.6924 144.264 -15.0185C149.871 -4.70874 156.445 5.60987 164.272 15.266C164.956 16.1005 165.64 16.935 166.344 17.7641C173.563 26.4527 182.118 33.5887 189.929 38.1065C190.588 38.487 191.248 38.8512 191.899 39.2017C193.57 40.0823 195.162 40.9844 196.664 41.8516C198.527 42.9273 200.226 43.9505 201.76 44.836C204.108 46.1408 205.92 47.1445 207.415 47.5261C205.079 47.8678 198.408 44.143 190.149 40.0671L190.135 40.0761ZM208.796 46.5828C207.937 46.6951 205.476 45.6885 202.353 43.8093C200.844 42.9385 199.134 41.8916 197.264 40.8122C195.768 39.9487 194.154 39.042 192.467 38.1441C191.819 37.8036 191.174 37.4567 190.521 37.0798C182.853 32.6526 174.389 25.594 167.239 17.0047C166.557 16.1802 165.863 15.3484 165.198 14.5249C157.42 4.93073 150.888 -5.31326 145.304 -15.5757C141.138 -23.2287 137.936 -29.1582 130.374 -33.9889C129.616 -34.4607 128.86 -34.9224 128.112 -35.3541C123.739 -37.8788 119.321 -39.7537 115.063 -41.4092C109.636 -43.5119 104.566 -45.4588 99.9142 -48.1444C97.018 -49.8165 94.2875 -51.7902 91.6963 -54.2833C88.0132 -57.8123 83.3554 -60.9409 78.1841 -63.9266C71.5361 -67.7648 64.0422 -71.3816 56.7132 -75.3427C55.5912 -75.9313 54.5255 -76.5296 53.4925 -77.126C53.0489 -77.3822 52.6189 -77.6473 52.188 -77.8961C46.9679 -80.9437 42.6897 -84.7151 38.0403 -88.312C30.2691 -94.3027 23.594 -98.3425 16.7717 -102.991C12.5485 -105.877 8.63059 -109.043 4.52548 -112.368C8.78589 -109.064 12.8918 -105.916 17.3403 -103.068C24.334 -98.5997 31.0426 -94.7349 38.7993 -88.7779C43.4407 -85.2109 47.7367 -81.3533 53.0679 -78.1908C53.6437 -77.8415 54.223 -77.4986 54.8251 -77.151C55.7313 -76.6277 56.6666 -76.0962 57.6491 -75.5881C65.8167 -71.1768 74.1582 -67.3156 81.3131 -63.1847C85.6669 -60.6711 89.5782 -58.0495 92.7505 -55.1871C95.1506 -53.0071 97.686 -51.2223 100.329 -49.6965C105.443 -46.7438 110.964 -44.7305 116.812 -42.5206C121.22 -40.8626 125.739 -38.9718 130.201 -36.3959C130.803 -36.0483 131.398 -35.6881 132.018 -35.3132C139.338 -30.7231 142.541 -25.1476 146.838 -17.5295C152.617 -7.29789 159.305 2.96858 167.064 12.7125C167.735 13.556 168.425 14.3941 169.122 15.2359C176.934 24.7567 186.095 32.6143 194.157 37.2948C199.863 40.6141 204.407 44.1588 207.319 45.8483C207.865 46.1466 208.352 46.3857 208.799 46.5765L208.796 46.5828ZM18.6149 -104.149C25.731 -99.8633 32.5111 -96.1516 40.3142 -90.2016C44.9719 -86.6337 49.245 -82.7217 54.5843 -79.5292C55.274 -79.1141 55.9765 -78.6916 56.7053 -78.2708C57.4975 -77.8135 58.3123 -77.3515 59.1645 -76.9102C68.1425 -72.0732 77.3236 -67.9977 84.9855 -63.5741C88.6041 -61.4849 91.8902 -59.3172 94.6536 -56.9613C96.7993 -55.131 99.0371 -53.5771 101.35 -52.2416C106.826 -49.0803 112.738 -47.0271 118.991 -44.7437C123.603 -43.044 128.307 -41.1224 132.953 -38.4405C133.384 -38.1916 133.83 -37.9255 134.295 -37.6484C141.653 -33.1218 145.009 -27.5928 149.412 -20.0567C155.353 -9.90071 162.15 0.352636 169.873 10.1599C170.54 11.0097 171.21 11.8532 171.904 12.7013C179.668 22.3046 188.61 30.4081 196.41 35.3842C202.905 39.5312 207.648 44.137 210.046 45.53L210.115 45.5703C210.021 45.617 209.229 45.54 207.949 44.7419C205.182 43.153 200.559 39.5543 194.788 36.1884C186.896 31.6068 177.809 23.8257 170.089 14.4251C169.398 13.587 168.727 12.7598 168.056 11.9163C160.342 2.2407 153.687 -7.98114 147.938 -18.1618C143.659 -25.7526 140.295 -31.6329 132.686 -36.3976C132.053 -36.7798 131.442 -37.141 130.834 -37.4923C126.29 -40.1157 121.704 -42.0368 117.254 -43.7104C111.41 -45.9266 105.953 -47.9196 100.965 -50.7992C98.386 -52.2884 95.9394 -54.022 93.6043 -56.1391C90.3262 -59.0964 86.3416 -61.7518 81.9434 -64.2911C74.7188 -68.4622 66.3809 -72.3297 58.2451 -76.7228C57.2779 -77.2136 56.3617 -77.7341 55.4617 -78.2537C54.8724 -78.5939 54.2966 -78.9432 53.7173 -79.2862C48.5092 -82.3691 44.2565 -86.1849 39.5817 -89.7964C31.7553 -95.7937 24.996 -99.6878 18.0313 -104.148C14.6119 -106.334 11.3895 -108.743 8.11397 -111.251C11.5628 -108.736 14.9695 -106.338 18.6123 -104.159L18.6149 -104.149ZM53.6096 -110.157C53.6984 -110.105 53.7881 -110.07 53.8831 -110.016C55.3344 -109.178 56.8015 -108.221 58.3197 -107.133C63.0766 -103.635 66.9996 -99.3501 72.1483 -95.7691L72.1039 -95.7947C67.0081 -99.2184 63.0174 -103.576 57.9792 -107.304C56.4963 -108.38 55.0499 -109.3 53.6096 -110.157ZM59.5647 -108.704C59.6498 -108.646 59.7295 -108.609 59.8236 -108.538C62.744 -106.395 65.3698 -103.933 68.1293 -101.512C65.3489 -103.911 62.6506 -106.424 59.5647 -108.704ZM51.3289 -109.192C51.5861 -109.052 51.8488 -108.951 52.1087 -108.801C53.655 -107.908 55.2135 -106.89 56.8185 -105.718C61.6632 -102.152 65.6809 -97.7539 71.0129 -94.1685C71.926 -93.5399 72.899 -92.9275 73.9056 -92.3294L73.7852 -92.3989C72.6635 -93.0465 71.6027 -93.7265 70.5756 -94.421C65.4851 -97.8247 61.4579 -102.119 56.4423 -105.842C54.7026 -107.117 53.002 -108.226 51.3289 -109.192ZM45.2961 -110.115C46.9602 -109.382 48.6321 -108.56 50.3179 -107.587C52.0036 -106.614 53.6155 -105.556 55.3172 -104.304C60.1546 -100.725 64.2062 -96.3999 69.5292 -92.8281C70.5854 -92.1254 71.6805 -91.4171 72.8466 -90.7438C73.2078 -90.5353 73.5981 -90.3184 74.011 -90.0969C73.8679 -90.1711 73.7211 -90.2389 73.5781 -90.3131C73.0918 -90.5685 72.6191 -90.8329 72.1565 -91.1C71.0728 -91.7257 70.0464 -92.3774 69.05 -93.0372C63.9403 -96.3929 59.9084 -100.664 54.9218 -104.38C53.0409 -105.761 51.1946 -106.954 49.3821 -108.001C48.0132 -108.791 46.6602 -109.462 45.3025 -110.111L45.2961 -110.115ZM215.996 39.0876C216.127 39.5347 216.204 39.8836 216.244 40.1515C216.202 40.0343 216.161 39.9433 216.12 39.8097C214.883 36.9323 211.563 31.2809 206.46 26.6109C199.85 20.5555 191.783 11.5799 184.272 1.64109C183.613 0.762258 182.951 -0.110239 182.301 -0.975411C174.774 -10.9742 167.634 -21.1465 161.038 -30.9878C156.231 -38.1317 152.061 -43.7587 144.361 -48.2043C144.33 -48.2226 144.272 -48.2555 144.194 -48.3094C138.873 -51.3139 133.473 -53.392 128.21 -55.0619C119.989 -57.7126 112.37 -59.8387 105.503 -63.8113C104.692 -64.2797 103.892 -64.767 103.108 -65.296C102.072 -65.9614 101.017 -66.6215 99.9203 -67.2545C90.3725 -72.7584 77.8977 -77.0709 65.9306 -83.5069C65.3076 -83.8328 64.7145 -84.1668 64.1251 -84.5071C63.1935 -85.0449 62.2893 -85.6008 61.405 -86.1621C56.241 -89.38 52.0974 -93.4285 47.274 -97.0752C44.3592 -99.2567 41.5735 -101.076 38.842 -102.653C34.6811 -105.047 30.6484 -106.902 26.5677 -108.777C31.2378 -106.782 35.7476 -104.845 40.3992 -102.16C42.8138 -100.766 45.2719 -99.1691 47.8384 -97.2479C52.5814 -93.6814 56.7428 -89.5466 62.0776 -86.1709C63.0153 -85.5703 63.9893 -84.9742 65.0096 -84.3851C65.5483 -84.0741 66.1123 -83.7485 66.71 -83.4372C79.5636 -76.5316 92.8983 -72.2888 102.604 -66.677C103.123 -66.377 103.623 -66.0716 104.161 -65.7443C104.556 -65.5074 104.98 -65.2459 105.417 -64.9935C112.959 -60.6394 121.195 -58.5287 129.923 -55.8049C135.153 -54.1796 140.486 -52.1908 145.695 -49.2848L146.17 -49.0104C153.426 -44.821 157.496 -39.5901 162.34 -32.6276C169.105 -22.8745 176.355 -12.689 183.87 -2.59588C184.516 -1.72437 185.171 -0.839199 185.83 0.0396336C193.345 10.1328 201.232 19.3926 207.67 25.8475C210.717 28.8827 213.018 32.4501 214.469 35.3666C215.197 36.8266 215.723 38.1269 216.002 39.0912L215.996 39.0876ZM217.383 38.1643C217.042 37.1734 216.546 36.042 215.911 34.6532C214.38 31.5975 211.989 27.9099 208.807 24.7126C202.439 18.3405 194.583 9.11536 187.113 -0.909519C186.452 -1.79835 185.793 -2.67717 185.147 -3.5487C177.66 -13.6172 170.422 -23.7954 163.655 -33.5584C158.792 -40.5319 154.527 -46.0532 146.969 -50.4083L146.481 -50.69C141.122 -53.6738 135.69 -55.6949 130.386 -57.3378C121.609 -60.0644 113.496 -62.171 106.212 -66.385C105.806 -66.6192 105.402 -66.8697 104.981 -67.1212C104.452 -67.4349 103.934 -67.7512 103.389 -68.0659C93.4478 -73.7967 80.1484 -78.0276 67.4442 -84.8554C66.8692 -85.162 66.3369 -85.4693 65.7982 -85.7803C64.8096 -86.3511 63.8509 -86.9299 62.9169 -87.5368C57.774 -90.7765 53.6459 -94.8667 48.7971 -98.528C46.1673 -100.486 43.6531 -102.132 41.1942 -103.551C37.5438 -105.659 34.0031 -107.298 30.431 -108.853C34.4991 -107.205 38.4643 -105.482 42.5393 -103.13C44.7574 -101.849 46.991 -100.39 49.3223 -98.6473C54.0917 -95.0825 58.2248 -90.9133 63.5603 -87.4949C64.497 -86.878 65.499 -86.2573 66.532 -85.6609C67.058 -85.3572 67.613 -85.0452 68.2043 -84.7376C81.7987 -77.4466 95.9319 -73.3427 105.996 -67.5324L106.046 -67.5031C114.054 -62.8883 122.826 -60.7815 132.088 -58.0028C137.366 -56.4172 142.721 -54.4663 147.953 -51.6147C148.225 -51.4574 148.495 -51.3101 148.767 -51.1527C155.862 -47.0484 160.035 -41.9097 164.903 -35.1359C171.859 -25.45 179.182 -15.2569 186.642 -5.12773C187.297 -4.24256 187.939 -3.36471 188.594 -2.47953C196.071 7.70967 203.744 17.1927 209.9 23.9323C212.729 27.0364 214.823 30.7127 216.092 33.769C216.872 35.5207 217.23 37.0962 217.385 38.1743L217.383 38.1643ZM218.746 36.4167C217.835 32.6967 215.194 27.4368 211.144 22.8005C205.047 16.1202 197.373 6.66981 189.952 -3.47012C189.297 -4.35529 188.639 -5.25046 187.987 -6.12564C180.527 -16.2549 173.213 -26.4343 166.274 -36.1191C161.377 -42.9176 157.001 -48.3341 149.602 -52.5977C149.323 -52.7587 149.05 -52.916 148.768 -53.0706C143.388 -56.0164 137.907 -57.9977 132.584 -59.6089C123.363 -62.3558 114.819 -64.4324 107.169 -68.7897L107.065 -69.1796L106.612 -69.1117C96.2932 -74.993 82.3114 -79.0518 68.9815 -86.2155C68.4219 -86.5048 67.9022 -86.8048 67.3699 -87.1121C66.3622 -87.6939 65.3982 -88.2927 64.4579 -88.9032C59.3205 -92.1819 55.2081 -96.3138 50.3276 -99.9934C47.9456 -101.766 45.6296 -103.272 43.3735 -104.575C40.5597 -106.199 37.8036 -107.528 35.0623 -108.722C38.2443 -107.443 41.3885 -106.025 44.5953 -104.173C46.6169 -103.006 48.6831 -101.653 50.8272 -100.068C55.6092 -96.4963 59.7167 -92.2827 65.0566 -88.828C66.0313 -88.1892 67.0397 -87.5647 68.1044 -86.95C68.6177 -86.6537 69.15 -86.3463 69.7223 -86.0497C83.4091 -78.7138 97.6414 -74.84 107.947 -69.2873C116.086 -64.9006 124.968 -62.9413 134.283 -60.2249C139.588 -58.7 144.989 -56.7563 150.247 -53.949C150.628 -53.7458 151.002 -53.53 151.376 -53.3141C158.322 -49.3039 162.586 -44.2646 167.501 -37.6585C174.602 -28.0492 182.031 -17.8792 189.448 -7.69031C190.103 -6.80513 190.735 -5.9246 191.382 -5.01043C198.805 5.25749 206.287 14.9684 212.156 21.999C216.188 26.6669 218.333 33.0937 218.753 36.4204L218.746 36.4167ZM220.008 33.7484C219.084 29.9193 216.84 25.0833 213.472 20.8912C207.643 13.8925 200.189 4.20624 192.787 -6.02438C192.13 -6.91955 191.486 -7.82373 190.843 -8.70159C183.417 -18.9042 175.995 -29.0704 168.887 -38.6834C163.951 -45.3269 159.483 -50.6276 152.236 -54.8034C151.849 -55.0266 151.462 -55.2498 151.062 -55.4639C145.646 -58.3626 140.132 -60.3296 134.76 -61.8848C125.371 -64.6187 116.619 -66.5701 108.762 -70.8022C98.1834 -76.4959 84.0081 -80.3367 70.5225 -87.5819C69.9755 -87.8639 69.4775 -88.143 68.9642 -88.4393C67.9439 -89.0284 66.9618 -89.6545 65.9925 -90.2733C60.8708 -93.5937 56.7803 -97.7636 51.8645 -101.455C49.6643 -103.089 47.5464 -104.455 45.4614 -105.659C42.8694 -107.155 40.3288 -108.36 37.7976 -109.45C40.7115 -108.291 43.603 -106.977 46.5625 -105.268C48.4447 -104.182 50.3635 -102.939 52.3311 -101.473C57.1331 -97.9063 61.2214 -93.6448 66.5529 -90.161C67.5683 -89.4903 68.6364 -88.8229 69.7455 -88.1826C70.2081 -87.9155 70.7024 -87.6301 71.2367 -87.3554C84.9842 -79.9929 99.2882 -76.3312 109.853 -71.0515C118.119 -66.9293 127.087 -65.0894 136.475 -62.4408C141.818 -60.9529 147.238 -59.0408 152.527 -56.2743C153.032 -56.0079 153.524 -55.7325 154.018 -55.4471C160.818 -51.5212 165.174 -46.5813 170.084 -40.1721C177.358 -30.641 184.835 -20.4681 192.247 -10.2402C192.888 -9.34601 193.536 -8.44816 194.174 -7.54764C201.545 2.80903 208.814 12.7431 214.4 20.0748C217.751 24.3249 219.548 29.9931 220.021 33.7557L220.008 33.7484ZM221.507 31.6647C220.713 27.7418 218.782 23.036 215.812 18.9891C210.238 11.6812 202.986 1.74802 195.62 -8.58865C194.969 -9.49648 194.325 -10.4007 193.687 -11.2849C186.269 -21.5328 178.777 -31.723 171.488 -41.2714C166.541 -47.7189 161.99 -52.9065 154.898 -57.0008C154.391 -57.2935 153.881 -57.5799 153.354 -57.8672C147.902 -60.7189 142.363 -62.6578 136.933 -64.1706C127.48 -66.8231 118.614 -68.6634 110.628 -72.6573C99.8014 -78.0544 85.5744 -81.6885 72.0434 -88.943C71.5535 -89.192 71.0909 -89.4591 70.6219 -89.7299C69.5509 -90.3483 68.5281 -91.0063 67.5181 -91.6571C62.3974 -94.9938 58.3362 -99.2144 53.375 -102.915C51.353 -104.404 49.3845 -105.692 47.439 -106.816C45.9307 -107.686 44.4328 -108.458 42.951 -109.17C44.7782 -108.369 46.6069 -107.482 48.4574 -106.414C50.3079 -105.345 51.9858 -104.241 53.8197 -102.895C58.6407 -99.3174 62.707 -95.0178 68.0266 -91.4987C69.0447 -90.818 70.1101 -90.1606 71.2318 -89.513C71.7071 -89.2386 72.1951 -88.9568 72.7194 -88.6795C86.5429 -81.2731 100.936 -77.8388 111.739 -72.8267C120.129 -68.9462 129.199 -67.2248 138.642 -64.6713C144.027 -63.2268 149.478 -61.3554 154.792 -58.6169C155.422 -58.2873 156.041 -57.9551 156.656 -57.6002C163.304 -53.762 167.731 -48.9325 172.662 -42.7058C180.099 -33.2665 187.665 -23.1014 195.028 -12.8174C195.669 -11.9232 196.312 -11.0027 196.95 -10.1022C204.286 0.344198 211.349 10.4889 216.638 18.1305C219.567 22.2471 221.129 27.6946 221.508 31.6483L221.507 31.6647ZM218.146 17.0834C212.857 9.45814 205.795 -0.70289 198.462 -11.1556C197.812 -12.0634 197.171 -12.9739 196.536 -13.8645C189.156 -24.1758 181.578 -34.3645 174.111 -43.8384C169.143 -50.1035 164.513 -55.1844 157.577 -59.1809C156.956 -59.5395 156.318 -59.899 155.638 -60.2578C150.167 -63.0615 144.587 -64.9734 139.122 -66.4391C129.612 -69.0229 120.64 -70.7384 112.531 -74.4905C106.231 -77.4095 98.8787 -79.7786 91.2297 -82.6146C99.3385 -79.6821 107.099 -77.3902 113.661 -74.5735C122.164 -70.9486 131.333 -69.3556 140.833 -66.8708C146.261 -65.486 151.737 -63.6427 157.083 -60.9449C157.862 -60.5538 158.609 -60.1484 159.35 -59.7203C165.823 -55.9746 170.313 -51.2529 175.252 -45.2158C182.86 -35.8547 190.543 -25.7154 197.839 -15.36C198.471 -14.4631 199.101 -13.5499 199.734 -12.6267C207.006 -2.0826 213.895 8.27463 218.887 16.2099C221.327 19.9758 222.627 24.8503 222.992 28.8294C222.253 25.0311 220.624 20.7533 218.15 17.0771L218.146 17.0834ZM220.496 15.195C215.475 7.23512 208.581 -3.1421 201.294 -13.7035C200.658 -14.6367 200.014 -15.5409 199.383 -16.4541C192.067 -26.8468 184.362 -37.0071 176.727 -46.4091C171.752 -52.5009 167.062 -57.4477 160.294 -61.3554C159.534 -61.7944 158.747 -62.2318 157.938 -62.6311C152.43 -65.4141 146.815 -67.2953 141.31 -68.7076C131.71 -71.2083 122.629 -72.7927 114.402 -76.3257C109.706 -78.3353 104.479 -80.0686 99.0072 -81.9183C104.931 -80.0021 110.57 -78.3096 115.563 -76.3314C124.191 -72.9382 133.454 -71.4774 143.015 -69.0839C148.467 -67.7272 153.982 -65.9209 159.357 -63.2738C160.28 -62.8086 161.159 -62.3263 162.021 -61.8287C168.364 -58.1662 172.908 -53.5658 177.826 -47.7267C185.596 -38.4411 193.339 -28.3179 200.625 -17.9172C201.249 -17.0076 201.88 -16.0944 202.513 -15.1712C209.74 -4.53476 216.423 6.03304 221.119 14.262C223.185 17.7957 224.285 22.3008 224.59 26.2369C223.942 22.5589 222.584 18.589 220.493 15.185L220.496 15.195ZM222.826 13.2957C218.087 5.00843 211.377 -5.60032 204.126 -16.2678C203.494 -17.2073 202.854 -18.1178 202.23 -19.0274C194.923 -29.4818 187.144 -39.6596 179.321 -48.9844C174.361 -54.8982 169.615 -59.7173 163.005 -63.5335C162.111 -64.0494 161.19 -64.5473 160.223 -65.0381C154.692 -67.7667 149.037 -69.6208 143.48 -70.9871C133.819 -73.4127 124.632 -74.8723 116.276 -78.1671C112.666 -79.5838 108.759 -80.851 104.716 -82.1461C109.215 -80.8072 113.538 -79.5281 117.482 -78.1046C126.233 -74.9532 135.586 -73.6182 145.2 -71.3034C150.688 -69.9937 156.234 -68.2118 161.637 -65.5991C162.717 -65.0687 163.743 -64.5187 164.731 -63.9479C170.91 -60.3804 175.508 -55.8752 180.416 -50.2367C188.361 -41.0356 196.199 -30.9165 203.417 -20.4544C204.051 -19.5475 204.671 -18.6316 205.287 -17.6931C212.455 -6.95522 218.969 3.81877 223.382 12.3324C225.153 15.7041 226.091 19.9634 226.313 23.852C225.777 20.2725 224.639 16.5224 222.832 13.2993L222.826 13.2957ZM225.169 11.4036C220.716 2.78274 214.162 -8.0232 206.961 -18.822C206.335 -19.7579 205.696 -20.6848 205.073 -21.6106C197.803 -32.1284 189.935 -42.2985 181.937 -51.5551C176.985 -57.2619 172.195 -61.9622 165.738 -65.6907C164.711 -66.2834 163.641 -66.8591 162.519 -67.405C156.951 -70.1129 151.261 -71.9363 145.665 -73.2656C135.937 -75.6035 126.638 -76.9419 118.16 -80.0113C115.67 -80.9083 113.028 -81.7324 110.33 -82.5631C113.477 -81.6759 116.517 -80.8083 119.388 -79.8688C128.258 -76.9529 137.715 -75.7689 147.376 -73.5203C152.903 -72.264 158.476 -70.5001 163.915 -67.9344C165.145 -67.3425 166.337 -66.7137 167.471 -66.0587C173.504 -62.5754 178.127 -58.1999 182.993 -52.754C191.108 -43.6411 199.046 -33.5488 206.198 -23.0316C206.821 -22.1057 207.447 -21.1862 208.063 -20.2476C215.194 -9.43002 221.517 1.57184 225.607 10.3808C226.984 13.2797 227.723 16.8583 227.967 20.3285C227.471 17.2366 226.544 14.1155 225.16 11.39L225.169 11.4036ZM227.508 9.51794C223.335 0.559724 216.986 -10.4994 209.81 -21.3853C209.182 -22.3312 208.549 -23.2707 207.916 -24.1939C200.71 -34.7931 192.727 -44.9537 184.547 -54.1294C179.613 -59.6482 174.812 -64.2116 168.513 -67.8485C167.334 -68.5291 166.101 -69.1736 164.814 -69.7983C159.206 -72.4528 153.485 -74.2519 147.844 -75.5314C138.049 -77.7979 128.637 -78.9989 120.03 -81.8301C118.555 -82.3187 117.045 -82.7765 115.508 -83.2326C117.486 -82.7074 119.438 -82.1804 121.3 -81.6293C130.286 -78.9425 139.841 -77.8707 149.577 -75.7225C155.133 -74.5005 160.737 -72.7773 166.198 -70.2496C167.617 -69.5907 168.955 -68.8777 170.241 -68.1349C176.122 -64.7395 180.763 -60.4972 185.585 -55.2539C193.853 -46.2303 201.886 -36.1421 208.989 -25.5688C209.608 -24.6366 210.228 -23.7044 210.841 -22.7758C217.927 -11.8658 224.06 -0.652417 227.86 8.4539C229.026 11.2057 229.64 14.5768 229.811 17.9114C229.406 14.9824 228.656 12.0818 227.501 9.53061L227.508 9.51794ZM229.847 7.63222C225.966 -1.65599 219.788 -12.9377 212.651 -23.9359C212.033 -24.8845 211.408 -25.8367 210.776 -26.7762C203.6 -37.4424 195.516 -47.6026 187.168 -56.7064C182.264 -62.03 177.455 -66.4626 171.321 -70.0044C169.984 -70.7765 168.584 -71.4998 167.112 -72.198C161.482 -74.8144 155.72 -76.5864 150.037 -77.8226C140.159 -80.0023 130.65 -81.0812 121.918 -83.6806C121.296 -83.8622 120.638 -84.0394 120.006 -84.2183C121.085 -83.9503 122.171 -83.6786 123.216 -83.3962C132.314 -80.9485 141.976 -80.0178 151.762 -77.942C157.374 -76.7724 162.994 -75.0909 168.488 -72.5776C170.104 -71.8479 171.604 -71.0661 173.062 -70.2245C178.778 -66.9242 183.406 -62.8073 188.179 -57.7702C196.628 -48.8275 204.744 -38.7507 211.795 -28.1313C212.421 -27.1955 213.043 -26.2533 213.639 -25.3094C220.663 -14.308 226.627 -2.88839 230.121 6.51429C231.06 9.00003 231.563 11.9939 231.701 15.0316C231.355 12.4405 230.767 9.90368 229.85 7.64222L229.847 7.63222ZM232.168 5.73555C228.597 -3.87168 222.577 -15.3832 215.488 -26.5065C214.866 -27.4651 214.242 -28.4173 213.616 -29.3531C206.484 -40.0954 198.298 -50.2551 189.775 -59.2907C184.922 -64.408 180.118 -68.7027 174.16 -72.1421C172.652 -73.0129 171.062 -73.8296 169.402 -74.5849C163.735 -77.1643 157.944 -78.902 152.213 -80.0984C143.511 -81.9452 135.073 -82.9467 127.153 -84.7565C135.777 -82.8783 144.817 -82.0111 153.951 -80.1678C159.595 -79.039 165.259 -77.3745 170.774 -74.9255C172.567 -74.1097 174.265 -73.2308 175.881 -72.2978C181.439 -69.0889 186.05 -65.1173 190.762 -60.2839C199.381 -51.4293 207.554 -41.3623 214.591 -30.6912C215.207 -29.7527 215.813 -28.8115 216.411 -27.8576C223.387 -16.7575 229.181 -5.13166 232.369 4.56736C233.052 6.61812 233.423 9.02053 233.572 11.5146C233.277 9.47735 232.828 7.51933 232.174 5.73921L232.168 5.73555ZM235.569 8.87399C235.33 7.12203 235.01 5.40783 234.51 3.85984C231.232 -6.09373 225.382 -17.8278 218.325 -29.0508C217.712 -30.022 217.087 -30.9742 216.462 -31.9264C209.347 -42.7267 201.082 -52.8976 192.369 -61.8661C187.582 -66.7761 182.788 -70.9128 177.002 -74.2534C175.316 -75.2266 173.557 -76.1322 171.677 -76.9729C165.971 -79.5152 160.156 -81.2249 154.382 -82.3779C148.163 -83.6364 142.084 -84.434 136.186 -85.3716C142.719 -84.4221 149.405 -83.6799 156.117 -82.382C161.796 -81.3001 167.494 -79.6664 173.028 -77.2491C175.053 -76.3669 176.933 -75.4082 178.739 -74.3654C184.126 -71.2554 188.699 -67.4237 193.333 -62.8048C202.111 -54.0358 210.369 -43.9702 217.361 -33.2494C217.983 -32.3072 218.575 -31.357 219.176 -30.3931C226.071 -19.1962 231.718 -7.35959 234.6 2.61945C235.149 4.46538 235.452 6.6179 235.553 8.87301L235.569 8.87399ZM236.839 1.97681C233.872 -8.29579 228.144 -20.2553 221.161 -31.6051C220.55 -32.5826 219.939 -33.5438 219.308 -34.4997C212.23 -45.3633 203.871 -55.5465 194.982 -64.4304C190.254 -69.1368 185.517 -73.1226 179.908 -76.3607C178.033 -77.4438 176.066 -78.4437 173.977 -79.3625C168.239 -81.8642 162.377 -83.5504 156.567 -84.64C152.17 -85.4974 147.832 -86.0922 143.561 -86.6567C148.445 -86.0849 153.38 -85.5002 158.318 -84.5841C164.033 -83.5494 169.752 -81.9373 175.324 -79.5734C177.558 -78.6131 179.652 -77.5564 181.636 -76.4111C186.852 -73.3999 191.374 -69.7155 195.929 -65.3111C204.877 -56.6303 213.207 -46.5734 220.157 -35.8093C220.766 -34.8581 221.368 -33.9105 221.959 -32.944C228.849 -21.6654 234.286 -9.61188 236.856 0.659856C237.201 2.00837 237.395 3.53139 237.513 5.11219C237.339 4.02311 237.108 2.96011 236.83 1.96315L236.839 1.97681ZM239.588 2.38116C239.471 1.60367 239.355 0.809858 239.172 0.0874509C236.51 -10.5078 230.971 -22.7216 223.993 -34.1693C223.387 -35.1532 222.783 -36.1271 222.165 -37.092C215.107 -48.02 206.656 -58.2053 197.595 -67.0111C192.944 -71.4966 188.256 -75.3351 182.831 -78.4671C180.759 -79.6636 178.585 -80.7579 176.259 -81.7631C170.498 -84.2104 164.604 -85.8559 158.75 -86.9285C156.279 -87.3752 153.826 -87.7519 151.387 -88.0787C154.428 -87.7257 157.473 -87.3363 160.516 -86.7963C166.26 -85.8123 172.018 -84.2372 177.621 -81.8977C180.094 -80.8674 182.408 -79.7089 184.607 -78.4393C189.639 -75.5341 194.091 -71.9916 198.536 -67.8201C207.642 -59.2248 216.065 -49.1821 222.966 -38.3619C223.577 -37.4007 224.163 -36.4541 224.753 -35.4712C231.573 -24.1149 236.871 -11.8369 239.126 -1.28242C239.374 -0.159454 239.505 1.091 239.592 2.37482L239.588 2.38116ZM241.723 -0.306919C241.641 -0.793796 241.607 -1.32038 241.504 -1.78558C239.151 -12.7262 233.769 -25.1535 226.841 -36.7163C226.245 -37.7192 225.635 -38.6967 225.021 -39.6679C218 -50.6593 209.461 -60.8532 200.209 -69.5917C195.666 -73.8707 191.053 -77.531 185.819 -80.5533C183.531 -81.8741 181.121 -83.0712 178.56 -84.1527C172.763 -86.553 166.832 -88.1778 160.933 -89.2007C158.976 -89.5443 157.034 -89.7953 155.106 -90.0554C157.633 -89.7791 160.167 -89.4401 162.705 -89.0222C168.484 -88.0688 174.27 -86.5281 179.903 -84.2393C182.629 -83.1216 185.176 -81.8541 187.609 -80.4491C192.451 -77.6537 196.803 -74.2877 201.133 -70.3428C210.415 -61.832 218.904 -51.8017 225.762 -40.9218C226.371 -39.9705 226.954 -38.9913 227.542 -38.0184C234.329 -26.5624 239.428 -14.0701 241.381 -3.24204C241.55 -2.33362 241.661 -1.34013 241.727 -0.313255L241.723 -0.306919ZM243.726 -4.12746C241.636 -15.2457 236.483 -27.7609 229.666 -39.2678C229.074 -40.2771 228.468 -41.261 227.847 -42.2359C220.87 -53.3033 212.239 -63.4994 202.802 -72.1507C198.382 -76.1895 193.874 -79.6796 188.842 -82.5848C186.32 -84.041 183.672 -85.3671 180.833 -86.5243C175.092 -88.859 169.193 -90.4392 163.341 -91.4101C163.854 -91.3334 164.367 -91.2994 164.883 -91.2127C170.7 -90.3127 176.507 -88.7937 182.176 -86.5519C185.162 -85.3432 187.965 -83.9783 190.64 -82.4343C195.285 -79.7523 199.528 -76.5502 203.705 -72.8374C213.156 -64.3985 221.725 -54.3896 228.537 -43.4599C229.136 -42.5061 229.716 -41.5204 230.3 -40.5412C237.036 -28.9965 241.98 -16.2807 243.622 -5.17627C243.671 -4.85201 243.684 -4.46438 243.716 -4.12478L243.726 -4.12746ZM245.893 -6.95791C243.985 -18.157 239.081 -30.5196 232.511 -41.8248C231.926 -42.8304 231.314 -43.8343 230.701 -44.8218C223.761 -55.9689 215.031 -66.1546 205.407 -74.745C201.12 -78.5464 196.739 -81.8616 191.916 -84.646C189.147 -86.245 186.23 -87.6757 183.128 -88.9176C177.719 -91.0684 172.192 -92.5444 166.662 -93.4894C166.795 -93.4715 166.939 -93.4564 167.076 -93.4448C172.922 -92.5792 178.777 -91.1 184.466 -88.8799C187.74 -87.5982 190.811 -86.1123 193.733 -84.4255C198.169 -81.8643 202.272 -78.8281 206.305 -75.3501C215.916 -67.013 224.567 -56.9992 231.337 -46.0262C231.938 -45.0623 232.518 -44.0767 233.091 -43.0784C239.74 -31.4406 244.547 -18.5167 245.886 -7.12222C245.893 -7.07589 245.889 -7.01056 245.893 -6.95791ZM235.359 -44.3717C234.762 -45.401 234.165 -46.3875 233.553 -47.3914C226.643 -58.6056 217.82 -68.8035 208.017 -77.3193C203.877 -80.8922 199.633 -84.019 195.032 -86.6753C191.996 -88.4279 188.817 -89.9761 185.416 -91.3146C181.122 -92.982 176.729 -94.2424 172.325 -95.146C177.182 -94.2939 182.022 -93.0034 186.754 -91.2178C190.328 -89.8559 193.676 -88.2353 196.877 -86.3875C201.085 -83.958 205.031 -81.1049 208.911 -77.8591C218.691 -69.6102 227.428 -59.6141 234.14 -48.5824C234.733 -47.6058 235.307 -46.6239 235.879 -45.6093C241.943 -34.8328 246.337 -22.8746 247.792 -11.9453C245.814 -22.5847 241.304 -33.9597 235.369 -44.3744L235.359 -44.3717ZM238.19 -46.9197C237.613 -47.9543 237.015 -48.9672 236.406 -49.961C229.517 -61.2559 220.602 -71.456 210.61 -79.8783C206.643 -83.2244 202.565 -86.1707 198.198 -88.6917C194.884 -90.6053 191.408 -92.2827 187.699 -93.6889C183.769 -95.1804 179.775 -96.3119 175.751 -97.173C180.23 -96.3534 184.682 -95.1518 189.037 -93.5331C192.93 -92.0799 196.579 -90.3363 200.071 -88.3203C204.051 -86.0225 207.812 -83.3608 211.494 -80.3564C221.43 -72.203 230.253 -62.2084 236.922 -51.1333C237.516 -50.1567 238.089 -49.1584 238.648 -48.1512C244.494 -37.627 248.667 -25.8723 250.027 -14.9815C248.193 -25.5631 243.907 -36.741 238.197 -46.916L238.19 -46.9197ZM241.025 -49.4739C240.445 -50.5022 239.854 -51.5278 239.249 -52.5443C232.407 -63.9052 223.394 -74.1112 213.221 -82.469C209.439 -85.5483 205.541 -88.2968 201.428 -90.6714C197.81 -92.7607 194.018 -94.5784 189.993 -96.0822C187.209 -97.1148 184.389 -97.966 181.566 -98.6829C184.86 -97.9476 188.115 -97.0145 191.324 -95.8548C195.549 -94.3192 199.525 -92.4381 203.321 -90.2464C207.117 -88.0547 210.62 -85.6184 214.09 -82.8627C224.192 -74.7912 233.094 -64.8017 239.711 -53.6805C240.297 -52.6912 240.874 -51.6993 241.429 -50.6857C246.761 -40.9236 250.59 -30.0517 252.032 -19.7133C250.177 -29.7159 246.243 -40.0563 241.032 -49.4703L241.025 -49.4739ZM243.863 -52.0182C243.287 -53.0691 242.702 -54.091 242.102 -55.1139C235.287 -66.5519 226.17 -76.7674 215.817 -85.0343C212.246 -87.8649 208.571 -90.4263 204.705 -92.6583C200.839 -94.8902 196.65 -96.8694 192.258 -98.4674C189.973 -99.2963 187.657 -99.9828 185.327 -100.601C188.111 -99.949 190.876 -99.147 193.598 -98.1837C198.163 -96.5622 202.48 -94.5425 206.612 -92.1569C210.085 -90.1518 213.425 -87.8859 216.667 -85.38C226.928 -77.394 235.916 -67.4222 242.491 -56.2413C243.071 -55.2558 243.64 -54.2511 244.188 -53.2249C249.185 -43.9516 252.786 -33.5918 254.218 -23.5884C252.411 -33.2341 248.739 -43.0768 243.853 -52.0155L243.863 -52.0182ZM256.502 -27.1199C254.774 -36.5084 251.317 -45.9907 246.696 -54.5825C246.13 -55.6361 245.542 -56.668 244.944 -57.6809C238.167 -69.1985 228.943 -79.4336 218.415 -87.6159C215.069 -90.2068 211.623 -92.5512 208.036 -94.6222C203.764 -97.0883 199.287 -99.1831 194.546 -100.864C193.303 -101.303 192.051 -101.696 190.795 -102.066C192.501 -101.597 194.195 -101.092 195.888 -100.512C200.821 -98.796 205.51 -96.6294 209.997 -94.0389C213.185 -92.1984 216.271 -90.1379 219.276 -87.879C229.71 -79.9875 238.754 -70.0255 245.293 -58.7976C245.88 -57.8083 246.429 -56.7984 246.983 -55.7684C251.713 -46.8522 255.124 -36.8644 256.509 -27.1163L256.502 -27.1199ZM249.537 -57.1331C248.971 -58.1867 248.395 -59.2376 247.798 -60.2668C241.054 -71.8578 231.747 -82.0815 221.016 -90.2039C217.919 -92.5241 214.752 -94.6485 211.444 -96.5585C206.817 -99.2295 201.946 -101.476 196.826 -103.249C197.277 -103.107 197.732 -102.988 198.175 -102.833C203.481 -101.046 208.56 -98.7216 213.396 -95.9298C216.298 -94.2541 219.109 -92.4035 221.866 -90.3889C232.47 -82.602 241.59 -72.6388 248.073 -61.3584C248.648 -60.3502 249.204 -59.3366 249.742 -58.3076C253.907 -50.3596 256.953 -41.5117 258.453 -32.6943C256.687 -41.1244 253.573 -49.4879 249.534 -57.1267L249.537 -57.1331ZM260.879 -35.7977C259.202 -44.075 256.24 -52.249 252.362 -59.6846C251.813 -60.7536 251.231 -61.8082 250.64 -62.8338C243.934 -74.5045 234.538 -84.763 223.616 -92.7756C220.786 -94.8404 217.882 -96.7622 214.878 -98.4965C210.118 -101.244 205.098 -103.526 199.88 -105.347C200.069 -105.28 200.27 -105.232 200.457 -105.175C206.15 -103.299 211.634 -100.825 216.843 -97.8179C219.442 -96.3177 221.972 -94.6708 224.466 -92.9016C235.227 -85.2102 244.431 -75.2484 250.866 -63.9283C251.446 -62.9264 251.997 -61.9064 252.535 -60.8611C256.519 -53.1273 259.469 -44.4786 260.882 -35.8041L260.879 -35.7977ZM253.665 -66.4782C257.754 -59.2168 260.844 -50.9432 262.59 -42.4651C260.918 -49.3454 258.39 -56.0607 255.216 -62.2279C254.665 -63.3069 254.086 -64.3678 253.492 -65.4034C246.813 -77.1348 237.312 -87.4029 226.209 -95.3345C223.663 -97.1594 221.04 -98.8512 218.346 -100.406C214.5 -102.627 210.494 -104.559 206.38 -106.2C211.185 -104.423 215.857 -102.241 220.324 -99.6613C234.14 -91.6849 245.965 -80.1003 253.661 -66.4719L253.665 -66.4782Z" fill="#CDC3B3"/>
</g>
<defs>
<clipPath id="clip0_9339_49588">
<rect width="288.116" height="162.809" fill="white" transform="translate(14.4141 -185.387) rotate(30)"/>
</clipPath>
</defs>
</svg>
