<svg width="16" height="16" viewBox="0 0 16 16" fill="none" xmlns="http://www.w3.org/2000/svg">
<path d="M1.29289 13.2929L0.585786 14L2 15.4142L2.70711 14.7071L1.29289 13.2929ZM14.7071 2.70714L15.4142 2.00003L14 0.585816L13.2929 1.29292L14.7071 2.70714ZM2.70711 14.7071L14.7071 2.70714L13.2929 1.29292L1.29289 13.2929L2.70711 14.7071Z" fill="#908883"/>
<path d="M14.7071 13.2929L15.4142 14L14 15.4142L13.2929 14.7071L14.7071 13.2929ZM1.29289 2.70711L0.585786 2L2 0.585786L2.70711 1.29289L1.29289 2.70711ZM13.2929 14.7071L1.29289 2.70711L2.70711 1.29289L14.7071 13.2929L13.2929 14.7071Z" fill="#908883"/>
</svg>
