<svg width="28" height="22" viewBox="0 0 28 22" fill="none" xmlns="http://www.w3.org/2000/svg">
<path d="M11.84 16.56C11.84 14.04 10.16 11.64 6.44 11.64C6.56 8.28 8.96 5.28 12.32 4.2V0.959998C4.4 2.76 0.92 8.51999 0.92 14.64C0.92 19.32 3.56 21.6 6.68 21.6C9.56 21.6 11.84 19.56 11.84 16.56ZM26.96 16.56C26.96 14.04 25.16 11.52 21.44 11.64C21.68 8.28 23.96 5.28 27.32 4.2V0.959998C19.52 2.76 16.04 8.51999 16.04 14.64C16.04 19.32 18.68 21.6 21.68 21.6C24.68 21.6 26.96 19.56 26.96 16.56Z" fill="#004561"/>
</svg>
