<svg width="28" height="28" viewBox="0 0 20 18" fill="none" xmlns="http://www.w3.org/2000/svg">
<path fill-rule="evenodd" clip-rule="evenodd" d="M11.3632 0C11.616 0 11.8211 0.205119 11.8211 0.457934C11.8211 0.710749 11.616 0.915868 11.3632 0.915868H10.4579V1.71155C12.7366 1.82769 14.8881 2.80645 16.4719 4.45307C18.0808 6.12689 18.9793 8.35972 18.9776 10.6816V11.9153C18.9776 12.0365 18.9297 12.1534 18.8438 12.2394C18.7578 12.3253 18.6408 12.3733 18.5197 12.3733H10.4579V14.6546H17.4973C18.1613 14.6546 18.7975 14.9181 19.2667 15.3872C19.7358 15.8563 19.9999 16.4926 20 17.1565C20 17.2776 19.952 17.3947 19.8661 17.4806C19.7802 17.5665 19.6632 17.6145 19.5421 17.6145H0.457934C0.336817 17.6145 0.219821 17.5666 0.133881 17.4806C0.0480212 17.3947 0 17.2776 0 17.1565C0.000122466 15.7749 1.12111 14.6547 2.50266 14.6546H9.54207V12.3733H1.4803C1.35918 12.3733 1.24219 12.3253 1.15625 12.2394C1.07035 12.1535 1.02236 12.0364 1.02236 11.9153V10.6816C1.02068 8.35962 1.9199 6.12674 3.52883 4.45307C5.1127 2.80622 7.26397 1.82742 9.54283 1.71155V0.915868H8.63685C8.38408 0.915812 8.17967 0.710715 8.17967 0.457934C8.17967 0.205153 8.38408 5.5735e-05 8.63685 0H11.3632ZM2.50266 15.5698C1.79657 15.5698 1.18244 16.0344 0.982808 16.6994H19.0172C18.8175 16.0344 18.2035 15.5698 17.4973 15.5698H2.50266ZM14.0309 3.69922C11.5367 2.25918 8.46328 2.25912 5.96912 3.69922C3.47492 5.13964 1.93827 7.80121 1.93823 10.6816V11.4582H18.0625V10.6816C18.0625 7.80099 16.5252 5.13946 14.0309 3.69922ZM15.7957 4.91024C15.8584 4.97321 15.92 5.03708 15.9805 5.10193C16.1232 5.25491 16.2589 5.4137 16.389 5.5766C16.2038 5.34478 16.0061 5.1216 15.7957 4.91024ZM4.56413 3.67716C4.34037 3.85094 4.12423 4.03589 3.91678 4.23171C3.81311 4.32957 3.71177 4.43048 3.61251 4.5337C3.9104 4.22396 4.22856 3.9378 4.56413 3.67716Z" fill="white"/>
<path d="M12.7393 5.22059C14.0117 5.87125 14.7341 6.35775 15.4568 7.90682C15.5712 8.06227 15.79 8.10527 15.9555 8.00352C16.121 7.90266 16.1763 7.69256 16.0823 7.52423C15.4182 6.33588 14.4982 5.14892 13.1393 4.6153C12.9665 4.50615 12.7369 4.55394 12.6263 4.72217C12.5156 4.8904 12.5659 5.11511 12.7387 5.22428L12.7393 5.22059Z" fill="white"/>
</svg>
