<svg width="37" height="37" viewBox="0 0 37 37" fill="none" xmlns="http://www.w3.org/2000/svg">
<path fill-rule="evenodd" clip-rule="evenodd" d="M18.3929 0.341797C8.5286 0.341797 0.532227 8.33817 0.532227 18.2025C0.532227 28.0668 8.5286 36.0631 18.3929 36.0631C28.2572 36.0631 36.2536 28.0668 36.2536 18.2025C36.2536 8.33817 28.2572 0.341797 18.3929 0.341797ZM21.3771 17.8917L17.1984 15.942C16.8338 15.7726 16.5342 15.9624 16.5342 16.3661V20.0387C16.5342 20.4425 16.8338 20.6322 17.1984 20.4629L21.3752 18.5131C21.7417 18.342 21.7417 18.0629 21.3771 17.8917ZM9.08992 18.2023C9.08992 24.634 9.24992 25.4582 18.3923 25.4582C27.5348 25.4582 27.6948 24.634 27.6948 18.2023C27.6948 11.7706 27.5348 10.9464 18.3923 10.9464C9.24992 10.9464 9.08992 11.7706 9.08992 18.2023Z" fill="#FFFCFC"/>
</svg>
