<svg width="28" height="28" viewBox="0 0 28 28" fill="none" xmlns="http://www.w3.org/2000/svg">
<path d="M18.1367 3C18.4697 3.00021 18.7725 3.30887 18.7725 3.64746V5.58789H25.1064C26.8838 5.62704 27.9652 7.75587 28 9.58203V20.9961C27.9826 22.6554 27.1373 24.7852 25.1064 25H2.89355C1.11991 24.9596 0.0360438 22.8185 0 20.9961V9.58203C0.0174046 7.92006 0.861414 5.79768 2.89355 5.58789H9.22754V3.64746C9.2263 3.3278 9.4906 3.03046 9.80371 3H18.1367ZM2.89355 6.88281C1.74759 6.90811 1.31845 8.57353 1.27246 9.58203V20.9961C1.28366 22.0248 1.67052 23.4495 2.89355 23.7061H25.1064C26.2561 23.6808 26.6816 22.0059 26.7275 20.9961V9.58203C26.7163 8.5571 26.3257 7.13938 25.1064 6.88281H2.89355ZM10.5 4.29395V5.58789H17.5V4.29395H10.5Z" fill="white"/>
<line x1="5.6" y1="6" x2="5.6" y2="25" stroke="white" stroke-width="1.2"/>
<line x1="22.6" y1="6" x2="22.6" y2="25" stroke="white" stroke-width="1.2"/>
<path d="M10.9443 11.8664C11.2605 11.7389 11.6035 11.6899 11.9434 11.7228C12.2831 11.7559 12.6095 11.8702 12.8945 12.0558C13.1795 12.2415 13.4149 12.4923 13.5801 12.7873L14.1025 13.7228L14.627 12.7883C14.7923 12.4933 15.0274 12.2423 15.3125 12.0568C15.5977 11.8714 15.9248 11.7565 16.2646 11.7238C16.6044 11.6912 16.9468 11.7417 17.2627 11.8693C17.5786 11.997 17.8585 12.1982 18.0781 12.4562L18.0879 12.468L18.1025 12.4846C18.225 12.636 18.3274 12.8022 18.4062 12.9797L18.4141 12.9973L18.4229 13.0148C18.4333 13.035 18.4426 13.0557 18.4492 13.0773L18.4531 13.091L18.457 13.1027L18.4902 13.1965H18.4912C18.7115 13.8547 18.6136 14.5511 18.2803 15.2746C17.9443 16.0038 17.3858 16.7194 16.7578 17.3644C15.6956 18.4555 14.507 19.2708 14.1025 19.5363C13.697 19.27 12.5109 18.4548 11.4502 17.3644C10.8224 16.719 10.2633 16.0028 9.92773 15.2726C9.59472 14.5482 9.49834 13.85 9.71973 13.1896L9.72363 13.1769L9.7334 13.1476L9.75879 13.0969L9.77344 13.0412C9.77657 13.0297 9.78141 13.0187 9.78711 13.008L9.79785 12.9875L9.80664 12.968C9.88498 12.7923 9.98625 12.627 10.1084 12.4777L10.1348 12.4445C10.3535 12.1905 10.6316 11.9925 10.9443 11.8664Z" stroke="white" stroke-width="1.2"/>
</svg>
