<svg width="26" height="28" viewBox="0 0 26 28" fill="none" xmlns="http://www.w3.org/2000/svg">
<path d="M6.83811 5.0755H4.43457V23.8158H6.83811V5.0755Z" fill="#252525"/>
<path d="M12.2063 5.08362H9.80273C12.2879 5.08362 14.6712 6.07083 16.4284 7.82807C18.1857 9.58531 19.1729 11.9686 19.1729 14.4538C19.1729 16.9389 18.1857 19.3222 16.4284 21.0794C14.6712 22.8367 12.2879 23.8239 9.80273 23.8239H12.2063C14.6914 23.8239 17.0747 22.8367 18.832 21.0794C20.5892 19.3222 21.5764 16.9389 21.5764 14.4538C21.5764 11.9686 20.5892 9.58531 18.832 7.82807C17.0747 6.07083 14.6914 5.08362 12.2063 5.08362Z" fill="#252525"/>
</svg>
